%TF.GenerationSoftware,KiCad,Pcbnew,(5.99.0-6613-ge739d5ba65)*%
%TF.CreationDate,2020-11-19T23:40:31+01:00*%
%TF.ProjectId,min_sx1280,6d696e5f-7378-4313-9238-302e6b696361,rev?*%
%TF.SameCoordinates,PX5f31df8PY89d6220*%
%TF.FileFunction,Copper,L1,Top*%
%TF.FilePolarity,Positive*%
%FSLAX46Y46*%
G04 Gerber Fmt 4.6, Leading zero omitted, Abs format (unit mm)*
G04 Created by KiCad (PCBNEW (5.99.0-6613-ge739d5ba65)) date 2020-11-19 23:40:31*
%MOMM*%
%LPD*%
G01*
G04 APERTURE LIST*
%TA.AperFunction,SMDPad,CuDef*%
%ADD10O,2.000000X1.200000*%
%TD*%
%TA.AperFunction,ViaPad*%
%ADD11C,0.400000*%
%TD*%
%TA.AperFunction,ViaPad*%
%ADD12C,0.800000*%
%TD*%
%TA.AperFunction,Conductor*%
%ADD13C,0.400000*%
%TD*%
%TA.AperFunction,Conductor*%
%ADD14C,0.200000*%
%TD*%
G04 APERTURE END LIST*
D10*
%TO.P,U3,1,DIO2*%
%TO.N,Net-(U3-Pad1)*%
X1906000Y15382000D03*
%TO.P,U3,2,DIO3*%
%TO.N,Net-(U3-Pad2)*%
X1906000Y13382000D03*
%TO.P,U3,3,VCC*%
%TO.N,+3V3*%
X1906000Y11382000D03*
%TO.P,U3,4,GND*%
%TO.N,GND*%
X1906000Y9382000D03*
%TO.P,U3,5,MISO*%
%TO.N,/MISO*%
X1906000Y7382000D03*
%TO.P,U3,6,MOSI*%
%TO.N,/MOSI*%
X1906000Y5382000D03*
%TO.P,U3,7,SCK*%
%TO.N,/SCK*%
X1906000Y3382000D03*
%TO.P,U3,8,NSS*%
%TO.N,/NSS*%
X1906000Y1382000D03*
%TO.P,U3,9,ANT*%
%TO.N,Net-(AE2-Pad1)*%
X17906000Y1382000D03*
%TO.P,U3,10,GND*%
%TO.N,GND*%
X17906000Y3382000D03*
%TO.P,U3,11,GND*%
X17906000Y5382000D03*
%TO.P,U3,12,GND*%
X17906000Y7382000D03*
%TO.P,U3,13,NRESET*%
%TO.N,/NRESET*%
X17906000Y9382000D03*
%TO.P,U3,14,GND*%
%TO.N,GND*%
X17906000Y11382000D03*
%TO.P,U3,15,BUSY*%
%TO.N,/BUSY*%
X17906000Y13382000D03*
%TO.P,U3,16,DIO1*%
%TO.N,/DIO1*%
X17906000Y15382000D03*
%TD*%
D11*
%TO.N,GND*%
X3956000Y1732000D03*
X17031000Y2407000D03*
X7981000Y15507000D03*
X18181000Y2507000D03*
X16006000Y1357000D03*
X892000Y2407000D03*
X18631000Y12357000D03*
X7831000Y4207000D03*
X16856000Y257000D03*
X765000Y16182000D03*
X14031000Y6207000D03*
X16306000Y2232000D03*
X19106000Y2482000D03*
X1481000Y8532000D03*
X19307000Y982000D03*
X17706000Y257000D03*
X16206000Y9682000D03*
X16006000Y457000D03*
X12331000Y2457000D03*
X10456000Y15532000D03*
X4006000Y532000D03*
X18799000Y387000D03*
D12*
%TO.N,Net-(AE2-Pad1)*%
X17541625Y1302057D03*
%TO.N,+3V3*%
X1906000Y11382000D03*
D11*
%TO.N,/TX*%
X10706000Y7307000D03*
X10431000Y3457000D03*
%TO.N,/IO16*%
X16181000Y6607000D03*
X8756000Y8857000D03*
%TO.N,/BUSY*%
X15331000Y12407000D03*
%TO.N,/DIO1*%
X15356000Y13507000D03*
%TO.N,/NRESET*%
X19256000Y10457000D03*
%TO.N,/NSS*%
X6756000Y15682000D03*
%TO.N,/MOSI*%
X6081000Y14607000D03*
%TO.N,/MISO*%
X5456000Y13507000D03*
%TO.N,/SCK*%
X3681000Y5207000D03*
%TD*%
D13*
%TO.N,Net-(AE2-Pad1)*%
X17906000Y1382000D02*
X17621568Y1382000D01*
X17621568Y1382000D02*
X17541625Y1302057D01*
D14*
%TO.N,/TX*%
X10706000Y7307000D02*
X10706000Y3732000D01*
X10706000Y3732000D02*
X10431000Y3457000D01*
%TO.N,/IO16*%
X8756000Y8857000D02*
X13931000Y8857000D01*
X13931000Y8857000D02*
X16181000Y6607000D01*
%TO.N,/BUSY*%
X16306000Y13382000D02*
X17906000Y13382000D01*
X15331000Y12407000D02*
X16306000Y13382000D01*
%TO.N,/DIO1*%
X16056000Y14857000D02*
X16581000Y15382000D01*
X15356000Y13507000D02*
X16056000Y14207000D01*
X16056000Y14207000D02*
X16056000Y14857000D01*
X16581000Y15382000D02*
X17906000Y15382000D01*
%TO.N,/NRESET*%
X19256000Y10082000D02*
X18556000Y9382000D01*
X19256000Y10457000D02*
X19256000Y10082000D01*
X18556000Y9382000D02*
X17906000Y9382000D01*
%TO.N,/NSS*%
X2781000Y1382000D02*
X6756000Y5357000D01*
X1906000Y1382000D02*
X2781000Y1382000D01*
X6756000Y5357000D02*
X6756000Y15682000D01*
%TO.N,/MOSI*%
X6056000Y8357000D02*
X6056000Y14582000D01*
X6056000Y14582000D02*
X6081000Y14607000D01*
X3081000Y5382000D02*
X6056000Y8357000D01*
X1906000Y5382000D02*
X3081000Y5382000D01*
%TO.N,/MISO*%
X1906000Y7382000D02*
X2756000Y7382000D01*
X1906000Y7382000D02*
X3481000Y7382000D01*
X5456000Y9357000D02*
X5456000Y13507000D01*
X3481000Y7382000D02*
X5456000Y9357000D01*
%TO.N,/SCK*%
X1906000Y3382000D02*
X1906000Y3432000D01*
X1906000Y3432000D02*
X3681000Y5207000D01*
%TD*%
%TA.AperFunction,Conductor*%
%TO.N,GND*%
G36*
X19511192Y16509093D02*
G01*
X19552001Y16429000D01*
X19552001Y10978500D01*
X19533094Y10920309D01*
X19483594Y10884345D01*
X19425602Y10886168D01*
X19425153Y10884232D01*
X19292052Y10915084D01*
X19248999Y10912036D01*
X19189201Y10907802D01*
X19129820Y10922553D01*
X19090450Y10969389D01*
X19090289Y11043321D01*
X19131366Y11146019D01*
X19134233Y11156287D01*
X19148013Y11239530D01*
X19146018Y11252718D01*
X19145377Y11253368D01*
X19138683Y11255000D01*
X18048680Y11255000D01*
X18044402Y11253610D01*
X18033000Y11231232D01*
X18033000Y10543680D01*
X18034390Y10539402D01*
X18056768Y10528000D01*
X18349350Y10528000D01*
X18354684Y10528289D01*
X18485132Y10542460D01*
X18495536Y10544748D01*
X18661228Y10600509D01*
X18661494Y10600632D01*
X18661648Y10600650D01*
X18666309Y10602219D01*
X18666637Y10601245D01*
X18722250Y10607871D01*
X18775657Y10578016D01*
X18802009Y10509981D01*
X18801084Y10392256D01*
X18803204Y10385167D01*
X18840232Y10261354D01*
X18838693Y10260894D01*
X18845273Y10208826D01*
X18815799Y10155207D01*
X18760438Y10129153D01*
X18706189Y10137647D01*
X18582826Y10195172D01*
X18401752Y10235647D01*
X18397324Y10235895D01*
X18396824Y10235923D01*
X18396807Y10235923D01*
X18395438Y10236000D01*
X17459975Y10236000D01*
X17424564Y10232153D01*
X17326868Y10221540D01*
X17326864Y10221539D01*
X17321542Y10220961D01*
X17145691Y10161781D01*
X16986649Y10066219D01*
X16851839Y9938735D01*
X16747548Y9785276D01*
X16745558Y9780300D01*
X16688504Y9637655D01*
X16678643Y9613002D01*
X16677768Y9607717D01*
X16677767Y9607713D01*
X16660571Y9503838D01*
X16648339Y9429951D01*
X16648620Y9424594D01*
X16657628Y9252718D01*
X16658050Y9244662D01*
X16659474Y9239492D01*
X16683849Y9150998D01*
X16707322Y9065781D01*
X16793857Y8901653D01*
X16797316Y8897559D01*
X16797318Y8897557D01*
X16892295Y8785167D01*
X16913617Y8759936D01*
X17061015Y8647242D01*
X17229174Y8568828D01*
X17410248Y8528353D01*
X17414676Y8528105D01*
X17415176Y8528077D01*
X17415193Y8528077D01*
X17416562Y8528000D01*
X18352025Y8528000D01*
X18387436Y8531847D01*
X18485132Y8542460D01*
X18485136Y8542461D01*
X18490458Y8543039D01*
X18666309Y8602219D01*
X18825351Y8697781D01*
X18960161Y8825265D01*
X19009291Y8897557D01*
X19061439Y8974290D01*
X19061440Y8974292D01*
X19064452Y8978724D01*
X19099057Y9065242D01*
X19131366Y9146019D01*
X19131367Y9146023D01*
X19133357Y9150998D01*
X19135752Y9165461D01*
X19155690Y9285903D01*
X19163661Y9334049D01*
X19158285Y9436622D01*
X19187146Y9511808D01*
X19382998Y9707659D01*
X19437514Y9735436D01*
X19497946Y9725865D01*
X19541211Y9682600D01*
X19552001Y9637655D01*
X19552000Y4983700D01*
X19552000Y335446D01*
X19533093Y277255D01*
X19483593Y241291D01*
X19452876Y236446D01*
X358875Y260554D01*
X300708Y279535D01*
X260000Y359554D01*
X260000Y7429951D01*
X648339Y7429951D01*
X648620Y7424594D01*
X657628Y7252718D01*
X658050Y7244662D01*
X659474Y7239492D01*
X687699Y7137023D01*
X707322Y7065781D01*
X793857Y6901653D01*
X797316Y6897559D01*
X797318Y6897557D01*
X861522Y6821582D01*
X913617Y6759936D01*
X1061015Y6647242D01*
X1229174Y6568828D01*
X1410248Y6528353D01*
X1414676Y6528105D01*
X1415176Y6528077D01*
X1415193Y6528077D01*
X1416562Y6528000D01*
X2352025Y6528000D01*
X2387436Y6531847D01*
X2485132Y6542460D01*
X2485136Y6542461D01*
X2490458Y6543039D01*
X2666309Y6602219D01*
X2825351Y6697781D01*
X2960161Y6825265D01*
X3009291Y6897557D01*
X3061439Y6974290D01*
X3061440Y6974292D01*
X3064452Y6978724D01*
X3065175Y6978233D01*
X3105818Y7017481D01*
X3149216Y7027500D01*
X3432161Y7027500D01*
X3452997Y7025283D01*
X3456070Y7024621D01*
X3456073Y7024621D01*
X3464066Y7022900D01*
X3472187Y7023861D01*
X3472190Y7023861D01*
X3497136Y7026814D01*
X3502884Y7027153D01*
X3502883Y7027163D01*
X3506959Y7027500D01*
X3511040Y7027500D01*
X3528714Y7030442D01*
X3533293Y7031094D01*
X3581297Y7036775D01*
X3588262Y7040120D01*
X3589820Y7040612D01*
X3597448Y7041882D01*
X3640003Y7064844D01*
X3644129Y7066946D01*
X3687714Y7087875D01*
X3690845Y7090508D01*
X3692358Y7092021D01*
X3693934Y7093466D01*
X3694052Y7093337D01*
X3696010Y7095063D01*
X3701340Y7097939D01*
X3737470Y7137024D01*
X3740163Y7139826D01*
X5532496Y8932158D01*
X5587013Y8959935D01*
X5647445Y8950364D01*
X5690710Y8907099D01*
X5701500Y8862154D01*
X5701500Y8544847D01*
X5672504Y8474843D01*
X4369972Y7172310D01*
X3113447Y5915785D01*
X3058930Y5888008D01*
X2998498Y5897579D01*
X2967828Y5921888D01*
X2901844Y5999969D01*
X2901842Y5999971D01*
X2898383Y6004064D01*
X2750985Y6116758D01*
X2582826Y6195172D01*
X2401752Y6235647D01*
X2397324Y6235895D01*
X2396824Y6235923D01*
X2396807Y6235923D01*
X2395438Y6236000D01*
X1459975Y6236000D01*
X1424564Y6232153D01*
X1326868Y6221540D01*
X1326864Y6221539D01*
X1321542Y6220961D01*
X1145691Y6161781D01*
X986649Y6066219D01*
X851839Y5938735D01*
X848825Y5934300D01*
X781296Y5834934D01*
X747548Y5785276D01*
X745558Y5780300D01*
X681806Y5620909D01*
X678643Y5613002D01*
X677768Y5607717D01*
X677767Y5607713D01*
X660571Y5503838D01*
X648339Y5429951D01*
X651737Y5365118D01*
X657628Y5252718D01*
X658050Y5244662D01*
X659474Y5239492D01*
X685221Y5146019D01*
X707322Y5065781D01*
X793857Y4901653D01*
X797316Y4897559D01*
X797318Y4897557D01*
X910157Y4764030D01*
X913617Y4759936D01*
X1061015Y4647242D01*
X1229174Y4568828D01*
X1410248Y4528353D01*
X1414676Y4528105D01*
X1415176Y4528077D01*
X1415193Y4528077D01*
X1416562Y4528000D01*
X2261654Y4528000D01*
X2319845Y4509093D01*
X2355809Y4459593D01*
X2355809Y4398407D01*
X2331658Y4358996D01*
X2237658Y4264996D01*
X2167654Y4236000D01*
X1459975Y4236000D01*
X1424564Y4232153D01*
X1326868Y4221540D01*
X1326864Y4221539D01*
X1321542Y4220961D01*
X1145691Y4161781D01*
X986649Y4066219D01*
X851839Y3938735D01*
X848825Y3934300D01*
X795705Y3856136D01*
X747548Y3785276D01*
X745558Y3780300D01*
X683277Y3624587D01*
X678643Y3613002D01*
X677768Y3607717D01*
X677767Y3607713D01*
X660912Y3505896D01*
X648339Y3429951D01*
X648620Y3424594D01*
X657628Y3252718D01*
X658050Y3244662D01*
X659474Y3239492D01*
X683049Y3153902D01*
X707322Y3065781D01*
X793857Y2901653D01*
X797316Y2897559D01*
X797318Y2897557D01*
X861522Y2821582D01*
X913617Y2759936D01*
X1061015Y2647242D01*
X1229174Y2568828D01*
X1410248Y2528353D01*
X1414676Y2528105D01*
X1415176Y2528077D01*
X1415193Y2528077D01*
X1416562Y2528000D01*
X2352025Y2528000D01*
X2387436Y2531847D01*
X2485132Y2542460D01*
X2485136Y2542461D01*
X2490458Y2543039D01*
X2666309Y2602219D01*
X2825351Y2697781D01*
X2960161Y2825265D01*
X3009291Y2897557D01*
X3061439Y2974290D01*
X3061440Y2974292D01*
X3064452Y2978724D01*
X3097556Y3061489D01*
X3131366Y3146019D01*
X3131367Y3146023D01*
X3133357Y3150998D01*
X3139389Y3187430D01*
X3159413Y3308387D01*
X3163661Y3334049D01*
X3157752Y3446798D01*
X3154231Y3513983D01*
X3154230Y3513986D01*
X3153950Y3519338D01*
X3129608Y3607713D01*
X3106104Y3693042D01*
X3104678Y3698219D01*
X3018143Y3862347D01*
X2994251Y3890620D01*
X2971132Y3947268D01*
X2999862Y4024524D01*
X3706919Y4731582D01*
X3756087Y4758361D01*
X3836187Y4775605D01*
X3836190Y4775606D01*
X3843422Y4777163D01*
X3962631Y4843924D01*
X3967739Y4849279D01*
X3967742Y4849281D01*
X4022229Y4906399D01*
X4056940Y4942785D01*
X4118010Y5065007D01*
X4140443Y5199782D01*
X4140500Y5207000D01*
X4135610Y5239530D01*
X4121287Y5334795D01*
X4120187Y5342112D01*
X4078008Y5429951D01*
X4064248Y5458605D01*
X4064247Y5458606D01*
X4061044Y5465277D01*
X3968299Y5565608D01*
X3961899Y5569325D01*
X3961897Y5569327D01*
X3951559Y5575332D01*
X3910738Y5620909D01*
X3904502Y5681776D01*
X3931280Y5730942D01*
X5058944Y6858605D01*
X6232496Y8032157D01*
X6287013Y8059934D01*
X6347445Y8050363D01*
X6390710Y8007098D01*
X6401500Y7962153D01*
X6401500Y5544846D01*
X6372504Y5474842D01*
X4663124Y3765461D01*
X2961561Y2063898D01*
X2907044Y2036121D01*
X2831428Y2055255D01*
X2798120Y2080721D01*
X2755246Y2113501D01*
X2755241Y2113504D01*
X2750985Y2116758D01*
X2582826Y2195172D01*
X2401752Y2235647D01*
X2397324Y2235895D01*
X2396824Y2235923D01*
X2396807Y2235923D01*
X2395438Y2236000D01*
X1459975Y2236000D01*
X1424564Y2232153D01*
X1326868Y2221540D01*
X1326864Y2221539D01*
X1321542Y2220961D01*
X1145691Y2161781D01*
X986649Y2066219D01*
X851839Y1938735D01*
X848825Y1934300D01*
X799926Y1862347D01*
X747548Y1785276D01*
X745558Y1780300D01*
X712728Y1698219D01*
X678643Y1613002D01*
X648339Y1429951D01*
X658050Y1244662D01*
X659474Y1239492D01*
X683849Y1150998D01*
X707322Y1065781D01*
X793857Y901653D01*
X797316Y897559D01*
X797318Y897557D01*
X861522Y821582D01*
X913617Y759936D01*
X1061015Y647242D01*
X1229174Y568828D01*
X1410248Y528353D01*
X1414676Y528105D01*
X1415176Y528077D01*
X1415193Y528077D01*
X1416562Y528000D01*
X2352025Y528000D01*
X2387436Y531847D01*
X2485132Y542460D01*
X2485136Y542461D01*
X2490458Y543039D01*
X2666309Y602219D01*
X2825351Y697781D01*
X2960161Y825265D01*
X3009291Y897557D01*
X3061439Y974290D01*
X3061440Y974292D01*
X3064452Y978724D01*
X3133357Y1150998D01*
X3134233Y1156291D01*
X3134235Y1156297D01*
X3144440Y1217935D01*
X3172106Y1271769D01*
X3330288Y1429951D01*
X16648339Y1429951D01*
X16658050Y1244662D01*
X16659474Y1239492D01*
X16683849Y1150998D01*
X16707322Y1065781D01*
X16793857Y901653D01*
X16797316Y897559D01*
X16797318Y897557D01*
X16861522Y821582D01*
X16913617Y759936D01*
X17061015Y647242D01*
X17229174Y568828D01*
X17410248Y528353D01*
X17414676Y528105D01*
X17415176Y528077D01*
X17415193Y528077D01*
X17416562Y528000D01*
X18352025Y528000D01*
X18387436Y531847D01*
X18485132Y542460D01*
X18485136Y542461D01*
X18490458Y543039D01*
X18666309Y602219D01*
X18825351Y697781D01*
X18960161Y825265D01*
X19009291Y897557D01*
X19061439Y974290D01*
X19061440Y974292D01*
X19064452Y978724D01*
X19097373Y1061031D01*
X19131366Y1146019D01*
X19131367Y1146023D01*
X19133357Y1150998D01*
X19134235Y1156297D01*
X19162785Y1328759D01*
X19163661Y1334049D01*
X19153950Y1519338D01*
X19129608Y1607713D01*
X19106104Y1693042D01*
X19104678Y1698219D01*
X19018143Y1862347D01*
X18953591Y1938735D01*
X18901843Y1999970D01*
X18901841Y1999971D01*
X18898383Y2004064D01*
X18750985Y2116758D01*
X18582826Y2195172D01*
X18401752Y2235647D01*
X18397324Y2235895D01*
X18396824Y2235923D01*
X18396807Y2235923D01*
X18395438Y2236000D01*
X17459975Y2236000D01*
X17424564Y2232153D01*
X17326868Y2221540D01*
X17326864Y2221539D01*
X17321542Y2220961D01*
X17145691Y2161781D01*
X16986649Y2066219D01*
X16851839Y1938735D01*
X16848825Y1934300D01*
X16799926Y1862347D01*
X16747548Y1785276D01*
X16745558Y1780300D01*
X16712728Y1698219D01*
X16678643Y1613002D01*
X16648339Y1429951D01*
X3330288Y1429951D01*
X5292593Y3392256D01*
X9976084Y3392256D01*
X9978204Y3385167D01*
X9993492Y3334049D01*
X10015232Y3261354D01*
X10019344Y3255200D01*
X10029840Y3239492D01*
X10091140Y3147751D01*
X10197095Y3061489D01*
X10323732Y3010196D01*
X10331104Y3009558D01*
X10331106Y3009557D01*
X10385228Y3004870D01*
X10459852Y2998407D01*
X10467083Y2999964D01*
X10467086Y2999964D01*
X10586187Y3025605D01*
X10586189Y3025606D01*
X10593422Y3027163D01*
X10712631Y3093924D01*
X10717739Y3099279D01*
X10717742Y3099281D01*
X10769847Y3153902D01*
X10806940Y3192785D01*
X10834252Y3247447D01*
X16658186Y3247447D01*
X16659474Y3239492D01*
X16705896Y3070958D01*
X16709827Y3061031D01*
X16791355Y2906399D01*
X16797318Y2897557D01*
X16910157Y2764030D01*
X16917876Y2756680D01*
X17056754Y2650500D01*
X17065877Y2644975D01*
X17224315Y2571094D01*
X17234404Y2567659D01*
X17406289Y2529238D01*
X17414297Y2528127D01*
X17415176Y2528077D01*
X17417956Y2528000D01*
X17763320Y2528000D01*
X17767598Y2529390D01*
X17779000Y2551768D01*
X17779000Y3231232D01*
X18033000Y3231232D01*
X18033000Y2543680D01*
X18034390Y2539402D01*
X18056768Y2528000D01*
X18349350Y2528000D01*
X18354684Y2528289D01*
X18485132Y2542460D01*
X18495536Y2544748D01*
X18661230Y2600510D01*
X18670900Y2604978D01*
X18820758Y2695021D01*
X18829245Y2701463D01*
X18956266Y2821582D01*
X18963175Y2829700D01*
X19061439Y2974290D01*
X19066442Y2983700D01*
X19131366Y3146019D01*
X19134233Y3156287D01*
X19148013Y3239530D01*
X19146018Y3252718D01*
X19145377Y3253368D01*
X19138683Y3255000D01*
X18048680Y3255000D01*
X18044402Y3253610D01*
X18033000Y3231232D01*
X17779000Y3231232D01*
X17779000Y3239320D01*
X17777610Y3243598D01*
X17755232Y3255000D01*
X16673188Y3255000D01*
X16660503Y3250878D01*
X16658224Y3247743D01*
X16658186Y3247447D01*
X10834252Y3247447D01*
X10868010Y3315007D01*
X10871180Y3334049D01*
X10878307Y3376872D01*
X10905960Y3430622D01*
X10922136Y3446798D01*
X10938440Y3459964D01*
X10941070Y3461662D01*
X10947948Y3466103D01*
X10968559Y3492248D01*
X10972391Y3496561D01*
X10972383Y3496567D01*
X10975029Y3499690D01*
X10977911Y3502572D01*
X10980283Y3505892D01*
X10980287Y3505896D01*
X10988320Y3517136D01*
X10991119Y3520865D01*
X10993960Y3524470D01*
X16663987Y3524470D01*
X16665982Y3511282D01*
X16666623Y3510632D01*
X16673317Y3509000D01*
X17763320Y3509000D01*
X17767598Y3510390D01*
X17779000Y3532768D01*
X17779000Y4212232D01*
X18033000Y4212232D01*
X18033000Y3524680D01*
X18034390Y3520402D01*
X18056768Y3509000D01*
X19138812Y3509000D01*
X19151497Y3513122D01*
X19153776Y3516257D01*
X19153814Y3516553D01*
X19152526Y3524508D01*
X19106104Y3693042D01*
X19102173Y3702969D01*
X19020645Y3857601D01*
X19014682Y3866443D01*
X18901843Y3999970D01*
X18894124Y4007320D01*
X18755246Y4113500D01*
X18746123Y4119025D01*
X18587685Y4192906D01*
X18577596Y4196341D01*
X18405711Y4234762D01*
X18397703Y4235873D01*
X18396824Y4235923D01*
X18394044Y4236000D01*
X18048680Y4236000D01*
X18044402Y4234610D01*
X18033000Y4212232D01*
X17779000Y4212232D01*
X17779000Y4220320D01*
X17777610Y4224598D01*
X17755232Y4236000D01*
X17462650Y4236000D01*
X17457316Y4235711D01*
X17326868Y4221540D01*
X17316464Y4219252D01*
X17150770Y4163490D01*
X17141100Y4159022D01*
X16991242Y4068979D01*
X16982755Y4062537D01*
X16855734Y3942418D01*
X16848825Y3934300D01*
X16750561Y3789710D01*
X16745558Y3780300D01*
X16680634Y3617981D01*
X16677767Y3607713D01*
X16663987Y3524470D01*
X10993960Y3524470D01*
X11015966Y3552383D01*
X11015967Y3552386D01*
X11021032Y3558810D01*
X11023593Y3566101D01*
X11024346Y3567550D01*
X11028841Y3573841D01*
X11031186Y3581681D01*
X11042692Y3620153D01*
X11044133Y3624587D01*
X11058084Y3664315D01*
X11058085Y3664319D01*
X11060147Y3670191D01*
X11060500Y3674267D01*
X11060500Y3676407D01*
X11060592Y3678540D01*
X11060767Y3678532D01*
X11060931Y3681145D01*
X11062665Y3686942D01*
X11060576Y3740119D01*
X11060500Y3744004D01*
X11060500Y5247447D01*
X16658186Y5247447D01*
X16659474Y5239492D01*
X16705896Y5070958D01*
X16709827Y5061031D01*
X16791355Y4906399D01*
X16797318Y4897557D01*
X16910157Y4764030D01*
X16917876Y4756680D01*
X17056754Y4650500D01*
X17065877Y4644975D01*
X17224315Y4571094D01*
X17234404Y4567659D01*
X17406289Y4529238D01*
X17414297Y4528127D01*
X17415176Y4528077D01*
X17417956Y4528000D01*
X17763320Y4528000D01*
X17767598Y4529390D01*
X17779000Y4551768D01*
X17779000Y5231232D01*
X18033000Y5231232D01*
X18033000Y4543680D01*
X18034390Y4539402D01*
X18056768Y4528000D01*
X18349350Y4528000D01*
X18354684Y4528289D01*
X18485132Y4542460D01*
X18495536Y4544748D01*
X18661230Y4600510D01*
X18670900Y4604978D01*
X18820758Y4695021D01*
X18829245Y4701463D01*
X18956266Y4821582D01*
X18963175Y4829700D01*
X19061439Y4974290D01*
X19066442Y4983700D01*
X19131366Y5146019D01*
X19134233Y5156287D01*
X19148013Y5239530D01*
X19146018Y5252718D01*
X19145377Y5253368D01*
X19138683Y5255000D01*
X18048680Y5255000D01*
X18044402Y5253610D01*
X18033000Y5231232D01*
X17779000Y5231232D01*
X17779000Y5239320D01*
X17777610Y5243598D01*
X17755232Y5255000D01*
X16673188Y5255000D01*
X16660503Y5250878D01*
X16658224Y5247743D01*
X16658186Y5247447D01*
X11060500Y5247447D01*
X11060500Y5524470D01*
X16663987Y5524470D01*
X16665982Y5511282D01*
X16666623Y5510632D01*
X16673317Y5509000D01*
X17763320Y5509000D01*
X17767598Y5510390D01*
X17779000Y5532768D01*
X17779000Y6212232D01*
X18033000Y6212232D01*
X18033000Y5524680D01*
X18034390Y5520402D01*
X18056768Y5509000D01*
X19138812Y5509000D01*
X19151497Y5513122D01*
X19153776Y5516257D01*
X19153814Y5516553D01*
X19152526Y5524508D01*
X19106104Y5693042D01*
X19102173Y5702969D01*
X19020645Y5857601D01*
X19014682Y5866443D01*
X18901843Y5999970D01*
X18894124Y6007320D01*
X18755246Y6113500D01*
X18746123Y6119025D01*
X18587685Y6192906D01*
X18577596Y6196341D01*
X18405711Y6234762D01*
X18397703Y6235873D01*
X18396824Y6235923D01*
X18394044Y6236000D01*
X18048680Y6236000D01*
X18044402Y6234610D01*
X18033000Y6212232D01*
X17779000Y6212232D01*
X17779000Y6220320D01*
X17777610Y6224598D01*
X17755232Y6236000D01*
X17462650Y6236000D01*
X17457316Y6235711D01*
X17326868Y6221540D01*
X17316464Y6219252D01*
X17150770Y6163490D01*
X17141100Y6159022D01*
X16991242Y6068979D01*
X16982755Y6062537D01*
X16855734Y5942418D01*
X16848825Y5934300D01*
X16750561Y5789710D01*
X16745558Y5780300D01*
X16680634Y5617981D01*
X16677767Y5607713D01*
X16663987Y5524470D01*
X11060500Y5524470D01*
X11060500Y6982882D01*
X11078204Y7038869D01*
X11081940Y7042785D01*
X11085250Y7049409D01*
X11139701Y7158384D01*
X11139702Y7158386D01*
X11143010Y7165007D01*
X11165443Y7299782D01*
X11165500Y7307000D01*
X11153633Y7385937D01*
X11146287Y7434795D01*
X11145187Y7442112D01*
X11112401Y7510390D01*
X11089248Y7558605D01*
X11089247Y7558606D01*
X11086044Y7565277D01*
X11041928Y7613002D01*
X10998323Y7660173D01*
X10993299Y7665608D01*
X10875153Y7734232D01*
X10742052Y7765084D01*
X10663575Y7759527D01*
X10613147Y7755957D01*
X10613146Y7755957D01*
X10605763Y7755434D01*
X10478337Y7706136D01*
X10472523Y7701552D01*
X10472522Y7701552D01*
X10376852Y7626132D01*
X10376851Y7626130D01*
X10371039Y7621549D01*
X10366832Y7615462D01*
X10366831Y7615461D01*
X10361476Y7607713D01*
X10293356Y7509152D01*
X10252157Y7378882D01*
X10251084Y7242256D01*
X10290232Y7111354D01*
X10326878Y7056511D01*
X10334815Y7044632D01*
X10351500Y6989630D01*
X10351501Y5465277D01*
X10351501Y3981307D01*
X10332594Y3923116D01*
X10288222Y3888976D01*
X10203337Y3856136D01*
X10197523Y3851552D01*
X10197522Y3851552D01*
X10101852Y3776132D01*
X10101851Y3776130D01*
X10096039Y3771549D01*
X10091832Y3765462D01*
X10091831Y3765461D01*
X10022565Y3665242D01*
X10018356Y3659152D01*
X10016124Y3652094D01*
X9989816Y3568908D01*
X9977157Y3528882D01*
X9976084Y3392256D01*
X5292593Y3392256D01*
X6972136Y5071798D01*
X6988438Y5084963D01*
X6991072Y5086664D01*
X6997947Y5091103D01*
X7018564Y5117255D01*
X7022387Y5121557D01*
X7022379Y5121564D01*
X7025025Y5124687D01*
X7027910Y5127572D01*
X7038313Y5142130D01*
X7041107Y5145851D01*
X7071032Y5183810D01*
X7073593Y5191101D01*
X7074348Y5192554D01*
X7078840Y5198841D01*
X7092687Y5245142D01*
X7094127Y5249573D01*
X7108082Y5289309D01*
X7108083Y5289314D01*
X7110147Y5295191D01*
X7110500Y5299267D01*
X7110500Y5301410D01*
X7110592Y5303540D01*
X7110767Y5303532D01*
X7110931Y5306145D01*
X7112665Y5311942D01*
X7110576Y5365119D01*
X7110500Y5369004D01*
X7110500Y8792256D01*
X8301084Y8792256D01*
X8340232Y8661354D01*
X8416140Y8547751D01*
X8522095Y8461489D01*
X8648732Y8410196D01*
X8656104Y8409558D01*
X8656106Y8409557D01*
X8710228Y8404870D01*
X8784852Y8398407D01*
X8792083Y8399964D01*
X8792086Y8399964D01*
X8911187Y8425605D01*
X8911189Y8425606D01*
X8918422Y8427163D01*
X9030404Y8489877D01*
X9078779Y8502500D01*
X13743155Y8502500D01*
X13813159Y8473504D01*
X14286692Y7999970D01*
X15700985Y6585676D01*
X15723128Y6541372D01*
X15726084Y6542256D01*
X15765232Y6411354D01*
X15841140Y6297751D01*
X15947095Y6211489D01*
X16073732Y6160196D01*
X16081104Y6159558D01*
X16081106Y6159557D01*
X16135228Y6154870D01*
X16209852Y6148407D01*
X16217083Y6149964D01*
X16217086Y6149964D01*
X16336187Y6175605D01*
X16336189Y6175606D01*
X16343422Y6177163D01*
X16462631Y6243924D01*
X16467739Y6249279D01*
X16467742Y6249281D01*
X16519847Y6303902D01*
X16556940Y6342785D01*
X16588127Y6405200D01*
X16614701Y6458384D01*
X16614702Y6458386D01*
X16618010Y6465007D01*
X16640443Y6599782D01*
X16640500Y6607000D01*
X16620187Y6742112D01*
X16580258Y6825265D01*
X16564248Y6858605D01*
X16564247Y6858606D01*
X16561044Y6865277D01*
X16468299Y6965608D01*
X16362341Y7027153D01*
X16356551Y7030516D01*
X16356550Y7030516D01*
X16350153Y7034232D01*
X16254038Y7056511D01*
X16206389Y7082950D01*
X16041892Y7247447D01*
X16658186Y7247447D01*
X16659474Y7239492D01*
X16705896Y7070958D01*
X16709827Y7061031D01*
X16791355Y6906399D01*
X16797318Y6897557D01*
X16910157Y6764030D01*
X16917876Y6756680D01*
X17056754Y6650500D01*
X17065877Y6644975D01*
X17224315Y6571094D01*
X17234404Y6567659D01*
X17406289Y6529238D01*
X17414297Y6528127D01*
X17415176Y6528077D01*
X17417956Y6528000D01*
X17763320Y6528000D01*
X17767598Y6529390D01*
X17779000Y6551768D01*
X17779000Y7231232D01*
X18033000Y7231232D01*
X18033000Y6543680D01*
X18034390Y6539402D01*
X18056768Y6528000D01*
X18349350Y6528000D01*
X18354684Y6528289D01*
X18485132Y6542460D01*
X18495536Y6544748D01*
X18661230Y6600510D01*
X18670900Y6604978D01*
X18820758Y6695021D01*
X18829245Y6701463D01*
X18956266Y6821582D01*
X18963175Y6829700D01*
X19061439Y6974290D01*
X19066442Y6983700D01*
X19131366Y7146019D01*
X19134233Y7156287D01*
X19148013Y7239530D01*
X19146018Y7252718D01*
X19145377Y7253368D01*
X19138683Y7255000D01*
X18048680Y7255000D01*
X18044402Y7253610D01*
X18033000Y7231232D01*
X17779000Y7231232D01*
X17779000Y7239320D01*
X17777610Y7243598D01*
X17755232Y7255000D01*
X16673188Y7255000D01*
X16660503Y7250878D01*
X16658224Y7247743D01*
X16658186Y7247447D01*
X16041892Y7247447D01*
X15764869Y7524470D01*
X16663987Y7524470D01*
X16665982Y7511282D01*
X16666623Y7510632D01*
X16673317Y7509000D01*
X17763320Y7509000D01*
X17767598Y7510390D01*
X17779000Y7532768D01*
X17779000Y8212232D01*
X18033000Y8212232D01*
X18033000Y7524680D01*
X18034390Y7520402D01*
X18056768Y7509000D01*
X19138812Y7509000D01*
X19151497Y7513122D01*
X19153776Y7516257D01*
X19153814Y7516553D01*
X19152526Y7524508D01*
X19106104Y7693042D01*
X19102173Y7702969D01*
X19020645Y7857601D01*
X19014682Y7866443D01*
X18901843Y7999970D01*
X18894124Y8007320D01*
X18755246Y8113500D01*
X18746123Y8119025D01*
X18587685Y8192906D01*
X18577596Y8196341D01*
X18405711Y8234762D01*
X18397703Y8235873D01*
X18396824Y8235923D01*
X18394044Y8236000D01*
X18048680Y8236000D01*
X18044402Y8234610D01*
X18033000Y8212232D01*
X17779000Y8212232D01*
X17779000Y8220320D01*
X17777610Y8224598D01*
X17755232Y8236000D01*
X17462650Y8236000D01*
X17457316Y8235711D01*
X17326868Y8221540D01*
X17316464Y8219252D01*
X17150770Y8163490D01*
X17141100Y8159022D01*
X16991242Y8068979D01*
X16982755Y8062537D01*
X16855734Y7942418D01*
X16848825Y7934300D01*
X16750561Y7789710D01*
X16745558Y7780300D01*
X16680634Y7617981D01*
X16677767Y7607713D01*
X16663987Y7524470D01*
X15764869Y7524470D01*
X14216205Y9073133D01*
X14203042Y9089432D01*
X14201336Y9092074D01*
X14201335Y9092075D01*
X14196897Y9098948D01*
X14170738Y9119570D01*
X14166442Y9123387D01*
X14166435Y9123379D01*
X14163313Y9126024D01*
X14160427Y9128910D01*
X14145899Y9139292D01*
X14142169Y9142092D01*
X14137187Y9146019D01*
X14104190Y9172032D01*
X14096897Y9174593D01*
X14095444Y9175348D01*
X14089158Y9179840D01*
X14081319Y9182184D01*
X14081318Y9182185D01*
X14058251Y9189083D01*
X14042864Y9193685D01*
X14038433Y9195125D01*
X13998691Y9209082D01*
X13998686Y9209083D01*
X13992809Y9211147D01*
X13988733Y9211500D01*
X13986590Y9211500D01*
X13984460Y9211592D01*
X13984468Y9211767D01*
X13981853Y9211931D01*
X13976057Y9213665D01*
X13967884Y9213344D01*
X13967883Y9213344D01*
X13922893Y9211576D01*
X13919006Y9211500D01*
X9077038Y9211500D01*
X9027314Y9224893D01*
X8931551Y9280516D01*
X8931550Y9280516D01*
X8925153Y9284232D01*
X8792052Y9315084D01*
X8713575Y9309527D01*
X8663147Y9305957D01*
X8663146Y9305957D01*
X8655763Y9305434D01*
X8528337Y9256136D01*
X8522523Y9251552D01*
X8522522Y9251552D01*
X8426852Y9176132D01*
X8426851Y9176130D01*
X8421039Y9171549D01*
X8416832Y9165462D01*
X8416831Y9165461D01*
X8370861Y9098948D01*
X8343356Y9059152D01*
X8302157Y8928882D01*
X8301084Y8792256D01*
X7110500Y8792256D01*
X7110500Y11247447D01*
X16658186Y11247447D01*
X16659474Y11239492D01*
X16705896Y11070958D01*
X16709827Y11061031D01*
X16791355Y10906399D01*
X16797318Y10897557D01*
X16910157Y10764030D01*
X16917876Y10756680D01*
X17056754Y10650500D01*
X17065877Y10644975D01*
X17224315Y10571094D01*
X17234404Y10567659D01*
X17406289Y10529238D01*
X17414297Y10528127D01*
X17415176Y10528077D01*
X17417956Y10528000D01*
X17763320Y10528000D01*
X17767598Y10529390D01*
X17779000Y10551768D01*
X17779000Y11239320D01*
X17777610Y11243598D01*
X17755232Y11255000D01*
X16673188Y11255000D01*
X16660503Y11250878D01*
X16658224Y11247743D01*
X16658186Y11247447D01*
X7110500Y11247447D01*
X7110500Y11524470D01*
X16663987Y11524470D01*
X16665982Y11511282D01*
X16666623Y11510632D01*
X16673317Y11509000D01*
X17763320Y11509000D01*
X17767598Y11510390D01*
X17779000Y11532768D01*
X17779000Y12212232D01*
X18033000Y12212232D01*
X18033000Y11524680D01*
X18034390Y11520402D01*
X18056768Y11509000D01*
X19138812Y11509000D01*
X19151497Y11513122D01*
X19153776Y11516257D01*
X19153814Y11516553D01*
X19152526Y11524508D01*
X19106104Y11693042D01*
X19102173Y11702969D01*
X19020645Y11857601D01*
X19014682Y11866443D01*
X18901843Y11999970D01*
X18894124Y12007320D01*
X18755246Y12113500D01*
X18746123Y12119025D01*
X18587685Y12192906D01*
X18577596Y12196341D01*
X18405711Y12234762D01*
X18397703Y12235873D01*
X18396824Y12235923D01*
X18394044Y12236000D01*
X18048680Y12236000D01*
X18044402Y12234610D01*
X18033000Y12212232D01*
X17779000Y12212232D01*
X17779000Y12220320D01*
X17777610Y12224598D01*
X17755232Y12236000D01*
X17462650Y12236000D01*
X17457316Y12235711D01*
X17326868Y12221540D01*
X17316464Y12219252D01*
X17150770Y12163490D01*
X17141100Y12159022D01*
X16991242Y12068979D01*
X16982755Y12062537D01*
X16855734Y11942418D01*
X16848825Y11934300D01*
X16750561Y11789710D01*
X16745558Y11780300D01*
X16680634Y11617981D01*
X16677767Y11607713D01*
X16663987Y11524470D01*
X7110500Y11524470D01*
X7110500Y12342256D01*
X14876084Y12342256D01*
X14878204Y12335167D01*
X14908277Y12234610D01*
X14915232Y12211354D01*
X14991140Y12097751D01*
X14996876Y12093081D01*
X15034393Y12062537D01*
X15097095Y12011489D01*
X15223732Y11960196D01*
X15231104Y11959558D01*
X15231106Y11959557D01*
X15285228Y11954870D01*
X15359852Y11948407D01*
X15367083Y11949964D01*
X15367086Y11949964D01*
X15486187Y11975605D01*
X15486189Y11975606D01*
X15493422Y11977163D01*
X15612631Y12043924D01*
X15617739Y12049279D01*
X15617742Y12049281D01*
X15684274Y12119025D01*
X15706940Y12142785D01*
X15738127Y12205200D01*
X15764701Y12258384D01*
X15764702Y12258386D01*
X15768010Y12265007D01*
X15778308Y12326874D01*
X15805960Y12380622D01*
X16423843Y12998504D01*
X16493847Y13027500D01*
X16667785Y13027500D01*
X16725976Y13008593D01*
X16755357Y12974674D01*
X16793857Y12901653D01*
X16797316Y12897559D01*
X16797318Y12897557D01*
X16910157Y12764030D01*
X16913617Y12759936D01*
X17061015Y12647242D01*
X17229174Y12568828D01*
X17410248Y12528353D01*
X17414676Y12528105D01*
X17415176Y12528077D01*
X17415193Y12528077D01*
X17416562Y12528000D01*
X18352025Y12528000D01*
X18387436Y12531847D01*
X18485132Y12542460D01*
X18485136Y12542461D01*
X18490458Y12543039D01*
X18666309Y12602219D01*
X18825351Y12697781D01*
X18960161Y12825265D01*
X19009291Y12897557D01*
X19061439Y12974290D01*
X19061440Y12974292D01*
X19064452Y12978724D01*
X19098150Y13062975D01*
X19131366Y13146019D01*
X19131367Y13146023D01*
X19133357Y13150998D01*
X19163661Y13334049D01*
X19153950Y13519338D01*
X19129608Y13607713D01*
X19106104Y13693042D01*
X19104678Y13698219D01*
X19018143Y13862347D01*
X18985013Y13901552D01*
X18901843Y13999970D01*
X18901841Y13999971D01*
X18898383Y14004064D01*
X18750985Y14116758D01*
X18582826Y14195172D01*
X18401752Y14235647D01*
X18397324Y14235895D01*
X18396824Y14235923D01*
X18396807Y14235923D01*
X18395438Y14236000D01*
X17459975Y14236000D01*
X17424564Y14232153D01*
X17326868Y14221540D01*
X17326864Y14221539D01*
X17321542Y14220961D01*
X17145691Y14161781D01*
X16986649Y14066219D01*
X16982757Y14062539D01*
X16982755Y14062537D01*
X16945581Y14027383D01*
X16851839Y13938735D01*
X16848825Y13934300D01*
X16766022Y13812459D01*
X16747548Y13785276D01*
X16746825Y13785767D01*
X16706182Y13746519D01*
X16662784Y13736500D01*
X16354835Y13736500D01*
X16333998Y13738718D01*
X16333811Y13738758D01*
X16322934Y13741100D01*
X16321109Y13740884D01*
X16267029Y13761319D01*
X16233437Y13812459D01*
X16236319Y13873576D01*
X16258924Y13908586D01*
X16272138Y13921800D01*
X16288442Y13934966D01*
X16291073Y13936665D01*
X16297947Y13941103D01*
X16318560Y13967250D01*
X16322389Y13971560D01*
X16322382Y13971566D01*
X16325029Y13974690D01*
X16327910Y13977571D01*
X16330279Y13980886D01*
X16330284Y13980892D01*
X16338327Y13992147D01*
X16341128Y13995877D01*
X16365965Y14027383D01*
X16371032Y14033810D01*
X16373593Y14041102D01*
X16374346Y14042553D01*
X16378840Y14048841D01*
X16392687Y14095142D01*
X16394127Y14099573D01*
X16408082Y14139309D01*
X16408083Y14139314D01*
X16410147Y14145191D01*
X16410500Y14149267D01*
X16410500Y14151410D01*
X16410592Y14153540D01*
X16410767Y14153532D01*
X16410931Y14156145D01*
X16412665Y14161942D01*
X16410576Y14215106D01*
X16410500Y14218993D01*
X16410500Y14669156D01*
X16439497Y14739160D01*
X16632671Y14932333D01*
X16687187Y14960110D01*
X16747619Y14950539D01*
X16788072Y14910644D01*
X16788360Y14910839D01*
X16789325Y14909408D01*
X16790248Y14908498D01*
X16793857Y14901653D01*
X16797316Y14897559D01*
X16797318Y14897557D01*
X16910157Y14764030D01*
X16913617Y14759936D01*
X17061015Y14647242D01*
X17229174Y14568828D01*
X17410248Y14528353D01*
X17414676Y14528105D01*
X17415176Y14528077D01*
X17415193Y14528077D01*
X17416562Y14528000D01*
X18352025Y14528000D01*
X18387436Y14531847D01*
X18485132Y14542460D01*
X18485136Y14542461D01*
X18490458Y14543039D01*
X18666309Y14602219D01*
X18793898Y14678882D01*
X18820758Y14695021D01*
X18820760Y14695022D01*
X18825351Y14697781D01*
X18960161Y14825265D01*
X19009291Y14897557D01*
X19061439Y14974290D01*
X19061440Y14974292D01*
X19064452Y14978724D01*
X19098994Y15065084D01*
X19131366Y15146019D01*
X19131367Y15146023D01*
X19133357Y15150998D01*
X19163661Y15334049D01*
X19153950Y15519338D01*
X19129608Y15607713D01*
X19106104Y15693042D01*
X19104678Y15698219D01*
X19018143Y15862347D01*
X18999717Y15884152D01*
X18901843Y15999970D01*
X18901841Y15999971D01*
X18898383Y16004064D01*
X18750985Y16116758D01*
X18582826Y16195172D01*
X18401752Y16235647D01*
X18397324Y16235895D01*
X18396824Y16235923D01*
X18396807Y16235923D01*
X18395438Y16236000D01*
X17459975Y16236000D01*
X17424564Y16232153D01*
X17326868Y16221540D01*
X17326864Y16221539D01*
X17321542Y16220961D01*
X17145691Y16161781D01*
X16986649Y16066219D01*
X16851839Y15938735D01*
X16848825Y15934300D01*
X16799926Y15862347D01*
X16747548Y15785276D01*
X16746825Y15785767D01*
X16706182Y15746519D01*
X16662784Y15736500D01*
X16629835Y15736500D01*
X16608998Y15738718D01*
X16605935Y15739378D01*
X16605932Y15739378D01*
X16597934Y15741100D01*
X16566055Y15737327D01*
X16564864Y15737186D01*
X16559112Y15736847D01*
X16559113Y15736836D01*
X16555045Y15736500D01*
X16550960Y15736500D01*
X16546934Y15735830D01*
X16546922Y15735829D01*
X16533306Y15733563D01*
X16528695Y15732906D01*
X16506769Y15730310D01*
X16480702Y15727225D01*
X16473736Y15723880D01*
X16472179Y15723388D01*
X16464552Y15722118D01*
X16457354Y15718234D01*
X16457353Y15718234D01*
X16422012Y15699165D01*
X16417856Y15697048D01*
X16379903Y15678823D01*
X16379901Y15678822D01*
X16374285Y15676125D01*
X16371153Y15673492D01*
X16369643Y15671982D01*
X16368064Y15670534D01*
X16367946Y15670662D01*
X16365987Y15668935D01*
X16360660Y15666061D01*
X16355106Y15660053D01*
X16355105Y15660052D01*
X16324528Y15626974D01*
X16321834Y15624173D01*
X15839870Y15142207D01*
X15823567Y15129040D01*
X15820924Y15127334D01*
X15820922Y15127332D01*
X15814053Y15122897D01*
X15808988Y15116472D01*
X15793438Y15096747D01*
X15789613Y15092442D01*
X15789621Y15092435D01*
X15786976Y15089313D01*
X15784090Y15086427D01*
X15781715Y15083103D01*
X15773688Y15071871D01*
X15770907Y15068166D01*
X15740969Y15030190D01*
X15738407Y15022894D01*
X15737657Y15021450D01*
X15733160Y15015158D01*
X15719298Y14968807D01*
X15717868Y14964407D01*
X15704426Y14926132D01*
X15701854Y14918809D01*
X15701501Y14914733D01*
X15701501Y14912590D01*
X15701409Y14910460D01*
X15701234Y14910468D01*
X15701070Y14907857D01*
X15699335Y14902057D01*
X15699656Y14893884D01*
X15699656Y14893883D01*
X15701425Y14848869D01*
X15701501Y14844982D01*
X15701500Y14394846D01*
X15672504Y14324843D01*
X15332842Y13985180D01*
X15269830Y13956430D01*
X15255763Y13955434D01*
X15248864Y13952765D01*
X15222119Y13942418D01*
X15128337Y13906136D01*
X15122523Y13901552D01*
X15122522Y13901552D01*
X15026852Y13826132D01*
X15026851Y13826130D01*
X15021039Y13821549D01*
X15016832Y13815462D01*
X15016831Y13815461D01*
X14959961Y13733177D01*
X14943356Y13709152D01*
X14902157Y13578882D01*
X14901084Y13442256D01*
X14940232Y13311354D01*
X15016140Y13197751D01*
X15122095Y13111489D01*
X15248732Y13060196D01*
X15256107Y13059557D01*
X15263301Y13057830D01*
X15262744Y13055511D01*
X15308780Y13036019D01*
X15340340Y12983602D01*
X15335063Y12922645D01*
X15313902Y12891240D01*
X15307841Y12885179D01*
X15244829Y12856430D01*
X15230763Y12855434D01*
X15103337Y12806136D01*
X15097523Y12801552D01*
X15097522Y12801552D01*
X15001852Y12726132D01*
X15001851Y12726130D01*
X14996039Y12721549D01*
X14991832Y12715462D01*
X14991831Y12715461D01*
X14944682Y12647242D01*
X14918356Y12609152D01*
X14900393Y12552354D01*
X14893083Y12529238D01*
X14877157Y12478882D01*
X14876084Y12342256D01*
X7110500Y12342256D01*
X7110500Y15357882D01*
X7128204Y15413869D01*
X7131940Y15417785D01*
X7163127Y15480200D01*
X7189701Y15533384D01*
X7189702Y15533386D01*
X7193010Y15540007D01*
X7215443Y15674782D01*
X7215500Y15682000D01*
X7212920Y15699165D01*
X7196287Y15809795D01*
X7195187Y15817112D01*
X7175745Y15857601D01*
X7139248Y15933605D01*
X7139247Y15933606D01*
X7136044Y15940277D01*
X7043299Y16040608D01*
X6925153Y16109232D01*
X6792052Y16140084D01*
X6713575Y16134527D01*
X6663147Y16130957D01*
X6663146Y16130957D01*
X6655763Y16130434D01*
X6528337Y16081136D01*
X6522523Y16076552D01*
X6522522Y16076552D01*
X6426852Y16001132D01*
X6426851Y16001130D01*
X6421039Y15996549D01*
X6343356Y15884152D01*
X6341124Y15877094D01*
X6312086Y15785276D01*
X6302157Y15753882D01*
X6301084Y15617256D01*
X6303204Y15610167D01*
X6330368Y15519338D01*
X6340232Y15486354D01*
X6344344Y15480200D01*
X6384816Y15419630D01*
X6401501Y15364628D01*
X6401501Y15118315D01*
X6382594Y15060124D01*
X6333094Y15024160D01*
X6264870Y15031420D01*
X6263433Y15027791D01*
X6256551Y15030516D01*
X6250153Y15034232D01*
X6117052Y15065084D01*
X6047001Y15060124D01*
X5988147Y15055957D01*
X5988146Y15055957D01*
X5980763Y15055434D01*
X5973859Y15052763D01*
X5882352Y15017361D01*
X5853337Y15006136D01*
X5847523Y15001552D01*
X5847522Y15001552D01*
X5751852Y14926132D01*
X5751851Y14926130D01*
X5746039Y14921549D01*
X5741832Y14915462D01*
X5741831Y14915461D01*
X5695806Y14848869D01*
X5668356Y14809152D01*
X5627157Y14678882D01*
X5627099Y14671483D01*
X5626284Y14567659D01*
X5626084Y14542256D01*
X5665232Y14411354D01*
X5669344Y14405200D01*
X5684816Y14382045D01*
X5701501Y14327043D01*
X5701501Y14041107D01*
X5682594Y13982916D01*
X5633094Y13946952D01*
X5580147Y13944664D01*
X5531432Y13955956D01*
X5499263Y13963413D01*
X5499260Y13963413D01*
X5492052Y13965084D01*
X5413575Y13959527D01*
X5363147Y13955957D01*
X5363146Y13955957D01*
X5355763Y13955434D01*
X5228337Y13906136D01*
X5222523Y13901552D01*
X5222522Y13901552D01*
X5126852Y13826132D01*
X5126851Y13826130D01*
X5121039Y13821549D01*
X5116832Y13815462D01*
X5116831Y13815461D01*
X5059961Y13733177D01*
X5043356Y13709152D01*
X5002157Y13578882D01*
X5001084Y13442256D01*
X5040232Y13311354D01*
X5044344Y13305200D01*
X5084816Y13244630D01*
X5101501Y13189628D01*
X5101500Y9544846D01*
X5072504Y9474842D01*
X3363159Y7765496D01*
X3293155Y7736500D01*
X3144215Y7736500D01*
X3086024Y7755407D01*
X3056642Y7789327D01*
X3020643Y7857605D01*
X3018143Y7862347D01*
X2953591Y7938735D01*
X2901843Y7999970D01*
X2901841Y7999971D01*
X2898383Y8004064D01*
X2750985Y8116758D01*
X2582826Y8195172D01*
X2401752Y8235647D01*
X2397324Y8235895D01*
X2396824Y8235923D01*
X2396807Y8235923D01*
X2395438Y8236000D01*
X1459975Y8236000D01*
X1424564Y8232153D01*
X1326868Y8221540D01*
X1326864Y8221539D01*
X1321542Y8220961D01*
X1145691Y8161781D01*
X986649Y8066219D01*
X982757Y8062539D01*
X982755Y8062537D01*
X920922Y8004064D01*
X851839Y7938735D01*
X848825Y7934300D01*
X799926Y7862347D01*
X747548Y7785276D01*
X721935Y7721240D01*
X682062Y7621549D01*
X678643Y7613002D01*
X677768Y7607717D01*
X677767Y7607713D01*
X660282Y7502094D01*
X648339Y7429951D01*
X260000Y7429951D01*
X260000Y9247447D01*
X658186Y9247447D01*
X659474Y9239492D01*
X705896Y9070958D01*
X709827Y9061031D01*
X791355Y8906399D01*
X797318Y8897557D01*
X910157Y8764030D01*
X917876Y8756680D01*
X1056754Y8650500D01*
X1065877Y8644975D01*
X1224315Y8571094D01*
X1234404Y8567659D01*
X1406289Y8529238D01*
X1414297Y8528127D01*
X1415176Y8528077D01*
X1417956Y8528000D01*
X1763320Y8528000D01*
X1767598Y8529390D01*
X1779000Y8551768D01*
X1779000Y9231232D01*
X2033000Y9231232D01*
X2033000Y8543680D01*
X2034390Y8539402D01*
X2056768Y8528000D01*
X2349350Y8528000D01*
X2354684Y8528289D01*
X2485132Y8542460D01*
X2495536Y8544748D01*
X2661230Y8600510D01*
X2670900Y8604978D01*
X2820758Y8695021D01*
X2829245Y8701463D01*
X2956266Y8821582D01*
X2963175Y8829700D01*
X3061439Y8974290D01*
X3066442Y8983700D01*
X3131366Y9146019D01*
X3134233Y9156287D01*
X3148013Y9239530D01*
X3146018Y9252718D01*
X3145377Y9253368D01*
X3138683Y9255000D01*
X2048680Y9255000D01*
X2044402Y9253610D01*
X2033000Y9231232D01*
X1779000Y9231232D01*
X1779000Y9239320D01*
X1777610Y9243598D01*
X1755232Y9255000D01*
X673188Y9255000D01*
X660503Y9250878D01*
X658224Y9247743D01*
X658186Y9247447D01*
X260000Y9247447D01*
X260000Y9524470D01*
X663987Y9524470D01*
X665982Y9511282D01*
X666623Y9510632D01*
X673317Y9509000D01*
X1763320Y9509000D01*
X1767598Y9510390D01*
X1779000Y9532768D01*
X1779000Y10212232D01*
X2033000Y10212232D01*
X2033000Y9524680D01*
X2034390Y9520402D01*
X2056768Y9509000D01*
X3138812Y9509000D01*
X3151497Y9513122D01*
X3153776Y9516257D01*
X3153814Y9516553D01*
X3152526Y9524508D01*
X3106104Y9693042D01*
X3102173Y9702969D01*
X3020645Y9857601D01*
X3014682Y9866443D01*
X2901843Y9999970D01*
X2894124Y10007320D01*
X2755246Y10113500D01*
X2746123Y10119025D01*
X2587685Y10192906D01*
X2577596Y10196341D01*
X2405711Y10234762D01*
X2397703Y10235873D01*
X2396824Y10235923D01*
X2394044Y10236000D01*
X2048680Y10236000D01*
X2044402Y10234610D01*
X2033000Y10212232D01*
X1779000Y10212232D01*
X1779000Y10220320D01*
X1777610Y10224598D01*
X1755232Y10236000D01*
X1462650Y10236000D01*
X1457316Y10235711D01*
X1326868Y10221540D01*
X1316464Y10219252D01*
X1150770Y10163490D01*
X1141100Y10159022D01*
X991242Y10068979D01*
X982755Y10062537D01*
X855734Y9942418D01*
X848825Y9934300D01*
X750561Y9789710D01*
X745558Y9780300D01*
X680634Y9617981D01*
X677767Y9607713D01*
X663987Y9524470D01*
X260000Y9524470D01*
X260000Y11429951D01*
X648339Y11429951D01*
X648620Y11424594D01*
X657628Y11252718D01*
X658050Y11244662D01*
X659474Y11239492D01*
X683849Y11150998D01*
X707322Y11065781D01*
X793857Y10901653D01*
X797316Y10897559D01*
X797318Y10897557D01*
X874525Y10806195D01*
X913617Y10759936D01*
X1061015Y10647242D01*
X1229174Y10568828D01*
X1410248Y10528353D01*
X1414676Y10528105D01*
X1415176Y10528077D01*
X1415193Y10528077D01*
X1416562Y10528000D01*
X2352025Y10528000D01*
X2387436Y10531847D01*
X2485132Y10542460D01*
X2485136Y10542461D01*
X2490458Y10543039D01*
X2666309Y10602219D01*
X2825351Y10697781D01*
X2960161Y10825265D01*
X3009291Y10897557D01*
X3061439Y10974290D01*
X3061440Y10974292D01*
X3064452Y10978724D01*
X3097373Y11061031D01*
X3131366Y11146019D01*
X3131367Y11146023D01*
X3133357Y11150998D01*
X3148014Y11239530D01*
X3162785Y11328759D01*
X3163661Y11334049D01*
X3154419Y11510390D01*
X3154231Y11513983D01*
X3154230Y11513986D01*
X3153950Y11519338D01*
X3129608Y11607713D01*
X3106104Y11693042D01*
X3104678Y11698219D01*
X3018143Y11862347D01*
X2953591Y11938735D01*
X2901843Y11999970D01*
X2901841Y11999971D01*
X2898383Y12004064D01*
X2750985Y12116758D01*
X2582826Y12195172D01*
X2401752Y12235647D01*
X2397324Y12235895D01*
X2396824Y12235923D01*
X2396807Y12235923D01*
X2395438Y12236000D01*
X1459975Y12236000D01*
X1424564Y12232153D01*
X1326868Y12221540D01*
X1326864Y12221539D01*
X1321542Y12220961D01*
X1145691Y12161781D01*
X986649Y12066219D01*
X982757Y12062539D01*
X982755Y12062537D01*
X963073Y12043924D01*
X851839Y11938735D01*
X848825Y11934300D01*
X799926Y11862347D01*
X747548Y11785276D01*
X745558Y11780300D01*
X712728Y11698219D01*
X678643Y11613002D01*
X677768Y11607717D01*
X677767Y11607713D01*
X659866Y11499578D01*
X648339Y11429951D01*
X260000Y11429951D01*
X260000Y13429951D01*
X648339Y13429951D01*
X658050Y13244662D01*
X659474Y13239492D01*
X683849Y13150998D01*
X707322Y13065781D01*
X793857Y12901653D01*
X797316Y12897559D01*
X797318Y12897557D01*
X910157Y12764030D01*
X913617Y12759936D01*
X1061015Y12647242D01*
X1229174Y12568828D01*
X1410248Y12528353D01*
X1414676Y12528105D01*
X1415176Y12528077D01*
X1415193Y12528077D01*
X1416562Y12528000D01*
X2352025Y12528000D01*
X2387436Y12531847D01*
X2485132Y12542460D01*
X2485136Y12542461D01*
X2490458Y12543039D01*
X2666309Y12602219D01*
X2825351Y12697781D01*
X2960161Y12825265D01*
X3009291Y12897557D01*
X3061439Y12974290D01*
X3061440Y12974292D01*
X3064452Y12978724D01*
X3098150Y13062975D01*
X3131366Y13146019D01*
X3131367Y13146023D01*
X3133357Y13150998D01*
X3163661Y13334049D01*
X3153950Y13519338D01*
X3129608Y13607713D01*
X3106104Y13693042D01*
X3104678Y13698219D01*
X3018143Y13862347D01*
X2985013Y13901552D01*
X2901843Y13999970D01*
X2901841Y13999971D01*
X2898383Y14004064D01*
X2750985Y14116758D01*
X2582826Y14195172D01*
X2401752Y14235647D01*
X2397324Y14235895D01*
X2396824Y14235923D01*
X2396807Y14235923D01*
X2395438Y14236000D01*
X1459975Y14236000D01*
X1424564Y14232153D01*
X1326868Y14221540D01*
X1326864Y14221539D01*
X1321542Y14220961D01*
X1145691Y14161781D01*
X986649Y14066219D01*
X982757Y14062539D01*
X982755Y14062537D01*
X945581Y14027383D01*
X851839Y13938735D01*
X848825Y13934300D01*
X766022Y13812459D01*
X747548Y13785276D01*
X745558Y13780300D01*
X683666Y13625560D01*
X678643Y13613002D01*
X677768Y13607717D01*
X677767Y13607713D01*
X663993Y13524508D01*
X648339Y13429951D01*
X260000Y13429951D01*
X260000Y15429951D01*
X648339Y15429951D01*
X658050Y15244662D01*
X659474Y15239492D01*
X683849Y15150998D01*
X707322Y15065781D01*
X793857Y14901653D01*
X797316Y14897559D01*
X797318Y14897557D01*
X910157Y14764030D01*
X913617Y14759936D01*
X1061015Y14647242D01*
X1229174Y14568828D01*
X1410248Y14528353D01*
X1414676Y14528105D01*
X1415176Y14528077D01*
X1415193Y14528077D01*
X1416562Y14528000D01*
X2352025Y14528000D01*
X2387436Y14531847D01*
X2485132Y14542460D01*
X2485136Y14542461D01*
X2490458Y14543039D01*
X2666309Y14602219D01*
X2793898Y14678882D01*
X2820758Y14695021D01*
X2820760Y14695022D01*
X2825351Y14697781D01*
X2960161Y14825265D01*
X3009291Y14897557D01*
X3061439Y14974290D01*
X3061440Y14974292D01*
X3064452Y14978724D01*
X3098994Y15065084D01*
X3131366Y15146019D01*
X3131367Y15146023D01*
X3133357Y15150998D01*
X3163661Y15334049D01*
X3153950Y15519338D01*
X3129608Y15607713D01*
X3106104Y15693042D01*
X3104678Y15698219D01*
X3018143Y15862347D01*
X2999717Y15884152D01*
X2901843Y15999970D01*
X2901841Y15999971D01*
X2898383Y16004064D01*
X2750985Y16116758D01*
X2582826Y16195172D01*
X2401752Y16235647D01*
X2397324Y16235895D01*
X2396824Y16235923D01*
X2396807Y16235923D01*
X2395438Y16236000D01*
X1459975Y16236000D01*
X1424564Y16232153D01*
X1326868Y16221540D01*
X1326864Y16221539D01*
X1321542Y16220961D01*
X1145691Y16161781D01*
X986649Y16066219D01*
X851839Y15938735D01*
X848825Y15934300D01*
X799926Y15862347D01*
X747548Y15785276D01*
X745558Y15780300D01*
X697462Y15660052D01*
X678643Y15613002D01*
X648339Y15429951D01*
X260000Y15429951D01*
X260000Y16429000D01*
X278907Y16487191D01*
X359000Y16528000D01*
X19453001Y16528000D01*
X19511192Y16509093D01*
G37*
%TD.AperFunction*%
%TD*%
M02*
