M48
; DRILL file {KiCad (5.99.0-6613-ge739d5ba65)} date 11/02/20 19:14:22
; FORMAT={-:-/ absolute / inch / decimal}
; #@! TF.CreationDate,2020-11-02T19:14:22+01:00
; #@! TF.GenerationSoftware,Kicad,Pcbnew,(5.99.0-6613-ge739d5ba65)
FMAT,2
INCH
T1C0.0118
T2C0.0157
%
G90
G05
T1
X0.0301Y0.6371
X0.0351Y0.0948
X0.0583Y0.3359
X0.1449Y0.205
X0.1557Y0.0682
X0.1577Y0.0209
X0.2148Y0.5318
X0.2394Y0.5751
X0.266Y0.6174
X0.3083Y0.1656
X0.3142Y0.6105
X0.3447Y0.3487
X0.4107Y0.1361
X0.4117Y0.6115
X0.4215Y0.2877
X0.4855Y0.0967
X0.5524Y0.2444
X0.6036Y0.4885
X0.6046Y0.5318
X0.6302Y0.0534
X0.6302Y0.018
X0.637Y0.2601
X0.638Y0.3812
X0.642Y0.0879
X0.6636Y0.0101
X0.6705Y0.0948
X0.6971Y0.0101
X0.7158Y0.0987
X0.7335Y0.4865
X0.7401Y0.0152
X0.7522Y0.0977
X0.7581Y0.4117
X0.7601Y0.0387
T2
X0.075Y0.4481
X0.6906Y0.0513
T0
M30
