%TF.GenerationSoftware,KiCad,Pcbnew,(5.99.0-6613-ge739d5ba65)*%
%TF.CreationDate,2020-11-19T23:40:31+01:00*%
%TF.ProjectId,min_sx1280,6d696e5f-7378-4313-9238-302e6b696361,rev?*%
%TF.SameCoordinates,PX5f31df8PY89d6220*%
%TF.FileFunction,Legend,Top*%
%TF.FilePolarity,Positive*%
%FSLAX46Y46*%
G04 Gerber Fmt 4.6, Leading zero omitted, Abs format (unit mm)*
G04 Created by KiCad (PCBNEW (5.99.0-6613-ge739d5ba65)) date 2020-11-19 23:40:31*
%MOMM*%
%LPD*%
G01*
G04 APERTURE LIST*
%ADD10C,0.300000*%
%ADD11C,0.125000*%
%ADD12C,0.150000*%
G04 APERTURE END LIST*
D10*
X11899571Y1473429D02*
X12971000Y1473429D01*
X13185285Y1402000D01*
X13328142Y1259143D01*
X13399571Y1044858D01*
X13399571Y902000D01*
X13399571Y2902000D02*
X13399571Y2187715D01*
X11899571Y2187715D01*
X13256714Y4259143D02*
X13328142Y4187715D01*
X13399571Y3973429D01*
X13399571Y3830572D01*
X13328142Y3616286D01*
X13185285Y3473429D01*
X13042428Y3402000D01*
X12756714Y3330572D01*
X12542428Y3330572D01*
X12256714Y3402000D01*
X12113857Y3473429D01*
X11971000Y3616286D01*
X11899571Y3830572D01*
X11899571Y3973429D01*
X11971000Y4187715D01*
X12042428Y4259143D01*
X11899571Y5330572D02*
X12971000Y5330572D01*
X13185285Y5259143D01*
X13328142Y5116286D01*
X13399571Y4902000D01*
X13399571Y4759143D01*
X13399571Y6759143D02*
X13399571Y6044858D01*
X11899571Y6044858D01*
X13256714Y8116286D02*
X13328142Y8044858D01*
X13399571Y7830572D01*
X13399571Y7687715D01*
X13328142Y7473429D01*
X13185285Y7330572D01*
X13042428Y7259143D01*
X12756714Y7187715D01*
X12542428Y7187715D01*
X12256714Y7259143D01*
X12113857Y7330572D01*
X11971000Y7473429D01*
X11899571Y7687715D01*
X11899571Y7830572D01*
X11971000Y8044858D01*
X12042428Y8116286D01*
X11899571Y9187715D02*
X12971000Y9187715D01*
X13185285Y9116286D01*
X13328142Y8973429D01*
X13399571Y8759143D01*
X13399571Y8616286D01*
X13399571Y10616286D02*
X13399571Y9902000D01*
X11899571Y9902000D01*
X13256714Y11973429D02*
X13328142Y11902000D01*
X13399571Y11687715D01*
X13399571Y11544858D01*
X13328142Y11330572D01*
X13185285Y11187715D01*
X13042428Y11116286D01*
X12756714Y11044858D01*
X12542428Y11044858D01*
X12256714Y11116286D01*
X12113857Y11187715D01*
X11971000Y11330572D01*
X11899571Y11544858D01*
X11899571Y11687715D01*
X11971000Y11902000D01*
X12042428Y11973429D01*
X11899571Y13044858D02*
X12971000Y13044858D01*
X13185285Y12973429D01*
X13328142Y12830572D01*
X13399571Y12616286D01*
X13399571Y12473429D01*
X13399571Y14473429D02*
X13399571Y13759143D01*
X11899571Y13759143D01*
X13256714Y15830572D02*
X13328142Y15759143D01*
X13399571Y15544858D01*
X13399571Y15402000D01*
X13328142Y15187715D01*
X13185285Y15044858D01*
X13042428Y14973429D01*
X12756714Y14902000D01*
X12542428Y14902000D01*
X12256714Y14973429D01*
X12113857Y15044858D01*
X11971000Y15187715D01*
X11899571Y15402000D01*
X11899571Y15544858D01*
X11971000Y15759143D01*
X12042428Y15830572D01*
D11*
%TO.C,U3*%
X6282190Y14726048D02*
X6686952Y14726048D01*
X6734571Y14749858D01*
X6758380Y14773667D01*
X6782190Y14821286D01*
X6782190Y14916524D01*
X6758380Y14964143D01*
X6734571Y14987953D01*
X6686952Y15011762D01*
X6282190Y15011762D01*
X6282190Y15202239D02*
X6282190Y15511762D01*
X6472666Y15345096D01*
X6472666Y15416524D01*
X6496476Y15464143D01*
X6520285Y15487953D01*
X6567904Y15511762D01*
X6686952Y15511762D01*
X6734571Y15487953D01*
X6758380Y15464143D01*
X6782190Y15416524D01*
X6782190Y15273667D01*
X6758380Y15226048D01*
X6734571Y15202239D01*
D12*
X19558000Y254000D02*
X254000Y254000D01*
X254000Y254000D02*
X254000Y16510000D01*
X254000Y16510000D02*
X19558000Y16510000D01*
X19558000Y16510000D02*
X19558000Y254000D01*
%TD*%
M02*
