%TF.GenerationSoftware,KiCad,Pcbnew,(5.99.0-6613-ge739d5ba65)*%
%TF.CreationDate,2020-11-23T01:14:31+01:00*%
%TF.ProjectId,min_sx1280,6d696e5f-7378-4313-9238-302e6b696361,rev?*%
%TF.SameCoordinates,PX5f31df8PY89d6220*%
%TF.FileFunction,Legend,Bot*%
%TF.FilePolarity,Positive*%
%FSLAX46Y46*%
G04 Gerber Fmt 4.6, Leading zero omitted, Abs format (unit mm)*
G04 Created by KiCad (PCBNEW (5.99.0-6613-ge739d5ba65)) date 2020-11-23 01:14:31*
%MOMM*%
%LPD*%
G01*
G04 APERTURE LIST*
%ADD10C,0.125000*%
%ADD11C,0.120000*%
%ADD12C,0.150000*%
G04 APERTURE END LIST*
D10*
X10811952Y2605810D02*
X10526238Y2605810D01*
X10669095Y2105810D02*
X10669095Y2605810D01*
X10407190Y2605810D02*
X10073857Y2105810D01*
X10073857Y2605810D02*
X10407190Y2105810D01*
X7926238Y2530810D02*
X8164333Y2530810D01*
X8188142Y2292715D01*
X8164333Y2316524D01*
X8116714Y2340334D01*
X7997666Y2340334D01*
X7950047Y2316524D01*
X7926238Y2292715D01*
X7902428Y2245096D01*
X7902428Y2126048D01*
X7926238Y2078429D01*
X7950047Y2054620D01*
X7997666Y2030810D01*
X8116714Y2030810D01*
X8164333Y2054620D01*
X8188142Y2078429D01*
X7759571Y2530810D02*
X7592904Y2030810D01*
X7426238Y2530810D01*
X13214333Y2130810D02*
X13381000Y2368905D01*
X13500047Y2130810D02*
X13500047Y2630810D01*
X13309571Y2630810D01*
X13261952Y2607000D01*
X13238142Y2583191D01*
X13214333Y2535572D01*
X13214333Y2464143D01*
X13238142Y2416524D01*
X13261952Y2392715D01*
X13309571Y2368905D01*
X13500047Y2368905D01*
X13047666Y2630810D02*
X12714333Y2130810D01*
X12714333Y2630810D02*
X13047666Y2130810D01*
%TO.C,C5*%
X14405571Y2883334D02*
X14429380Y2907143D01*
X14453190Y2978572D01*
X14453190Y3026191D01*
X14429380Y3097620D01*
X14381761Y3145239D01*
X14334142Y3169048D01*
X14238904Y3192858D01*
X14167476Y3192858D01*
X14072238Y3169048D01*
X14024619Y3145239D01*
X13977000Y3097620D01*
X13953190Y3026191D01*
X13953190Y2978572D01*
X13977000Y2907143D01*
X14000809Y2883334D01*
X13953190Y2430953D02*
X13953190Y2669048D01*
X14191285Y2692858D01*
X14167476Y2669048D01*
X14143666Y2621429D01*
X14143666Y2502381D01*
X14167476Y2454762D01*
X14191285Y2430953D01*
X14238904Y2407143D01*
X14357952Y2407143D01*
X14405571Y2430953D01*
X14429380Y2454762D01*
X14453190Y2502381D01*
X14453190Y2621429D01*
X14429380Y2669048D01*
X14405571Y2692858D01*
%TO.C,R4*%
X17014333Y5230810D02*
X17181000Y5468905D01*
X17300047Y5230810D02*
X17300047Y5730810D01*
X17109571Y5730810D01*
X17061952Y5707000D01*
X17038142Y5683191D01*
X17014333Y5635572D01*
X17014333Y5564143D01*
X17038142Y5516524D01*
X17061952Y5492715D01*
X17109571Y5468905D01*
X17300047Y5468905D01*
X16585761Y5564143D02*
X16585761Y5230810D01*
X16704809Y5754620D02*
X16823857Y5397477D01*
X16514333Y5397477D01*
%TO.C,D1*%
X17250047Y9230810D02*
X17250047Y9730810D01*
X17131000Y9730810D01*
X17059571Y9707000D01*
X17011952Y9659381D01*
X16988142Y9611762D01*
X16964333Y9516524D01*
X16964333Y9445096D01*
X16988142Y9349858D01*
X17011952Y9302239D01*
X17059571Y9254620D01*
X17131000Y9230810D01*
X17250047Y9230810D01*
X16488142Y9230810D02*
X16773857Y9230810D01*
X16631000Y9230810D02*
X16631000Y9730810D01*
X16678619Y9659381D01*
X16726238Y9611762D01*
X16773857Y9587953D01*
%TO.C,C6*%
X609571Y15965334D02*
X633380Y15989143D01*
X657190Y16060572D01*
X657190Y16108191D01*
X633380Y16179620D01*
X585761Y16227239D01*
X538142Y16251048D01*
X442904Y16274858D01*
X371476Y16274858D01*
X276238Y16251048D01*
X228619Y16227239D01*
X181000Y16179620D01*
X157190Y16108191D01*
X157190Y16060572D01*
X181000Y15989143D01*
X204809Y15965334D01*
X157190Y15536762D02*
X157190Y15632000D01*
X181000Y15679620D01*
X204809Y15703429D01*
X276238Y15751048D01*
X371476Y15774858D01*
X561952Y15774858D01*
X609571Y15751048D01*
X633380Y15727239D01*
X657190Y15679620D01*
X657190Y15584381D01*
X633380Y15536762D01*
X609571Y15512953D01*
X561952Y15489143D01*
X442904Y15489143D01*
X395285Y15512953D01*
X371476Y15536762D01*
X347666Y15584381D01*
X347666Y15679620D01*
X371476Y15727239D01*
X395285Y15751048D01*
X442904Y15774858D01*
%TO.C,SW1*%
X18472666Y15779620D02*
X18401238Y15755810D01*
X18282190Y15755810D01*
X18234571Y15779620D01*
X18210761Y15803429D01*
X18186952Y15851048D01*
X18186952Y15898667D01*
X18210761Y15946286D01*
X18234571Y15970096D01*
X18282190Y15993905D01*
X18377428Y16017715D01*
X18425047Y16041524D01*
X18448857Y16065334D01*
X18472666Y16112953D01*
X18472666Y16160572D01*
X18448857Y16208191D01*
X18425047Y16232000D01*
X18377428Y16255810D01*
X18258380Y16255810D01*
X18186952Y16232000D01*
X18020285Y16255810D02*
X17901238Y15755810D01*
X17806000Y16112953D01*
X17710761Y15755810D01*
X17591714Y16255810D01*
X17139333Y15755810D02*
X17425047Y15755810D01*
X17282190Y15755810D02*
X17282190Y16255810D01*
X17329809Y16184381D01*
X17377428Y16136762D01*
X17425047Y16112953D01*
%TO.C,C1*%
X7889333Y3278429D02*
X7913142Y3254620D01*
X7984571Y3230810D01*
X8032190Y3230810D01*
X8103619Y3254620D01*
X8151238Y3302239D01*
X8175047Y3349858D01*
X8198857Y3445096D01*
X8198857Y3516524D01*
X8175047Y3611762D01*
X8151238Y3659381D01*
X8103619Y3707000D01*
X8032190Y3730810D01*
X7984571Y3730810D01*
X7913142Y3707000D01*
X7889333Y3683191D01*
X7413142Y3230810D02*
X7698857Y3230810D01*
X7556000Y3230810D02*
X7556000Y3730810D01*
X7603619Y3659381D01*
X7651238Y3611762D01*
X7698857Y3587953D01*
%TO.C,C2*%
X7889333Y4853429D02*
X7913142Y4829620D01*
X7984571Y4805810D01*
X8032190Y4805810D01*
X8103619Y4829620D01*
X8151238Y4877239D01*
X8175047Y4924858D01*
X8198857Y5020096D01*
X8198857Y5091524D01*
X8175047Y5186762D01*
X8151238Y5234381D01*
X8103619Y5282000D01*
X8032190Y5305810D01*
X7984571Y5305810D01*
X7913142Y5282000D01*
X7889333Y5258191D01*
X7698857Y5258191D02*
X7675047Y5282000D01*
X7627428Y5305810D01*
X7508380Y5305810D01*
X7460761Y5282000D01*
X7436952Y5258191D01*
X7413142Y5210572D01*
X7413142Y5162953D01*
X7436952Y5091524D01*
X7722666Y4805810D01*
X7413142Y4805810D01*
%TO.C,R3*%
X8932190Y3365334D02*
X8694095Y3532000D01*
X8932190Y3651048D02*
X8432190Y3651048D01*
X8432190Y3460572D01*
X8456000Y3412953D01*
X8479809Y3389143D01*
X8527428Y3365334D01*
X8598857Y3365334D01*
X8646476Y3389143D01*
X8670285Y3412953D01*
X8694095Y3460572D01*
X8694095Y3651048D01*
X8432190Y3198667D02*
X8432190Y2889143D01*
X8622666Y3055810D01*
X8622666Y2984381D01*
X8646476Y2936762D01*
X8670285Y2912953D01*
X8717904Y2889143D01*
X8836952Y2889143D01*
X8884571Y2912953D01*
X8908380Y2936762D01*
X8932190Y2984381D01*
X8932190Y3127239D01*
X8908380Y3174858D01*
X8884571Y3198667D01*
%TO.C,C3*%
X11934571Y2490334D02*
X11958380Y2514143D01*
X11982190Y2585572D01*
X11982190Y2633191D01*
X11958380Y2704620D01*
X11910761Y2752239D01*
X11863142Y2776048D01*
X11767904Y2799858D01*
X11696476Y2799858D01*
X11601238Y2776048D01*
X11553619Y2752239D01*
X11506000Y2704620D01*
X11482190Y2633191D01*
X11482190Y2585572D01*
X11506000Y2514143D01*
X11529809Y2490334D01*
X11482190Y2323667D02*
X11482190Y2014143D01*
X11672666Y2180810D01*
X11672666Y2109381D01*
X11696476Y2061762D01*
X11720285Y2037953D01*
X11767904Y2014143D01*
X11886952Y2014143D01*
X11934571Y2037953D01*
X11958380Y2061762D01*
X11982190Y2109381D01*
X11982190Y2252239D01*
X11958380Y2299858D01*
X11934571Y2323667D01*
%TO.C,U1*%
X1386952Y5055810D02*
X1386952Y4651048D01*
X1363142Y4603429D01*
X1339333Y4579620D01*
X1291714Y4555810D01*
X1196476Y4555810D01*
X1148857Y4579620D01*
X1125047Y4603429D01*
X1101238Y4651048D01*
X1101238Y5055810D01*
X601238Y4555810D02*
X886952Y4555810D01*
X744095Y4555810D02*
X744095Y5055810D01*
X791714Y4984381D01*
X839333Y4936762D01*
X886952Y4912953D01*
%TO.C,C4*%
X634571Y9140334D02*
X658380Y9164143D01*
X682190Y9235572D01*
X682190Y9283191D01*
X658380Y9354620D01*
X610761Y9402239D01*
X563142Y9426048D01*
X467904Y9449858D01*
X396476Y9449858D01*
X301238Y9426048D01*
X253619Y9402239D01*
X206000Y9354620D01*
X182190Y9283191D01*
X182190Y9235572D01*
X206000Y9164143D01*
X229809Y9140334D01*
X348857Y8711762D02*
X682190Y8711762D01*
X158380Y8830810D02*
X515523Y8949858D01*
X515523Y8640334D01*
%TO.C,U2*%
X6332190Y15537953D02*
X6736952Y15537953D01*
X6784571Y15514143D01*
X6808380Y15490334D01*
X6832190Y15442715D01*
X6832190Y15347477D01*
X6808380Y15299858D01*
X6784571Y15276048D01*
X6736952Y15252239D01*
X6332190Y15252239D01*
X6379809Y15037953D02*
X6356000Y15014143D01*
X6332190Y14966524D01*
X6332190Y14847477D01*
X6356000Y14799858D01*
X6379809Y14776048D01*
X6427428Y14752239D01*
X6475047Y14752239D01*
X6546476Y14776048D01*
X6832190Y15061762D01*
X6832190Y14752239D01*
%TO.C,AE2*%
X15903619Y5305810D02*
X16141714Y5305810D01*
X16141714Y5805810D01*
X15665523Y5305810D02*
X15713142Y5329620D01*
X15736952Y5353429D01*
X15760761Y5401048D01*
X15760761Y5543905D01*
X15736952Y5591524D01*
X15713142Y5615334D01*
X15665523Y5639143D01*
X15594095Y5639143D01*
X15546476Y5615334D01*
X15522666Y5591524D01*
X15498857Y5543905D01*
X15498857Y5401048D01*
X15522666Y5353429D01*
X15546476Y5329620D01*
X15594095Y5305810D01*
X15665523Y5305810D01*
X14998857Y5305810D02*
X15165523Y5543905D01*
X15284571Y5305810D02*
X15284571Y5805810D01*
X15094095Y5805810D01*
X15046476Y5782000D01*
X15022666Y5758191D01*
X14998857Y5710572D01*
X14998857Y5639143D01*
X15022666Y5591524D01*
X15046476Y5567715D01*
X15094095Y5543905D01*
X15284571Y5543905D01*
X14570285Y5305810D02*
X14570285Y5567715D01*
X14594095Y5615334D01*
X14641714Y5639143D01*
X14736952Y5639143D01*
X14784571Y5615334D01*
X14570285Y5329620D02*
X14617904Y5305810D01*
X14736952Y5305810D01*
X14784571Y5329620D01*
X14808380Y5377239D01*
X14808380Y5424858D01*
X14784571Y5472477D01*
X14736952Y5496286D01*
X14617904Y5496286D01*
X14570285Y5520096D01*
D11*
%TO.C,C5*%
X12521000Y3457000D02*
X12521000Y5767000D01*
X12521000Y5767000D02*
X14091000Y5767000D01*
X14091000Y5767000D02*
X14091000Y3457000D01*
%TO.C,R4*%
X17918742Y6084500D02*
X18393258Y6084500D01*
X17918742Y7129500D02*
X18393258Y7129500D01*
%TO.C,D1*%
X16671000Y8842000D02*
X18956000Y8842000D01*
X16671000Y7372000D02*
X16671000Y8842000D01*
X18956000Y7372000D02*
X16671000Y7372000D01*
%TO.C,C6*%
X2216000Y12622000D02*
X646000Y12622000D01*
X646000Y12622000D02*
X646000Y14932000D01*
X2216000Y14932000D02*
X2216000Y12622000D01*
%TO.C,SW1*%
X16306000Y14857000D02*
X16306000Y10857000D01*
X19306000Y14857000D02*
X19306000Y10857000D01*
%TO.C,C1*%
X4296000Y4242000D02*
X6606000Y4242000D01*
X4296000Y2672000D02*
X4296000Y4242000D01*
X6606000Y2672000D02*
X4296000Y2672000D01*
%TO.C,C2*%
X6606000Y4247000D02*
X4296000Y4247000D01*
X4296000Y5817000D02*
X6606000Y5817000D01*
X4296000Y4247000D02*
X4296000Y5817000D01*
%TO.C,R3*%
X9183500Y4519258D02*
X9183500Y4044742D01*
X10228500Y4519258D02*
X10228500Y4044742D01*
%TO.C,C3*%
X11991000Y4422580D02*
X11991000Y4141420D01*
X10971000Y4422580D02*
X10971000Y4141420D01*
%TO.C,U1*%
X3691000Y3307000D02*
X3691000Y857000D01*
X471000Y1507000D02*
X471000Y3307000D01*
%TO.C,C4*%
X921000Y10772580D02*
X921000Y10491420D01*
X1941000Y10772580D02*
X1941000Y10491420D01*
D12*
%TO.C,U2*%
X2427000Y5973000D02*
X15635000Y5973000D01*
X15635000Y5973000D02*
X15635000Y16641000D01*
X15635000Y16641000D02*
X2427000Y16641000D01*
X2427000Y16641000D02*
X2427000Y5973000D01*
%TO.C,AE2*%
X14806000Y5032000D02*
X19306000Y5032000D01*
X14806000Y1032000D02*
X14806000Y5032000D01*
X16056000Y1032000D02*
X14806000Y1032000D01*
X19306000Y1032000D02*
X18056000Y1032000D01*
X19306000Y5032000D02*
X19306000Y1032000D01*
X17763107Y2782000D02*
G75*
G03*
X17763107Y2782000I-707107J0D01*
G01*
X17181000Y2782000D02*
G75*
G03*
X17181000Y2782000I-125000J0D01*
G01*
%TD*%
M02*
