M48
; DRILL file {KiCad (5.99.0-6613-ge739d5ba65)} date 11/02/20 18:56:04
; FORMAT={-:-/ absolute / inch / decimal}
; #@! TF.CreationDate,2020-11-02T18:56:04+01:00
; #@! TF.GenerationSoftware,Kicad,Pcbnew,(5.99.0-6613-ge739d5ba65)
FMAT,2
INCH
T1C0.0118
T2C0.0138
T3C0.0157
T4C0.0173
T5C0.0300
T6C0.0394
T7C0.0787
T8C0.1260
%
G90
G05
T1
X0.0394Y1.9291
X0.0394Y1.7717
X0.0394Y1.6142
X0.0394Y0.5118
X0.0394Y0.3543
X0.0394Y0.1969
X0.0394Y0.0394
X0.1961Y0.3535
X0.1969Y1.9291
X0.1969Y1.765
X0.1969Y1.6142
X0.1969Y0.9843
X0.1969Y0.8268
X0.1969Y0.5118
X0.1969Y0.1969
X0.1969Y0.0394
X0.3543Y1.4567
X0.3543Y1.2992
X0.3543Y1.1417
X0.3543Y0.9843
X0.3543Y0.3543
X0.3543Y0.0394
X0.377Y1.5502
X0.3976Y1.5
X0.4193Y1.4498
X0.4567Y1.1732
X0.5118Y0.0394
X0.5226Y0.4134
X0.5463Y1.6959
X0.5472Y0.3632
X0.6063Y1.6457
X0.6102Y1.9291
X0.6102Y1.7717
X0.6102Y1.6142
X0.6102Y1.4567
X0.6102Y1.1417
X0.6102Y0.9843
X0.6102Y0.1969
X0.7677Y1.9291
X0.7677Y1.7717
X0.7677Y1.6142
X0.7677Y1.465
X0.7677Y1.2992
X0.7677Y1.1417
X0.7677Y0.1969
X0.8976Y0.5197
X0.9055Y0.1969
X0.9134Y0.6093
X0.9252Y1.9291
X0.9252Y1.7717
X0.9252Y1.2992
X0.9252Y1.1417
X0.9252Y0.9843
X0.9252Y0.8268
X0.9252Y0.6693
X1.0138Y1.6949
X1.0433Y1.7461
X1.0591Y0.5551
X1.0827Y1.1417
X1.0876Y1.3504
X1.1772Y1.3996
X1.1949Y1.3002
X1.2402Y0.6693
X1.2638Y1.6024
X1.3976Y1.9291
X1.3976Y1.7717
X1.3976Y1.6142
X1.3976Y1.4567
X1.3976Y1.2992
X1.3976Y1.1417
X1.3976Y0.9843
X1.3976Y0.8268
X1.3976Y0.6693
X1.5551Y1.9291
X1.5551Y1.7717
X1.5551Y1.6142
X1.5551Y0.1969
X1.5551Y0.0394
T3
X0.4252Y0.3356
X0.4256Y0.5201
X0.6024Y1.8976
X1.1024Y0.7657
X1.2264Y1.7323
T4
X0.3209Y0.2165
X0.3465Y0.2559
X0.372Y0.2165
X0.3976Y0.2559
X0.4232Y0.2165
T5
X1.2673Y0.4886
X1.2673Y0.3886
X1.2673Y0.2886
X1.2673Y0.1886
X1.2673Y0.0886
T6
X0.2677Y1.8898
X0.2677Y1.7898
X0.2677Y1.6898
X0.2677Y1.5898
X0.2657Y0.7799
X0.2657Y0.6799
X0.2657Y0.5799
X0.2657Y0.4799
T7
X1.4173Y0.4886
X1.4173Y0.3886
X1.4173Y0.2886
X1.4173Y0.1886
X1.4173Y0.0886
T8
X1.4961Y2.1063
X0.0984Y0.0984
X0.0984Y2.1063
T2
G00X0.2313Y0.2055
M15
G01X0.2313Y0.2449
M16
G05
G00X0.5128Y0.2055
M15
G01X0.5128Y0.2449
M16
G05
T0
M30
