%TF.GenerationSoftware,KiCad,Pcbnew,(5.99.0-6613-ge739d5ba65)*%
%TF.CreationDate,2020-11-02T18:56:01+01:00*%
%TF.ProjectId,e28_tx,6532385f-7478-42e6-9b69-6361645f7063,rev?*%
%TF.SameCoordinates,PX5f5e100PY8f0d180*%
%TF.FileFunction,Soldermask,Bot*%
%TF.FilePolarity,Negative*%
%FSLAX46Y46*%
G04 Gerber Fmt 4.6, Leading zero omitted, Abs format (unit mm)*
G04 Created by KiCad (PCBNEW (5.99.0-6613-ge739d5ba65)) date 2020-11-02 18:56:01*
%MOMM*%
%LPD*%
G01*
G04 APERTURE LIST*
G04 Aperture macros list*
%AMRoundRect*
0 Rectangle with rounded corners*
0 $1 Rounding radius*
0 $2 $3 $4 $5 $6 $7 $8 $9 X,Y pos of 4 corners*
0 Add a 4 corners polygon primitive as box body*
4,1,4,$2,$3,$4,$5,$6,$7,$8,$9,$2,$3,0*
0 Add four circle primitives for the rounded corners*
1,1,$1+$1,$2,$3,0*
1,1,$1+$1,$4,$5,0*
1,1,$1+$1,$6,$7,0*
1,1,$1+$1,$8,$9,0*
0 Add four rect primitives between the rounded corners*
20,1,$1+$1,$2,$3,$4,$5,0*
20,1,$1+$1,$4,$5,$6,$7,0*
20,1,$1+$1,$6,$7,$8,$9,0*
20,1,$1+$1,$8,$9,$2,$3,0*%
G04 Aperture macros list end*
%ADD10R,0.840000X0.840000*%
%ADD11C,0.840000*%
%ADD12O,0.850000X1.850000*%
%ADD13C,3.200000*%
%ADD14R,1.700000X1.700000*%
%ADD15O,1.700000X1.700000*%
%ADD16C,2.000000*%
%ADD17C,1.524000*%
%ADD18RoundRect,0.237500X-0.287500X-0.237500X0.287500X-0.237500X0.287500X0.237500X-0.287500X0.237500X0*%
%ADD19RoundRect,0.250000X-0.375000X-0.275000X0.375000X-0.275000X0.375000X0.275000X-0.375000X0.275000X0*%
%ADD20RoundRect,0.150000X-0.825000X-0.150000X0.825000X-0.150000X0.825000X0.150000X-0.825000X0.150000X0*%
%ADD21RoundRect,0.237500X0.287500X0.237500X-0.287500X0.237500X-0.287500X-0.237500X0.287500X-0.237500X0*%
%ADD22R,2.000000X0.900000*%
%ADD23R,0.900000X2.000000*%
%ADD24R,5.000000X5.000000*%
%ADD25R,0.650000X0.400000*%
%ADD26R,1.000000X1.000000*%
G04 APERTURE END LIST*
D10*
%TO.C,J1*%
X10750000Y5500000D03*
D11*
X10100000Y6500000D03*
X9450000Y5500000D03*
X8800000Y6500000D03*
X8150000Y5500000D03*
D12*
X13025000Y5720000D03*
X5875000Y5720000D03*
%TD*%
D13*
%TO.C,H2*%
X2500000Y53500000D03*
%TD*%
D14*
%TO.C,J4*%
X6750000Y19810000D03*
D15*
X6750000Y17270000D03*
X6750000Y14730000D03*
X6750000Y12190000D03*
%TD*%
D14*
%TO.C,J3*%
X6800000Y48000000D03*
D15*
X6800000Y45460000D03*
X6800000Y42920000D03*
X6800000Y40380000D03*
%TD*%
D13*
%TO.C,H3*%
X38000000Y53500000D03*
%TD*%
D16*
%TO.C,J2*%
X36000000Y7330000D03*
X36000000Y9870000D03*
X36000000Y2250000D03*
X36000000Y12410000D03*
X36000000Y4790000D03*
D17*
X32190000Y12410000D03*
X32190000Y9870000D03*
X32190000Y7330000D03*
X32190000Y4790000D03*
X32190000Y2250000D03*
%TD*%
D13*
%TO.C,H1*%
X2500000Y2500000D03*
%TD*%
D18*
%TO.C,C2*%
X23125000Y8000000D03*
X24875000Y8000000D03*
%TD*%
D19*
%TO.C,C1*%
X23150000Y9700000D03*
X24750000Y9700000D03*
%TD*%
D20*
%TO.C,U1*%
X15116000Y7955000D03*
X15116000Y9225000D03*
X15116000Y10495000D03*
X15116000Y11765000D03*
X15116000Y13035000D03*
X15116000Y14305000D03*
X15116000Y15575000D03*
X15116000Y16845000D03*
X20066000Y16845000D03*
X20066000Y15575000D03*
X20066000Y14305000D03*
X20066000Y13035000D03*
X20066000Y11765000D03*
X20066000Y10495000D03*
X20066000Y9225000D03*
X20066000Y7955000D03*
%TD*%
D18*
%TO.C,R1*%
X32125000Y44000000D03*
X33875000Y44000000D03*
%TD*%
D21*
%TO.C,C4*%
X33875000Y42000000D03*
X32125000Y42000000D03*
%TD*%
D22*
%TO.C,U3*%
X28800000Y48255000D03*
X28800000Y46985000D03*
X28800000Y45715000D03*
X28800000Y44445000D03*
X28800000Y43175000D03*
X28800000Y41905000D03*
X28800000Y40635000D03*
X28800000Y39365000D03*
X28800000Y38095000D03*
X28800000Y36825000D03*
X28800000Y35555000D03*
X28800000Y34285000D03*
X28800000Y33015000D03*
X28800000Y31745000D03*
D23*
X26015000Y30745000D03*
X24745000Y30745000D03*
X23475000Y30745000D03*
X22205000Y30745000D03*
X20935000Y30745000D03*
X19665000Y30745000D03*
X18395000Y30745000D03*
X17125000Y30745000D03*
X15855000Y30745000D03*
X14585000Y30745000D03*
D22*
X11800000Y31745000D03*
X11800000Y33015000D03*
X11800000Y34285000D03*
X11800000Y35555000D03*
X11800000Y36825000D03*
X11800000Y38095000D03*
X11800000Y39365000D03*
X11800000Y40635000D03*
X11800000Y41905000D03*
X11800000Y43175000D03*
X11800000Y44445000D03*
X11800000Y45715000D03*
X11800000Y46985000D03*
X11800000Y48255000D03*
D24*
X21300000Y40755000D03*
%TD*%
D18*
%TO.C,C7*%
X32125000Y48250000D03*
X33875000Y48250000D03*
%TD*%
D19*
%TO.C,C6*%
X32200000Y46250000D03*
X33800000Y46250000D03*
%TD*%
D25*
%TO.C,Q1*%
X24050000Y14100000D03*
X24050000Y14750000D03*
X24050000Y15400000D03*
X25950000Y15400000D03*
X25950000Y14750000D03*
X25950000Y14100000D03*
%TD*%
D26*
%TO.C,D1*%
X10800000Y12250000D03*
X10800000Y9750000D03*
%TD*%
M02*
