%TF.GenerationSoftware,KiCad,Pcbnew,(5.99.0-6613-ge739d5ba65)*%
%TF.CreationDate,2020-11-02T18:56:01+01:00*%
%TF.ProjectId,e28_tx,6532385f-7478-42e6-9b69-6361645f7063,rev?*%
%TF.SameCoordinates,PX5f5e100PY8f0d180*%
%TF.FileFunction,Legend,Bot*%
%TF.FilePolarity,Positive*%
%FSLAX46Y46*%
G04 Gerber Fmt 4.6, Leading zero omitted, Abs format (unit mm)*
G04 Created by KiCad (PCBNEW (5.99.0-6613-ge739d5ba65)) date 2020-11-02 18:56:01*
%MOMM*%
%LPD*%
G01*
G04 APERTURE LIST*
%ADD10C,0.150000*%
%ADD11C,0.120000*%
G04 APERTURE END LIST*
D10*
X4500000Y3000000D02*
X14500000Y3000000D01*
X4500000Y8000000D02*
X4500000Y3000000D01*
X9500000Y18250000D02*
X9500000Y8000000D01*
X27500000Y18250000D02*
X9500000Y18250000D01*
X14500000Y6500000D02*
X27500000Y6500000D01*
X9500000Y8000000D02*
X4500000Y8000000D01*
X14500000Y3000000D02*
X14500000Y6500000D01*
X27500000Y6500000D02*
X27500000Y18250000D01*
X24595238Y6047620D02*
X24404761Y6047620D01*
X24309523Y6000000D01*
X24214285Y5904762D01*
X24166666Y5714286D01*
X24166666Y5380953D01*
X24214285Y5190477D01*
X24309523Y5095239D01*
X24404761Y5047620D01*
X24595238Y5047620D01*
X24690476Y5095239D01*
X24785714Y5190477D01*
X24833333Y5380953D01*
X24833333Y5714286D01*
X24785714Y5904762D01*
X24690476Y6000000D01*
X24595238Y6047620D01*
X23738095Y5047620D02*
X23738095Y6047620D01*
X23357142Y6047620D01*
X23261904Y6000000D01*
X23214285Y5952381D01*
X23166666Y5857143D01*
X23166666Y5714286D01*
X23214285Y5619048D01*
X23261904Y5571429D01*
X23357142Y5523810D01*
X23738095Y5523810D01*
X22880952Y6047620D02*
X22309523Y6047620D01*
X22595238Y5047620D02*
X22595238Y6047620D01*
X21976190Y5047620D02*
X21976190Y6047620D01*
X21309523Y6047620D02*
X21119047Y6047620D01*
X21023809Y6000000D01*
X20928571Y5904762D01*
X20880952Y5714286D01*
X20880952Y5380953D01*
X20928571Y5190477D01*
X21023809Y5095239D01*
X21119047Y5047620D01*
X21309523Y5047620D01*
X21404761Y5095239D01*
X21500000Y5190477D01*
X21547619Y5380953D01*
X21547619Y5714286D01*
X21500000Y5904762D01*
X21404761Y6000000D01*
X21309523Y6047620D01*
X20452380Y5047620D02*
X20452380Y6047620D01*
X19880952Y5047620D01*
X19880952Y6047620D01*
X19452380Y5333334D02*
X18976190Y5333334D01*
X19547619Y5047620D02*
X19214285Y6047620D01*
X18880952Y5047620D01*
X18071428Y5047620D02*
X18547619Y5047620D01*
X18547619Y6047620D01*
%TO.C,C2*%
X26666666Y7642858D02*
X26714285Y7595239D01*
X26857142Y7547620D01*
X26952380Y7547620D01*
X27095238Y7595239D01*
X27190476Y7690477D01*
X27238095Y7785715D01*
X27285714Y7976191D01*
X27285714Y8119048D01*
X27238095Y8309524D01*
X27190476Y8404762D01*
X27095238Y8500000D01*
X26952380Y8547620D01*
X26857142Y8547620D01*
X26714285Y8500000D01*
X26666666Y8452381D01*
X26285714Y8452381D02*
X26238095Y8500000D01*
X26142857Y8547620D01*
X25904761Y8547620D01*
X25809523Y8500000D01*
X25761904Y8452381D01*
X25714285Y8357143D01*
X25714285Y8261905D01*
X25761904Y8119048D01*
X26333333Y7547620D01*
X25714285Y7547620D01*
%TO.C,C1*%
X26666666Y9342858D02*
X26714285Y9295239D01*
X26857142Y9247620D01*
X26952380Y9247620D01*
X27095238Y9295239D01*
X27190476Y9390477D01*
X27238095Y9485715D01*
X27285714Y9676191D01*
X27285714Y9819048D01*
X27238095Y10009524D01*
X27190476Y10104762D01*
X27095238Y10200000D01*
X26952380Y10247620D01*
X26857142Y10247620D01*
X26714285Y10200000D01*
X26666666Y10152381D01*
X25714285Y9247620D02*
X26285714Y9247620D01*
X26000000Y9247620D02*
X26000000Y10247620D01*
X26095238Y10104762D01*
X26190476Y10009524D01*
X26285714Y9961905D01*
%TO.C,U1*%
X13511904Y17047620D02*
X13511904Y16238096D01*
X13464285Y16142858D01*
X13416666Y16095239D01*
X13321428Y16047620D01*
X13130952Y16047620D01*
X13035714Y16095239D01*
X12988095Y16142858D01*
X12940476Y16238096D01*
X12940476Y17047620D01*
X11940476Y16047620D02*
X12511904Y16047620D01*
X12226190Y16047620D02*
X12226190Y17047620D01*
X12321428Y16904762D01*
X12416666Y16809524D01*
X12511904Y16761905D01*
%TO.C,R1*%
X36166666Y43547620D02*
X36500000Y44023810D01*
X36738095Y43547620D02*
X36738095Y44547620D01*
X36357142Y44547620D01*
X36261904Y44500000D01*
X36214285Y44452381D01*
X36166666Y44357143D01*
X36166666Y44214286D01*
X36214285Y44119048D01*
X36261904Y44071429D01*
X36357142Y44023810D01*
X36738095Y44023810D01*
X35214285Y43547620D02*
X35785714Y43547620D01*
X35500000Y43547620D02*
X35500000Y44547620D01*
X35595238Y44404762D01*
X35690476Y44309524D01*
X35785714Y44261905D01*
%TO.C,C4*%
X36291666Y41642858D02*
X36339285Y41595239D01*
X36482142Y41547620D01*
X36577380Y41547620D01*
X36720238Y41595239D01*
X36815476Y41690477D01*
X36863095Y41785715D01*
X36910714Y41976191D01*
X36910714Y42119048D01*
X36863095Y42309524D01*
X36815476Y42404762D01*
X36720238Y42500000D01*
X36577380Y42547620D01*
X36482142Y42547620D01*
X36339285Y42500000D01*
X36291666Y42452381D01*
X35434523Y42214286D02*
X35434523Y41547620D01*
X35672619Y42595239D02*
X35910714Y41880953D01*
X35291666Y41880953D01*
%TO.C,U3*%
X30362380Y32331905D02*
X31171904Y32331905D01*
X31267142Y32284286D01*
X31314761Y32236667D01*
X31362380Y32141429D01*
X31362380Y31950953D01*
X31314761Y31855715D01*
X31267142Y31808096D01*
X31171904Y31760477D01*
X30362380Y31760477D01*
X30362380Y31379524D02*
X30362380Y30760477D01*
X30743333Y31093810D01*
X30743333Y30950953D01*
X30790952Y30855715D01*
X30838571Y30808096D01*
X30933809Y30760477D01*
X31171904Y30760477D01*
X31267142Y30808096D01*
X31314761Y30855715D01*
X31362380Y30950953D01*
X31362380Y31236667D01*
X31314761Y31331905D01*
X31267142Y31379524D01*
%TO.C,C7*%
X36166666Y47792858D02*
X36214285Y47745239D01*
X36357142Y47697620D01*
X36452380Y47697620D01*
X36595238Y47745239D01*
X36690476Y47840477D01*
X36738095Y47935715D01*
X36785714Y48126191D01*
X36785714Y48269048D01*
X36738095Y48459524D01*
X36690476Y48554762D01*
X36595238Y48650000D01*
X36452380Y48697620D01*
X36357142Y48697620D01*
X36214285Y48650000D01*
X36166666Y48602381D01*
X35833333Y48697620D02*
X35166666Y48697620D01*
X35595238Y47697620D01*
%TO.C,C6*%
X36166666Y45892858D02*
X36214285Y45845239D01*
X36357142Y45797620D01*
X36452380Y45797620D01*
X36595238Y45845239D01*
X36690476Y45940477D01*
X36738095Y46035715D01*
X36785714Y46226191D01*
X36785714Y46369048D01*
X36738095Y46559524D01*
X36690476Y46654762D01*
X36595238Y46750000D01*
X36452380Y46797620D01*
X36357142Y46797620D01*
X36214285Y46750000D01*
X36166666Y46702381D01*
X35309523Y46797620D02*
X35500000Y46797620D01*
X35595238Y46750000D01*
X35642857Y46702381D01*
X35738095Y46559524D01*
X35785714Y46369048D01*
X35785714Y45988096D01*
X35738095Y45892858D01*
X35690476Y45845239D01*
X35595238Y45797620D01*
X35404761Y45797620D01*
X35309523Y45845239D01*
X35261904Y45892858D01*
X35214285Y45988096D01*
X35214285Y46226191D01*
X35261904Y46321429D01*
X35309523Y46369048D01*
X35404761Y46416667D01*
X35595238Y46416667D01*
X35690476Y46369048D01*
X35738095Y46321429D01*
X35785714Y46226191D01*
%TO.C,Q1*%
X25095238Y16202381D02*
X25190476Y16250000D01*
X25285714Y16345239D01*
X25428571Y16488096D01*
X25523809Y16535715D01*
X25619047Y16535715D01*
X25571428Y16297620D02*
X25666666Y16345239D01*
X25761904Y16440477D01*
X25809523Y16630953D01*
X25809523Y16964286D01*
X25761904Y17154762D01*
X25666666Y17250000D01*
X25571428Y17297620D01*
X25380952Y17297620D01*
X25285714Y17250000D01*
X25190476Y17154762D01*
X25142857Y16964286D01*
X25142857Y16630953D01*
X25190476Y16440477D01*
X25285714Y16345239D01*
X25380952Y16297620D01*
X25571428Y16297620D01*
X24190476Y16297620D02*
X24761904Y16297620D01*
X24476190Y16297620D02*
X24476190Y17297620D01*
X24571428Y17154762D01*
X24666666Y17059524D01*
X24761904Y17011905D01*
%TO.C,D1*%
X10397619Y13461905D02*
X11397619Y13461905D01*
X11397619Y13700000D01*
X11350000Y13842858D01*
X11254761Y13938096D01*
X11159523Y13985715D01*
X10969047Y14033334D01*
X10826190Y14033334D01*
X10635714Y13985715D01*
X10540476Y13938096D01*
X10445238Y13842858D01*
X10397619Y13700000D01*
X10397619Y13461905D01*
X10397619Y14985715D02*
X10397619Y14414286D01*
X10397619Y14700000D02*
X11397619Y14700000D01*
X11254761Y14604762D01*
X11159523Y14509524D01*
X11111904Y14414286D01*
D11*
%TO.C,C2*%
X23828733Y7490000D02*
X24171267Y7490000D01*
X23828733Y8510000D02*
X24171267Y8510000D01*
%TO.C,C1*%
X22265000Y8915000D02*
X22265000Y10485000D01*
X22265000Y10485000D02*
X24750000Y10485000D01*
X24750000Y8915000D02*
X22265000Y8915000D01*
%TO.C,U1*%
X17591000Y7340000D02*
X19541000Y7340000D01*
X17591000Y17460000D02*
X19541000Y17460000D01*
X17591000Y7340000D02*
X14141000Y7340000D01*
X17591000Y17460000D02*
X15641000Y17460000D01*
%TO.C,R1*%
X32828733Y43490000D02*
X33171267Y43490000D01*
X32828733Y44510000D02*
X33171267Y44510000D01*
%TO.C,C4*%
X33171267Y42510000D02*
X32828733Y42510000D01*
X33171267Y41490000D02*
X32828733Y41490000D01*
%TO.C,U3*%
X11180000Y55865000D02*
X11180000Y49445000D01*
X29420000Y30900000D02*
X29420000Y30120000D01*
X29420000Y55865000D02*
X29420000Y49445000D01*
X29420000Y55865000D02*
X11180000Y55865000D01*
X29420000Y49445000D02*
X29800000Y49445000D01*
X11180000Y30120000D02*
X12180000Y30120000D01*
X29420000Y30120000D02*
X28420000Y30120000D01*
X11180000Y30900000D02*
X11180000Y30120000D01*
%TO.C,C7*%
X32828733Y47740000D02*
X33171267Y47740000D01*
X32828733Y48760000D02*
X33171267Y48760000D01*
%TO.C,C6*%
X31315000Y45465000D02*
X31315000Y47035000D01*
X33800000Y45465000D02*
X31315000Y45465000D01*
X31315000Y47035000D02*
X33800000Y47035000D01*
%TO.C,Q1*%
X25700000Y13590000D02*
X23800000Y13590000D01*
X24300000Y15910000D02*
X25700000Y15910000D01*
%TO.C,D1*%
X9950000Y12900000D02*
X11650000Y12900000D01*
X11650000Y12900000D02*
X11650000Y9750000D01*
X9950000Y12900000D02*
X9950000Y9750000D01*
%TD*%
M02*
