%TF.GenerationSoftware,KiCad,Pcbnew,(5.99.0-6613-ge739d5ba65)*%
%TF.CreationDate,2020-11-02T18:56:01+01:00*%
%TF.ProjectId,e28_tx,6532385f-7478-42e6-9b69-6361645f7063,rev?*%
%TF.SameCoordinates,PX5f5e100PY8f0d180*%
%TF.FileFunction,Soldermask,Top*%
%TF.FilePolarity,Negative*%
%FSLAX46Y46*%
G04 Gerber Fmt 4.6, Leading zero omitted, Abs format (unit mm)*
G04 Created by KiCad (PCBNEW (5.99.0-6613-ge739d5ba65)) date 2020-11-02 18:56:01*
%MOMM*%
%LPD*%
G01*
G04 APERTURE LIST*
G04 Aperture macros list*
%AMRoundRect*
0 Rectangle with rounded corners*
0 $1 Rounding radius*
0 $2 $3 $4 $5 $6 $7 $8 $9 X,Y pos of 4 corners*
0 Add a 4 corners polygon primitive as box body*
4,1,4,$2,$3,$4,$5,$6,$7,$8,$9,$2,$3,0*
0 Add four circle primitives for the rounded corners*
1,1,$1+$1,$2,$3,0*
1,1,$1+$1,$4,$5,0*
1,1,$1+$1,$6,$7,0*
1,1,$1+$1,$8,$9,0*
0 Add four rect primitives between the rounded corners*
20,1,$1+$1,$2,$3,$4,$5,0*
20,1,$1+$1,$4,$5,$6,$7,0*
20,1,$1+$1,$6,$7,$8,$9,0*
20,1,$1+$1,$8,$9,$2,$3,0*%
G04 Aperture macros list end*
%ADD10R,0.840000X0.840000*%
%ADD11C,0.840000*%
%ADD12O,0.850000X1.850000*%
%ADD13RoundRect,0.250000X0.375000X0.275000X-0.375000X0.275000X-0.375000X-0.275000X0.375000X-0.275000X0*%
%ADD14R,1.000000X1.700000*%
%ADD15RoundRect,0.237500X0.287500X0.237500X-0.287500X0.237500X-0.287500X-0.237500X0.287500X-0.237500X0*%
%ADD16O,2.000000X0.800000*%
%ADD17C,3.200000*%
%ADD18R,1.700000X1.700000*%
%ADD19O,1.700000X1.700000*%
%ADD20C,2.000000*%
%ADD21C,1.524000*%
G04 APERTURE END LIST*
D10*
%TO.C,J1*%
X10750000Y5500000D03*
D11*
X10100000Y6500000D03*
X9450000Y5500000D03*
X8800000Y6500000D03*
X8150000Y5500000D03*
D12*
X13025000Y5720000D03*
X5875000Y5720000D03*
%TD*%
D13*
%TO.C,C8*%
X10650000Y46250000D03*
X9050000Y46250000D03*
%TD*%
D14*
%TO.C,SW2*%
X23700000Y9400000D03*
X23700000Y3100000D03*
X27500000Y9400000D03*
X27500000Y3100000D03*
%TD*%
D15*
%TO.C,C9*%
X10675000Y48250000D03*
X8925000Y48250000D03*
%TD*%
D16*
%TO.C,U4*%
X12800000Y46890000D03*
X12800000Y45620000D03*
X12800000Y44350000D03*
X12800000Y43080000D03*
X12800000Y41810000D03*
X12800000Y40540000D03*
X12800000Y39270000D03*
X12800000Y38000000D03*
X27800000Y38000000D03*
X27800000Y39270000D03*
X27800000Y40540000D03*
X27800000Y41810000D03*
X27800000Y43080000D03*
X27800000Y44350000D03*
X27800000Y45620000D03*
X27800000Y46890000D03*
%TD*%
D17*
%TO.C,H2*%
X2500000Y53500000D03*
%TD*%
D18*
%TO.C,J4*%
X6750000Y19810000D03*
D19*
X6750000Y17270000D03*
X6750000Y14730000D03*
X6750000Y12190000D03*
%TD*%
D14*
%TO.C,SW1*%
X16450000Y3100000D03*
X16450000Y9400000D03*
X20250000Y9400000D03*
X20250000Y3100000D03*
%TD*%
D18*
%TO.C,J3*%
X6800000Y48000000D03*
D19*
X6800000Y45460000D03*
X6800000Y42920000D03*
X6800000Y40380000D03*
%TD*%
D17*
%TO.C,H3*%
X38000000Y53500000D03*
%TD*%
D20*
%TO.C,J2*%
X36000000Y7330000D03*
X36000000Y9870000D03*
X36000000Y2250000D03*
X36000000Y12410000D03*
X36000000Y4790000D03*
D21*
X32190000Y12410000D03*
X32190000Y9870000D03*
X32190000Y7330000D03*
X32190000Y4790000D03*
X32190000Y2250000D03*
%TD*%
D17*
%TO.C,H1*%
X2500000Y2500000D03*
%TD*%
M02*
