%TF.GenerationSoftware,KiCad,Pcbnew,(5.99.0-6613-ge739d5ba65)*%
%TF.CreationDate,2020-11-02T18:56:01+01:00*%
%TF.ProjectId,e28_tx,6532385f-7478-42e6-9b69-6361645f7063,rev?*%
%TF.SameCoordinates,PX5f5e100PY8f0d180*%
%TF.FileFunction,Copper,L2,Bot*%
%TF.FilePolarity,Positive*%
%FSLAX46Y46*%
G04 Gerber Fmt 4.6, Leading zero omitted, Abs format (unit mm)*
G04 Created by KiCad (PCBNEW (5.99.0-6613-ge739d5ba65)) date 2020-11-02 18:56:01*
%MOMM*%
%LPD*%
G01*
G04 APERTURE LIST*
G04 Aperture macros list*
%AMRoundRect*
0 Rectangle with rounded corners*
0 $1 Rounding radius*
0 $2 $3 $4 $5 $6 $7 $8 $9 X,Y pos of 4 corners*
0 Add a 4 corners polygon primitive as box body*
4,1,4,$2,$3,$4,$5,$6,$7,$8,$9,$2,$3,0*
0 Add four circle primitives for the rounded corners*
1,1,$1+$1,$2,$3,0*
1,1,$1+$1,$4,$5,0*
1,1,$1+$1,$6,$7,0*
1,1,$1+$1,$8,$9,0*
0 Add four rect primitives between the rounded corners*
20,1,$1+$1,$2,$3,$4,$5,0*
20,1,$1+$1,$4,$5,$6,$7,0*
20,1,$1+$1,$6,$7,$8,$9,0*
20,1,$1+$1,$8,$9,$2,$3,0*%
G04 Aperture macros list end*
%TA.AperFunction,ComponentPad*%
%ADD10R,0.840000X0.840000*%
%TD*%
%TA.AperFunction,ComponentPad*%
%ADD11C,0.840000*%
%TD*%
%TA.AperFunction,ComponentPad*%
%ADD12O,0.850000X1.850000*%
%TD*%
%TA.AperFunction,ComponentPad*%
%ADD13R,1.700000X1.700000*%
%TD*%
%TA.AperFunction,ComponentPad*%
%ADD14O,1.700000X1.700000*%
%TD*%
%TA.AperFunction,ComponentPad*%
%ADD15C,2.000000*%
%TD*%
%TA.AperFunction,ComponentPad*%
%ADD16C,1.524000*%
%TD*%
%TA.AperFunction,SMDPad,CuDef*%
%ADD17RoundRect,0.237500X-0.287500X-0.237500X0.287500X-0.237500X0.287500X0.237500X-0.287500X0.237500X0*%
%TD*%
%TA.AperFunction,SMDPad,CuDef*%
%ADD18RoundRect,0.250000X-0.375000X-0.275000X0.375000X-0.275000X0.375000X0.275000X-0.375000X0.275000X0*%
%TD*%
%TA.AperFunction,SMDPad,CuDef*%
%ADD19RoundRect,0.150000X-0.825000X-0.150000X0.825000X-0.150000X0.825000X0.150000X-0.825000X0.150000X0*%
%TD*%
%TA.AperFunction,SMDPad,CuDef*%
%ADD20RoundRect,0.237500X0.287500X0.237500X-0.287500X0.237500X-0.287500X-0.237500X0.287500X-0.237500X0*%
%TD*%
%TA.AperFunction,SMDPad,CuDef*%
%ADD21R,2.000000X0.900000*%
%TD*%
%TA.AperFunction,SMDPad,CuDef*%
%ADD22R,0.900000X2.000000*%
%TD*%
%TA.AperFunction,SMDPad,CuDef*%
%ADD23R,5.000000X5.000000*%
%TD*%
%TA.AperFunction,SMDPad,CuDef*%
%ADD24R,0.650000X0.400000*%
%TD*%
%TA.AperFunction,SMDPad,CuDef*%
%ADD25R,1.000000X1.000000*%
%TD*%
%TA.AperFunction,ViaPad*%
%ADD26C,0.400000*%
%TD*%
%TA.AperFunction,ViaPad*%
%ADD27C,0.800000*%
%TD*%
%TA.AperFunction,Conductor*%
%ADD28C,0.600000*%
%TD*%
%TA.AperFunction,Conductor*%
%ADD29C,0.250000*%
%TD*%
G04 APERTURE END LIST*
D10*
%TO.P,J1,1,VBUS*%
%TO.N,Net-(D1-Pad2)*%
X10750000Y5500000D03*
D11*
%TO.P,J1,2,D-*%
%TO.N,/D-*%
X10100000Y6500000D03*
%TO.P,J1,3,D+*%
%TO.N,/D+*%
X9450000Y5500000D03*
%TO.P,J1,4,ID*%
%TO.N,N/C*%
X8800000Y6500000D03*
%TO.P,J1,5,GND*%
%TO.N,GND*%
X8150000Y5500000D03*
D12*
%TO.P,J1,6,Shield*%
X13025000Y5720000D03*
X5875000Y5720000D03*
%TD*%
D13*
%TO.P,J4,1,Pin_1*%
%TO.N,/VBAT*%
X6750000Y19810000D03*
D14*
%TO.P,J4,2,Pin_2*%
X6750000Y17270000D03*
%TO.P,J4,3,Pin_3*%
%TO.N,GND*%
X6750000Y14730000D03*
%TO.P,J4,4,Pin_4*%
%TO.N,+3V3*%
X6750000Y12190000D03*
%TD*%
D13*
%TO.P,J3,1,Pin_1*%
%TO.N,N/C*%
X6800000Y48000000D03*
D14*
%TO.P,J3,2,Pin_2*%
%TO.N,/TX*%
X6800000Y45460000D03*
%TO.P,J3,3,Pin_3*%
%TO.N,/RX*%
X6800000Y42920000D03*
%TO.P,J3,4,Pin_4*%
%TO.N,GND*%
X6800000Y40380000D03*
%TD*%
D15*
%TO.P,J2,*%
%TO.N,*%
X36000000Y7330000D03*
X36000000Y9870000D03*
X36000000Y2250000D03*
X36000000Y12410000D03*
X36000000Y4790000D03*
D16*
%TO.P,J2,1,Pin_1*%
%TO.N,N/C*%
X32190000Y12410000D03*
%TO.P,J2,2,Pin_2*%
X32190000Y9870000D03*
%TO.P,J2,3,Pin_3*%
%TO.N,/VBAT*%
X32190000Y7330000D03*
%TO.P,J2,4,Pin_4*%
%TO.N,GND*%
X32190000Y4790000D03*
%TO.P,J2,5,Pin_5*%
%TO.N,/SPORT*%
X32190000Y2250000D03*
%TD*%
D17*
%TO.P,C2,1*%
%TO.N,+3V3*%
X23125000Y8000000D03*
%TO.P,C2,2*%
%TO.N,GND*%
X24875000Y8000000D03*
%TD*%
D18*
%TO.P,C1,1*%
%TO.N,+3V3*%
X23150000Y9700000D03*
%TO.P,C1,2*%
%TO.N,GND*%
X24750000Y9700000D03*
%TD*%
D19*
%TO.P,U1,1,GND*%
%TO.N,GND*%
X15116000Y7955000D03*
%TO.P,U1,2,TXD*%
%TO.N,/RX*%
X15116000Y9225000D03*
%TO.P,U1,3,RXD*%
%TO.N,/TX*%
X15116000Y10495000D03*
%TO.P,U1,4,V3*%
%TO.N,+3V3*%
X15116000Y11765000D03*
%TO.P,U1,5,UD+*%
%TO.N,/D+*%
X15116000Y13035000D03*
%TO.P,U1,6,UD-*%
%TO.N,/D-*%
X15116000Y14305000D03*
%TO.P,U1,7,NC*%
%TO.N,N/C*%
X15116000Y15575000D03*
%TO.P,U1,8,NC*%
X15116000Y16845000D03*
%TO.P,U1,9,~CTS*%
X20066000Y16845000D03*
%TO.P,U1,10,~DSR*%
X20066000Y15575000D03*
%TO.P,U1,11,~RI*%
X20066000Y14305000D03*
%TO.P,U1,12,~DCD*%
X20066000Y13035000D03*
%TO.P,U1,13,~DTR*%
%TO.N,/DTR*%
X20066000Y11765000D03*
%TO.P,U1,14,~RTS*%
%TO.N,/RTS*%
X20066000Y10495000D03*
%TO.P,U1,15,R232*%
%TO.N,N/C*%
X20066000Y9225000D03*
%TO.P,U1,16,VCC*%
%TO.N,+3V3*%
X20066000Y7955000D03*
%TD*%
D17*
%TO.P,R1,1*%
%TO.N,+3V3*%
X32125000Y44000000D03*
%TO.P,R1,2*%
%TO.N,/RST*%
X33875000Y44000000D03*
%TD*%
D20*
%TO.P,C4,1*%
%TO.N,GND*%
X33875000Y42000000D03*
%TO.P,C4,2*%
%TO.N,/RST*%
X32125000Y42000000D03*
%TD*%
D21*
%TO.P,U3,1,GND*%
%TO.N,GND*%
X28800000Y48255000D03*
%TO.P,U3,2,VDD*%
%TO.N,+3V3*%
X28800000Y46985000D03*
%TO.P,U3,3,EN*%
%TO.N,/RST*%
X28800000Y45715000D03*
%TO.P,U3,4,SENSOR_VP*%
%TO.N,N/C*%
X28800000Y44445000D03*
%TO.P,U3,5,SENSOR_VN*%
X28800000Y43175000D03*
%TO.P,U3,6,IO34*%
X28800000Y41905000D03*
%TO.P,U3,7,IO35*%
X28800000Y40635000D03*
%TO.P,U3,8,IO32*%
X28800000Y39365000D03*
%TO.P,U3,9,IO33*%
X28800000Y38095000D03*
%TO.P,U3,10,IO25*%
X28800000Y36825000D03*
%TO.P,U3,11,IO26*%
%TO.N,/TXEN*%
X28800000Y35555000D03*
%TO.P,U3,12,IO27*%
%TO.N,/RXEN*%
X28800000Y34285000D03*
%TO.P,U3,13,IO14*%
%TO.N,/RESET*%
X28800000Y33015000D03*
%TO.P,U3,14,IO12*%
%TO.N,N/C*%
X28800000Y31745000D03*
D22*
%TO.P,U3,15,GND*%
%TO.N,GND*%
X26015000Y30745000D03*
%TO.P,U3,16,IO13*%
%TO.N,/SPORT*%
X24745000Y30745000D03*
%TO.P,U3,17,SHD/SD2*%
%TO.N,N/C*%
X23475000Y30745000D03*
%TO.P,U3,18,SWP/SD3*%
X22205000Y30745000D03*
%TO.P,U3,19,SCS/CMD*%
X20935000Y30745000D03*
%TO.P,U3,20,SCK/CLK*%
X19665000Y30745000D03*
%TO.P,U3,21,SDO/SD0*%
X18395000Y30745000D03*
%TO.P,U3,22,SDI/SD1*%
X17125000Y30745000D03*
%TO.P,U3,23,IO15*%
X15855000Y30745000D03*
%TO.P,U3,24,IO2*%
%TO.N,/DIO2*%
X14585000Y30745000D03*
D21*
%TO.P,U3,25,IO0*%
%TO.N,/BOOT*%
X11800000Y31745000D03*
%TO.P,U3,26,IO4*%
%TO.N,/DIO1*%
X11800000Y33015000D03*
%TO.P,U3,27,IO16*%
%TO.N,N/C*%
X11800000Y34285000D03*
%TO.P,U3,28,IO17*%
X11800000Y35555000D03*
%TO.P,U3,29,IO5*%
%TO.N,/NSS*%
X11800000Y36825000D03*
%TO.P,U3,30,IO18*%
%TO.N,/SCK*%
X11800000Y38095000D03*
%TO.P,U3,31,IO19*%
%TO.N,/MISO*%
X11800000Y39365000D03*
%TO.P,U3,32,NC*%
%TO.N,N/C*%
X11800000Y40635000D03*
%TO.P,U3,33,IO21*%
%TO.N,/BUSY*%
X11800000Y41905000D03*
%TO.P,U3,34,RXD0/IO3*%
%TO.N,/RX*%
X11800000Y43175000D03*
%TO.P,U3,35,TXD0/IO1*%
%TO.N,/TX*%
X11800000Y44445000D03*
%TO.P,U3,36,IO22*%
%TO.N,N/C*%
X11800000Y45715000D03*
%TO.P,U3,37,IO23*%
%TO.N,/MOSI*%
X11800000Y46985000D03*
%TO.P,U3,38,GND*%
%TO.N,GND*%
X11800000Y48255000D03*
D23*
%TO.P,U3,39,GND*%
X21300000Y40755000D03*
%TD*%
D17*
%TO.P,C7,1*%
%TO.N,+3V3*%
X32125000Y48250000D03*
%TO.P,C7,2*%
%TO.N,GND*%
X33875000Y48250000D03*
%TD*%
D18*
%TO.P,C6,1*%
%TO.N,+3V3*%
X32200000Y46250000D03*
%TO.P,C6,2*%
%TO.N,GND*%
X33800000Y46250000D03*
%TD*%
D24*
%TO.P,Q1,1,E1*%
%TO.N,/RTS*%
X24050000Y14100000D03*
%TO.P,Q1,2,B1*%
%TO.N,/DTR*%
X24050000Y14750000D03*
%TO.P,Q1,3,C2*%
%TO.N,/BOOT*%
X24050000Y15400000D03*
%TO.P,Q1,4,E2*%
%TO.N,/DTR*%
X25950000Y15400000D03*
%TO.P,Q1,5,B2*%
%TO.N,/RTS*%
X25950000Y14750000D03*
%TO.P,Q1,6,C1*%
%TO.N,/RST*%
X25950000Y14100000D03*
%TD*%
D25*
%TO.P,D1,1,K*%
%TO.N,/VBAT*%
X10800000Y12250000D03*
%TO.P,D1,2,A*%
%TO.N,Net-(D1-Pad2)*%
X10800000Y9750000D03*
%TD*%
D26*
%TO.N,GND*%
X31500000Y17000000D03*
X39500000Y49000000D03*
X35500000Y41000000D03*
X9000000Y1000000D03*
X23500000Y49000000D03*
X1000000Y1000000D03*
X19500000Y29000000D03*
X19500000Y49000000D03*
X4980018Y8980018D03*
X35500000Y17000000D03*
X19500000Y41000000D03*
X5000000Y13000000D03*
X15500000Y49000000D03*
X15500000Y37000000D03*
X9000000Y37000000D03*
X19500000Y33000000D03*
X19500000Y5000000D03*
X35500000Y29000000D03*
X35500000Y21000000D03*
X19500000Y45000000D03*
X1000000Y49000000D03*
X15500000Y45000000D03*
X1000000Y9000000D03*
X27500000Y29000000D03*
X9000000Y25000000D03*
X9000000Y29000000D03*
X5000000Y1000000D03*
X23500000Y17000000D03*
X35500000Y25000000D03*
X39500000Y45000000D03*
X5000000Y21000000D03*
X23500000Y45000000D03*
X9000000Y9000000D03*
X1000000Y13000000D03*
X23500000Y21000000D03*
X23500000Y33000000D03*
X5000000Y49000000D03*
X15500000Y29000000D03*
X35500000Y49000000D03*
X23000000Y5000000D03*
X35500000Y37000000D03*
X35500000Y33000000D03*
X5000000Y44831000D03*
X5000000Y41000000D03*
X39500000Y1000000D03*
X1000000Y5000000D03*
X35500000Y45000000D03*
X13000000Y1000000D03*
X15500000Y25000000D03*
X9000000Y33000000D03*
X39500000Y5000000D03*
X39500000Y41000000D03*
X15500000Y5000000D03*
X23500000Y29000000D03*
X1000000Y41000000D03*
X23500000Y25000000D03*
X5000000Y25000000D03*
X1000000Y45000000D03*
X5000000Y5000000D03*
X19500000Y37211000D03*
X15500000Y41000000D03*
D27*
%TO.N,+3V3*%
X31150000Y44000000D03*
X28000000Y19450000D03*
X15300000Y48200000D03*
D26*
%TO.N,/RST*%
X22800000Y13200000D03*
X32100000Y40700000D03*
X26900000Y14100000D03*
D27*
%TO.N,Net-(D1-Pad2)*%
X10800000Y8525000D03*
%TO.N,/VBAT*%
X10810000Y13210000D03*
D26*
%TO.N,/RX*%
X13900000Y9225000D03*
%TO.N,/TX*%
X13275000Y10500000D03*
%TO.N,/BOOT*%
X23200000Y15475000D03*
X11600000Y29800000D03*
%TO.N,/MOSI*%
X13875000Y43075000D03*
%TO.N,/BUSY*%
X15400000Y41800000D03*
%TO.N,/MISO*%
X9575000Y39375000D03*
%TO.N,/SCK*%
X10100000Y38100000D03*
%TO.N,/NSS*%
X10650000Y36825000D03*
%TO.N,/DIO1*%
X25750000Y43050000D03*
%TO.N,/DIO2*%
X26500000Y44350000D03*
%TO.N,/RESET*%
X30349990Y33025000D03*
%TO.N,/RXEN*%
X27625000Y34300000D03*
%TO.N,/TXEN*%
X29899979Y35550000D03*
%TD*%
D28*
%TO.N,+3V3*%
X9300000Y16550000D02*
X13049999Y20299999D01*
X30750000Y46250000D02*
X32200000Y46250000D01*
X8340000Y12190000D02*
X9300000Y13150000D01*
X27150000Y20300000D02*
X13050000Y20300000D01*
X31150000Y44000000D02*
X32125000Y44000000D01*
X23700000Y12300000D02*
X23150000Y11750000D01*
X28000000Y13025000D02*
X27275000Y12300000D01*
X16235000Y11765000D02*
X17600000Y10400000D01*
X9300000Y13150000D02*
X9300000Y16550000D01*
X30015000Y46985000D02*
X30750000Y46250000D01*
X23150000Y11750000D02*
X23150000Y9700000D01*
X6750000Y12190000D02*
X8340000Y12190000D01*
X20066000Y7955000D02*
X23080000Y7955000D01*
X13050000Y20300000D02*
X13049999Y20299999D01*
X32200000Y46250000D02*
X32200000Y48175000D01*
X19091000Y7955000D02*
X20066000Y7955000D01*
X28000000Y19450000D02*
X28000000Y13025000D01*
X15116000Y11765000D02*
X16235000Y11765000D01*
X17600000Y10400000D02*
X17600000Y9446000D01*
X27275000Y12300000D02*
X23700000Y12300000D01*
X23150000Y9700000D02*
X23150000Y8025000D01*
X28800000Y46985000D02*
X30015000Y46985000D01*
X17600000Y9446000D02*
X19091000Y7955000D01*
X28000000Y19450000D02*
X27150000Y20300000D01*
X32125000Y44000000D02*
X32125000Y46175000D01*
X28800000Y46985000D02*
X16515000Y46985000D01*
X16515000Y46985000D02*
X15300000Y48200000D01*
D29*
%TO.N,/RST*%
X30424999Y45340001D02*
X30050000Y45715000D01*
X32125000Y42000000D02*
X31600000Y42000000D01*
X30050000Y45715000D02*
X28800000Y45715000D01*
X32125000Y42000000D02*
X33875000Y43750000D01*
X25275011Y13425011D02*
X23025011Y13425011D01*
X23025011Y13425011D02*
X22800000Y13200000D01*
X30424999Y43175001D02*
X30424999Y45340001D01*
X25950000Y14100000D02*
X25275011Y13425011D01*
X32100000Y40700000D02*
X32100000Y41975000D01*
X31600000Y42000000D02*
X30424999Y43175001D01*
X25950000Y14100000D02*
X26900000Y14100000D01*
D28*
%TO.N,Net-(D1-Pad2)*%
X10800000Y8525000D02*
X10800000Y9750000D01*
D29*
%TO.N,/D+*%
X11975000Y4900000D02*
X11600000Y4525000D01*
X13235000Y13035000D02*
X12724991Y12524991D01*
X9450000Y4825000D02*
X9450000Y5500000D01*
X11600000Y4525000D02*
X9750000Y4525000D01*
X15116000Y13035000D02*
X13235000Y13035000D01*
X9750000Y4525000D02*
X9450000Y4825000D01*
X11975000Y6975000D02*
X11975000Y4900000D01*
X12724991Y7724991D02*
X11975000Y6975000D01*
X12724991Y12524991D02*
X12724991Y7724991D01*
%TO.N,/D-*%
X15116000Y14305000D02*
X13505000Y14305000D01*
X12274980Y8674980D02*
X10100000Y6500000D01*
X12274980Y13074980D02*
X12274980Y8674980D01*
X13505000Y14305000D02*
X12274980Y13074980D01*
%TO.N,/SPORT*%
X34000000Y18000000D02*
X24445000Y27555000D01*
X24445000Y27555000D02*
X24445000Y30745000D01*
X34000000Y4060000D02*
X34000000Y18000000D01*
X32190000Y2250000D02*
X34000000Y4060000D01*
D28*
%TO.N,/VBAT*%
X10800000Y12250000D02*
X10800000Y13200000D01*
X10800000Y13200000D02*
X10810000Y13210000D01*
D29*
%TO.N,/RX*%
X11800000Y43175000D02*
X7055000Y43175000D01*
X15116000Y9225000D02*
X13900000Y9225000D01*
%TO.N,/TX*%
X13280000Y10495000D02*
X13275000Y10500000D01*
X11800000Y44445000D02*
X7815000Y44445000D01*
X7815000Y44445000D02*
X6800000Y45460000D01*
X15116000Y10495000D02*
X13280000Y10495000D01*
%TO.N,/DTR*%
X20066000Y11870000D02*
X21370000Y11870000D01*
X21370000Y11870000D02*
X21500000Y12000000D01*
X25375000Y15400000D02*
X24725000Y14750000D01*
X22250000Y14750000D02*
X24050000Y14750000D01*
X24725000Y14750000D02*
X24050000Y14750000D01*
X25950000Y15400000D02*
X25375000Y15400000D01*
X21500000Y14000000D02*
X22250000Y14750000D01*
X21500000Y12000000D02*
X21500000Y14000000D01*
%TO.N,/RTS*%
X25950000Y14750000D02*
X25375000Y14750000D01*
X20066000Y10600000D02*
X21350000Y10600000D01*
X21350000Y10600000D02*
X22000000Y11250000D01*
X22000000Y11250000D02*
X22000000Y13750000D01*
X24725000Y14100000D02*
X24050000Y14100000D01*
X22000000Y13750000D02*
X22350000Y14100000D01*
X22350000Y14100000D02*
X24050000Y14100000D01*
X25375000Y14750000D02*
X24725000Y14100000D01*
%TO.N,/BOOT*%
X23200000Y15475000D02*
X23975000Y15475000D01*
X11600000Y29800000D02*
X11600000Y31645000D01*
%TO.N,/MOSI*%
X13875000Y43075000D02*
X13875000Y46160000D01*
X13050000Y46985000D02*
X11800000Y46985000D01*
X13875000Y46160000D02*
X13050000Y46985000D01*
%TO.N,/BUSY*%
X15400000Y41800000D02*
X11905000Y41800000D01*
%TO.N,/MISO*%
X9585000Y39365000D02*
X9575000Y39375000D01*
X11800000Y39365000D02*
X9585000Y39365000D01*
%TO.N,/SCK*%
X11800000Y38095000D02*
X10105000Y38095000D01*
X10105000Y38095000D02*
X10100000Y38100000D01*
%TO.N,/NSS*%
X11800000Y36825000D02*
X10650000Y36825000D01*
%TO.N,/DIO1*%
X25744702Y39244702D02*
X25744702Y42627284D01*
X18503600Y36550011D02*
X23050011Y36550011D01*
X23050011Y36550011D02*
X25744702Y39244702D01*
X14968590Y33015000D02*
X18503600Y36550011D01*
X11800000Y33015000D02*
X14968590Y33015000D01*
X25750000Y42632582D02*
X25744702Y42627284D01*
X25750000Y43050000D02*
X25750000Y42632582D01*
%TO.N,/DIO2*%
X26300000Y39050000D02*
X26300000Y44150000D01*
X14585000Y31995000D02*
X18690000Y36100000D01*
X23350000Y36100000D02*
X26300000Y39050000D01*
X14585000Y30745000D02*
X14585000Y31995000D01*
X26300000Y44150000D02*
X26500000Y44350000D01*
X18690000Y36100000D02*
X23350000Y36100000D01*
%TO.N,/RESET*%
X30339990Y33015000D02*
X30349990Y33025000D01*
X28800000Y33015000D02*
X30339990Y33015000D01*
%TO.N,/RXEN*%
X27625000Y34300000D02*
X28785000Y34300000D01*
%TO.N,/TXEN*%
X29894979Y35555000D02*
X29899979Y35550000D01*
X28800000Y35555000D02*
X29894979Y35555000D01*
%TD*%
%TA.AperFunction,Conductor*%
%TO.N,GND*%
G36*
X40205192Y49981093D02*
G01*
X40241156Y49931593D01*
X40246001Y49901002D01*
X40246000Y45185183D01*
X40246000Y40561156D01*
X40243730Y40540077D01*
X40241501Y40529848D01*
X40241085Y40507000D01*
X40238848Y40384180D01*
X40237856Y40371894D01*
X40204019Y40136549D01*
X40201017Y40122747D01*
X40139758Y39914115D01*
X40134946Y39897728D01*
X40130011Y39884497D01*
X40077517Y39769552D01*
X40032595Y39671188D01*
X40025827Y39658792D01*
X39954445Y39547719D01*
X39899048Y39461520D01*
X39890585Y39450213D01*
X39737004Y39272969D01*
X39727027Y39262993D01*
X39598036Y39151221D01*
X39549799Y39109424D01*
X39538491Y39100959D01*
X39341208Y38974174D01*
X39328822Y38967410D01*
X39115499Y38869988D01*
X39102275Y38865056D01*
X38877258Y38798984D01*
X38863455Y38795982D01*
X38628106Y38762144D01*
X38615820Y38761152D01*
X38556945Y38760080D01*
X38470152Y38758499D01*
X38459924Y38756270D01*
X38438844Y38754000D01*
X38309324Y38754000D01*
X38291782Y38755567D01*
X38289949Y38755897D01*
X38270415Y38759414D01*
X38265563Y38759326D01*
X38265558Y38759326D01*
X38114248Y38756570D01*
X38107148Y38756696D01*
X38100026Y38757078D01*
X38100019Y38757078D01*
X38095163Y38757338D01*
X38090349Y38756646D01*
X38086762Y38756486D01*
X38085694Y38756400D01*
X38082153Y38755986D01*
X38077295Y38755897D01*
X38072543Y38754861D01*
X38072539Y38754861D01*
X38065550Y38753338D01*
X38058562Y38752076D01*
X37795629Y38714272D01*
X37790363Y38713658D01*
X37787831Y38713431D01*
X37775486Y38712327D01*
X37770822Y38710957D01*
X37769112Y38710633D01*
X37767407Y38710214D01*
X37762599Y38709523D01*
X37758019Y38707907D01*
X37758010Y38707905D01*
X37748530Y38704560D01*
X37743500Y38702935D01*
X37648361Y38674999D01*
X37485134Y38627071D01*
X37480011Y38625715D01*
X37470206Y38623398D01*
X37470198Y38623395D01*
X37465470Y38622278D01*
X37461045Y38620257D01*
X37459384Y38619688D01*
X37457768Y38619036D01*
X37453112Y38617668D01*
X37439856Y38610734D01*
X37435175Y38608443D01*
X37190192Y38496563D01*
X37185337Y38494501D01*
X37175954Y38490809D01*
X37175949Y38490807D01*
X37171424Y38489026D01*
X37167336Y38486399D01*
X37165788Y38485607D01*
X37164267Y38484723D01*
X37159847Y38482704D01*
X37155908Y38479863D01*
X37155902Y38479860D01*
X37147735Y38473970D01*
X37143352Y38470985D01*
X36916849Y38325422D01*
X36912320Y38322679D01*
X36903560Y38317690D01*
X36899333Y38315283D01*
X36895660Y38312100D01*
X36894255Y38311106D01*
X36892872Y38310012D01*
X36888775Y38307379D01*
X36885274Y38304000D01*
X36885272Y38303999D01*
X36878031Y38297012D01*
X36874120Y38293436D01*
X36769764Y38203011D01*
X36670628Y38117109D01*
X36666541Y38113755D01*
X36658580Y38107571D01*
X36658579Y38107570D01*
X36654738Y38104586D01*
X36651552Y38100909D01*
X36650298Y38099720D01*
X36649091Y38098447D01*
X36645413Y38095260D01*
X36636248Y38083462D01*
X36632913Y38079398D01*
X36473320Y37895217D01*
X36456572Y37875889D01*
X36452997Y37871980D01*
X36446002Y37864730D01*
X36445999Y37864726D01*
X36442621Y37861225D01*
X36439989Y37857129D01*
X36438915Y37855771D01*
X36437907Y37854347D01*
X36434717Y37850666D01*
X36427334Y37837700D01*
X36424589Y37833167D01*
X36279016Y37606648D01*
X36276043Y37602282D01*
X36267296Y37590153D01*
X36265270Y37585716D01*
X36264393Y37584208D01*
X36263607Y37582672D01*
X36260974Y37578575D01*
X36255512Y37564692D01*
X36253441Y37559816D01*
X36141583Y37314880D01*
X36139251Y37310116D01*
X36132331Y37296888D01*
X36130961Y37292223D01*
X36130315Y37290622D01*
X36129744Y37288958D01*
X36127722Y37284530D01*
X36126604Y37279799D01*
X36124289Y37270004D01*
X36122936Y37264892D01*
X36086132Y37139549D01*
X36047071Y37006520D01*
X36045443Y37001478D01*
X36040477Y36987401D01*
X36039784Y36982586D01*
X36039365Y36980879D01*
X36039042Y36979177D01*
X36037673Y36974513D01*
X36037240Y36969674D01*
X36036340Y36959622D01*
X36035726Y36954361D01*
X35997925Y36691437D01*
X35996667Y36684469D01*
X35994103Y36672705D01*
X35994014Y36667848D01*
X35993602Y36664322D01*
X35993514Y36663239D01*
X35993354Y36659649D01*
X35992662Y36654836D01*
X35992922Y36649980D01*
X35992922Y36649972D01*
X35993304Y36642851D01*
X35993430Y36635751D01*
X35991160Y36511081D01*
X35990586Y36479585D01*
X35993833Y36461548D01*
X35994434Y36458212D01*
X35996001Y36440670D01*
X35996000Y19309324D01*
X35994433Y19291783D01*
X35990586Y19270415D01*
X35990674Y19265563D01*
X35990674Y19265558D01*
X35993430Y19114249D01*
X35993304Y19107149D01*
X35992922Y19100028D01*
X35992922Y19100020D01*
X35992662Y19095164D01*
X35993354Y19090351D01*
X35993514Y19086761D01*
X35993602Y19085678D01*
X35994014Y19082152D01*
X35994103Y19077295D01*
X35996663Y19065550D01*
X35997923Y19058572D01*
X36012780Y18955236D01*
X36035726Y18795639D01*
X36036340Y18790378D01*
X36037673Y18775487D01*
X36039042Y18770823D01*
X36039365Y18769121D01*
X36039784Y18767414D01*
X36040477Y18762599D01*
X36042093Y18758019D01*
X36042093Y18758018D01*
X36045443Y18748522D01*
X36047071Y18743480D01*
X36122933Y18485118D01*
X36124285Y18480011D01*
X36127722Y18465470D01*
X36129744Y18461042D01*
X36130315Y18459378D01*
X36130961Y18457777D01*
X36132331Y18453112D01*
X36134585Y18448804D01*
X36139251Y18439884D01*
X36141583Y18435120D01*
X36253441Y18190184D01*
X36255500Y18185337D01*
X36260974Y18171425D01*
X36263607Y18167328D01*
X36264393Y18165792D01*
X36265270Y18164284D01*
X36267296Y18159847D01*
X36276031Y18147735D01*
X36279016Y18143352D01*
X36424589Y17916833D01*
X36427322Y17912320D01*
X36434717Y17899334D01*
X36437907Y17895653D01*
X36438915Y17894229D01*
X36439989Y17892871D01*
X36442621Y17888775D01*
X36445999Y17885274D01*
X36446002Y17885270D01*
X36452997Y17878020D01*
X36456564Y17874120D01*
X36632913Y17670602D01*
X36636246Y17666541D01*
X36645413Y17654740D01*
X36649091Y17651553D01*
X36650298Y17650280D01*
X36651552Y17649091D01*
X36654738Y17645414D01*
X36658578Y17642431D01*
X36658580Y17642429D01*
X36666541Y17636245D01*
X36670628Y17632891D01*
X36731257Y17580356D01*
X36874120Y17456564D01*
X36878031Y17452988D01*
X36885271Y17446002D01*
X36888775Y17442621D01*
X36892872Y17439988D01*
X36894255Y17438894D01*
X36895660Y17437900D01*
X36899333Y17434717D01*
X36903558Y17432311D01*
X36912320Y17427321D01*
X36916849Y17424578D01*
X37143352Y17279015D01*
X37147735Y17276030D01*
X37155902Y17270140D01*
X37155908Y17270137D01*
X37159847Y17267296D01*
X37164267Y17265277D01*
X37165788Y17264393D01*
X37167336Y17263601D01*
X37171424Y17260974D01*
X37175949Y17259193D01*
X37175954Y17259191D01*
X37185337Y17255499D01*
X37190184Y17253441D01*
X37435175Y17141557D01*
X37439856Y17139266D01*
X37453112Y17132332D01*
X37457768Y17130964D01*
X37459384Y17130312D01*
X37461045Y17129743D01*
X37465470Y17127722D01*
X37470198Y17126605D01*
X37470206Y17126602D01*
X37480011Y17124285D01*
X37485134Y17122929D01*
X37598124Y17089752D01*
X37743500Y17047065D01*
X37748530Y17045440D01*
X37758010Y17042095D01*
X37758019Y17042093D01*
X37762599Y17040477D01*
X37767407Y17039786D01*
X37769112Y17039367D01*
X37770822Y17039043D01*
X37775486Y17037673D01*
X37787831Y17036569D01*
X37790363Y17036342D01*
X37795629Y17035728D01*
X38058562Y16997924D01*
X38065550Y16996662D01*
X38072539Y16995139D01*
X38072543Y16995139D01*
X38077295Y16994103D01*
X38082153Y16994014D01*
X38085694Y16993600D01*
X38086762Y16993514D01*
X38090349Y16993354D01*
X38095163Y16992662D01*
X38100019Y16992922D01*
X38100026Y16992922D01*
X38107148Y16993304D01*
X38114248Y16993430D01*
X38265558Y16990674D01*
X38265563Y16990674D01*
X38270415Y16990586D01*
X38291783Y16994433D01*
X38309324Y16996000D01*
X38438844Y16996000D01*
X38459923Y16993730D01*
X38470152Y16991501D01*
X38556945Y16989920D01*
X38615820Y16988848D01*
X38628106Y16987856D01*
X38863455Y16954018D01*
X38877258Y16951016D01*
X39102275Y16884944D01*
X39115499Y16880012D01*
X39328822Y16782590D01*
X39341208Y16775826D01*
X39538491Y16649041D01*
X39549799Y16640576D01*
X39569079Y16623870D01*
X39727027Y16487007D01*
X39737004Y16477031D01*
X39879816Y16312215D01*
X39890584Y16299788D01*
X39899047Y16288481D01*
X39998326Y16134000D01*
X40025826Y16091209D01*
X40032595Y16078812D01*
X40128162Y15869552D01*
X40130009Y15865507D01*
X40134945Y15852276D01*
X40180301Y15697806D01*
X40201017Y15627253D01*
X40204019Y15613451D01*
X40237856Y15378106D01*
X40238848Y15365820D01*
X40239449Y15332835D01*
X40241501Y15220152D01*
X40243730Y15209924D01*
X40243731Y15209920D01*
X40246001Y15188840D01*
X40246000Y2061156D01*
X40243730Y2040077D01*
X40241501Y2029848D01*
X40240354Y1966880D01*
X40238848Y1884180D01*
X40237856Y1871894D01*
X40204019Y1636549D01*
X40201017Y1622747D01*
X40139943Y1414745D01*
X40134946Y1397728D01*
X40130011Y1384497D01*
X40047174Y1203112D01*
X40032595Y1171188D01*
X40025826Y1158791D01*
X39899048Y961520D01*
X39890585Y950213D01*
X39737004Y772969D01*
X39727027Y762993D01*
X39598036Y651221D01*
X39549799Y609424D01*
X39538491Y600959D01*
X39341208Y474174D01*
X39328822Y467410D01*
X39115499Y369988D01*
X39102275Y365056D01*
X38877258Y298984D01*
X38863455Y295982D01*
X38628106Y262144D01*
X38615820Y261152D01*
X38556945Y260080D01*
X38470152Y258499D01*
X38459924Y256270D01*
X38438844Y254000D01*
X2061156Y254000D01*
X2040076Y256270D01*
X2029848Y258499D01*
X1943055Y260080D01*
X1884180Y261152D01*
X1871894Y262144D01*
X1636549Y295981D01*
X1622747Y298983D01*
X1622744Y298984D01*
X1397724Y365055D01*
X1384497Y369989D01*
X1171188Y467405D01*
X1158791Y474174D01*
X961520Y600952D01*
X950212Y609416D01*
X930923Y626130D01*
X772969Y762996D01*
X762991Y772975D01*
X609424Y950201D01*
X600959Y961509D01*
X474174Y1158792D01*
X467405Y1171188D01*
X369988Y1384501D01*
X365056Y1397725D01*
X298984Y1622742D01*
X295982Y1636545D01*
X262144Y1871894D01*
X261152Y1884180D01*
X259646Y1966880D01*
X258499Y2029848D01*
X256270Y2040077D01*
X254000Y2061156D01*
X254000Y2415670D01*
X642914Y2415670D01*
X674539Y2148472D01*
X675469Y2145013D01*
X675470Y2145008D01*
X703685Y2040076D01*
X744404Y1888637D01*
X745826Y1885344D01*
X745827Y1885340D01*
X777453Y1812082D01*
X851047Y1641609D01*
X992232Y1412564D01*
X994531Y1409819D01*
X994532Y1409818D01*
X1147984Y1226617D01*
X1165003Y1206298D01*
X1204341Y1171188D01*
X1354263Y1037378D01*
X1365740Y1027134D01*
X1590238Y878823D01*
X1593476Y877303D01*
X1593481Y877300D01*
X1610195Y869453D01*
X1833794Y764474D01*
X2091306Y686481D01*
X2224342Y666480D01*
X2353839Y647011D01*
X2353842Y647011D01*
X2357379Y646479D01*
X2360955Y646463D01*
X2360960Y646463D01*
X2503515Y645841D01*
X2626440Y645305D01*
X2709408Y657039D01*
X2889293Y682480D01*
X2889300Y682481D01*
X2892853Y682984D01*
X2896292Y683993D01*
X2896297Y683994D01*
X3147598Y757717D01*
X3147603Y757719D01*
X3151036Y758726D01*
X3154292Y760220D01*
X3154297Y760222D01*
X3309379Y831389D01*
X3395580Y870946D01*
X3433608Y895594D01*
X3618363Y1015346D01*
X3621364Y1017291D01*
X3823656Y1194697D01*
X3986549Y1385758D01*
X3995897Y1396722D01*
X3995898Y1396723D01*
X3998221Y1399448D01*
X4006465Y1412564D01*
X4139493Y1624217D01*
X4139496Y1624223D01*
X4141400Y1627252D01*
X4145509Y1636545D01*
X4237737Y1845163D01*
X4250194Y1873340D01*
X4259488Y1906738D01*
X4321362Y2129096D01*
X4321363Y2129103D01*
X4322324Y2132555D01*
X4339690Y2269063D01*
X4355968Y2397012D01*
X4355968Y2397018D01*
X4356280Y2399467D01*
X4356622Y2412112D01*
X4358934Y2497547D01*
X4358934Y2497554D01*
X4359000Y2500000D01*
X4339528Y2768358D01*
X4325799Y2830546D01*
X4298733Y2953138D01*
X4281522Y3031095D01*
X4264613Y3075727D01*
X4220855Y3191222D01*
X4186195Y3282706D01*
X4106333Y3426484D01*
X4057289Y3514781D01*
X4057286Y3514785D01*
X4055545Y3517920D01*
X4042194Y3535415D01*
X3894485Y3728960D01*
X3894484Y3728962D01*
X3892309Y3731811D01*
X3699906Y3919897D01*
X3609373Y3985794D01*
X31571228Y3985794D01*
X31571718Y3982695D01*
X31573655Y3980243D01*
X31603615Y3954744D01*
X31611527Y3949245D01*
X31777020Y3856755D01*
X31785842Y3852900D01*
X31966150Y3794314D01*
X31975563Y3792245D01*
X32163816Y3769797D01*
X32173443Y3769595D01*
X32362467Y3784140D01*
X32371958Y3785813D01*
X32554558Y3836796D01*
X32563537Y3840278D01*
X32732758Y3925758D01*
X32740893Y3930921D01*
X32800720Y3977664D01*
X32808179Y3988722D01*
X32808108Y3990751D01*
X32805412Y3994983D01*
X32201086Y4599309D01*
X32197080Y4601350D01*
X32173194Y4593589D01*
X31577282Y3997677D01*
X31571228Y3985794D01*
X3609373Y3985794D01*
X3482367Y4078238D01*
X3244249Y4203518D01*
X2990540Y4293112D01*
X2985121Y4294180D01*
X2730072Y4344450D01*
X2730069Y4344450D01*
X2726555Y4345143D01*
X2722982Y4345321D01*
X2722981Y4345321D01*
X2592190Y4351832D01*
X2457824Y4358522D01*
X2454262Y4358182D01*
X2454255Y4358182D01*
X2193547Y4333308D01*
X2193542Y4333307D01*
X2189977Y4332967D01*
X1928624Y4269014D01*
X1679241Y4168003D01*
X1676148Y4166192D01*
X1676146Y4166191D01*
X1528778Y4079904D01*
X1447051Y4032051D01*
X1236919Y3864004D01*
X1053246Y3667383D01*
X899881Y3446308D01*
X898286Y3443103D01*
X898283Y3443097D01*
X781634Y3208624D01*
X780035Y3205409D01*
X778917Y3201998D01*
X778916Y3201996D01*
X705971Y2979477D01*
X696220Y2949733D01*
X650192Y2684635D01*
X642914Y2415670D01*
X254000Y2415670D01*
X254000Y5584758D01*
X5196000Y5584758D01*
X5196000Y5181672D01*
X5196359Y5175716D01*
X5210027Y5062766D01*
X5212852Y5051265D01*
X5266727Y4908691D01*
X5272217Y4898189D01*
X5358544Y4772581D01*
X5366380Y4763694D01*
X5480179Y4662302D01*
X5489903Y4655543D01*
X5624600Y4584225D01*
X5635669Y4579976D01*
X5732791Y4555581D01*
X5745329Y4556436D01*
X5748000Y4565718D01*
X5748000Y4567829D01*
X6001999Y4567829D01*
X6005935Y4555714D01*
X6015314Y4555346D01*
X6107620Y4577506D01*
X6118726Y4581637D01*
X6254158Y4651538D01*
X6263962Y4658201D01*
X6378816Y4758394D01*
X6386740Y4767194D01*
X6474381Y4891894D01*
X6479979Y4902333D01*
X6494743Y4940203D01*
X7774988Y4940203D01*
X7782480Y4932513D01*
X7894799Y4871529D01*
X7905816Y4867167D01*
X8052070Y4828798D01*
X8063820Y4827188D01*
X8215011Y4824814D01*
X8226791Y4826052D01*
X8374181Y4859808D01*
X8385338Y4863825D01*
X8520417Y4931763D01*
X8521480Y4932469D01*
X8526298Y4940332D01*
X8526048Y4943508D01*
X8524360Y4946035D01*
X8161086Y5309309D01*
X8157080Y5311350D01*
X8133194Y5303589D01*
X7780369Y4950764D01*
X7774988Y4940203D01*
X6494743Y4940203D01*
X6535345Y5044341D01*
X6538290Y5055810D01*
X6553577Y5171932D01*
X6554000Y5178387D01*
X6554000Y5501173D01*
X7471692Y5501173D01*
X7488285Y5350884D01*
X7490992Y5339343D01*
X7542956Y5197344D01*
X7548336Y5186787D01*
X7583334Y5134703D01*
X7593832Y5126471D01*
X7593949Y5126467D01*
X7601016Y5130621D01*
X7959309Y5488914D01*
X7961350Y5492920D01*
X7953589Y5516806D01*
X7603104Y5867291D01*
X7591221Y5873345D01*
X7590552Y5873239D01*
X7585054Y5868469D01*
X7555030Y5825749D01*
X7549425Y5815297D01*
X7494500Y5674421D01*
X7491553Y5662944D01*
X7471817Y5513031D01*
X7471692Y5501173D01*
X6554000Y5501173D01*
X6554000Y5577320D01*
X6552610Y5581598D01*
X6530232Y5593000D01*
X6017680Y5593001D01*
X6004995Y5588879D01*
X6002000Y5584758D01*
X6001999Y4567829D01*
X5748000Y4567829D01*
X5748001Y5577320D01*
X5746611Y5581598D01*
X5724233Y5593000D01*
X5211680Y5593001D01*
X5198995Y5588879D01*
X5196000Y5584758D01*
X254000Y5584758D01*
X254000Y6261613D01*
X5196001Y6261613D01*
X5196001Y5862680D01*
X5197391Y5858402D01*
X5219769Y5847000D01*
X5732320Y5846999D01*
X5745005Y5851121D01*
X5748000Y5855242D01*
X5748000Y5862680D01*
X6001999Y5862680D01*
X6003389Y5858402D01*
X6025767Y5847000D01*
X6538320Y5846999D01*
X6551005Y5851121D01*
X6554000Y5855242D01*
X6554000Y6258329D01*
X6553641Y6264285D01*
X6539973Y6377235D01*
X6537148Y6388736D01*
X6483273Y6531310D01*
X6477783Y6541812D01*
X6391456Y6667420D01*
X6383620Y6676307D01*
X6269821Y6777698D01*
X6260097Y6784457D01*
X6125400Y6855775D01*
X6114331Y6860024D01*
X6017209Y6884419D01*
X6004671Y6883564D01*
X6002000Y6874282D01*
X6001999Y5862680D01*
X5748000Y5862680D01*
X5748001Y6872171D01*
X5744065Y6884286D01*
X5734686Y6884654D01*
X5642380Y6862494D01*
X5631274Y6858363D01*
X5495842Y6788462D01*
X5486038Y6781799D01*
X5371185Y6681606D01*
X5363261Y6672806D01*
X5275620Y6548106D01*
X5270022Y6537667D01*
X5214656Y6395659D01*
X5211711Y6384190D01*
X5196424Y6268068D01*
X5196001Y6261613D01*
X254000Y6261613D01*
X254000Y12087561D01*
X5645741Y12087561D01*
X5646619Y12082939D01*
X5646619Y12082934D01*
X5665535Y11983304D01*
X5685034Y11880599D01*
X5762754Y11684801D01*
X5771805Y11670621D01*
X5873558Y11511206D01*
X5873562Y11511201D01*
X5876096Y11507231D01*
X5902545Y11479311D01*
X5995323Y11381373D01*
X6020971Y11354298D01*
X6024796Y11351555D01*
X6024800Y11351551D01*
X6188325Y11234263D01*
X6192151Y11231519D01*
X6270871Y11195229D01*
X6366608Y11151094D01*
X6383460Y11143325D01*
X6388027Y11142199D01*
X6388030Y11142198D01*
X6444080Y11128379D01*
X6587994Y11092897D01*
X6672415Y11088547D01*
X6793669Y11082298D01*
X6793674Y11082298D01*
X6798374Y11082056D01*
X6803035Y11082707D01*
X6803038Y11082707D01*
X7002341Y11110540D01*
X7002344Y11110541D01*
X7007008Y11111192D01*
X7011470Y11112715D01*
X7011473Y11112716D01*
X7201909Y11177731D01*
X7201912Y11177732D01*
X7206369Y11179254D01*
X7389263Y11283786D01*
X7549091Y11421017D01*
X7680086Y11585995D01*
X7682265Y11590172D01*
X7682426Y11590420D01*
X7729977Y11628925D01*
X7765454Y11635500D01*
X8330534Y11635500D01*
X8334679Y11635413D01*
X8392653Y11632983D01*
X8436588Y11643288D01*
X8445757Y11644988D01*
X8453192Y11646006D01*
X8483776Y11650195D01*
X8483778Y11650196D01*
X8490461Y11651111D01*
X8496650Y11653789D01*
X8496657Y11653791D01*
X8506640Y11658111D01*
X8523348Y11663637D01*
X8533933Y11666120D01*
X8540507Y11667662D01*
X8580050Y11689401D01*
X8588421Y11693502D01*
X8623644Y11708744D01*
X8623647Y11708746D01*
X8629836Y11711424D01*
X8643535Y11722517D01*
X8658143Y11732333D01*
X8669044Y11738326D01*
X8673588Y11740824D01*
X8677509Y11744208D01*
X8677514Y11744212D01*
X8682566Y11748574D01*
X8683945Y11749764D01*
X8709071Y11774890D01*
X8716772Y11781823D01*
X8742613Y11802749D01*
X8747858Y11806996D01*
X8759451Y11823308D01*
X8770143Y11835961D01*
X9684182Y12750000D01*
X10041000Y12750000D01*
X10041000Y11750000D01*
X10060715Y11650885D01*
X10116859Y11566859D01*
X10124969Y11561440D01*
X10133977Y11555421D01*
X10200885Y11510715D01*
X10300000Y11491000D01*
X11300000Y11491000D01*
X11399115Y11510715D01*
X11466023Y11555421D01*
X11475031Y11561440D01*
X11483141Y11566859D01*
X11539285Y11650885D01*
X11559000Y11750000D01*
X11559000Y12750000D01*
X11539285Y12849115D01*
X11483141Y12933141D01*
X11475031Y12938560D01*
X11471484Y12942107D01*
X11443707Y12996624D01*
X11445598Y13036729D01*
X11446489Y13040200D01*
X11448781Y13045989D01*
X11469500Y13210000D01*
X11448781Y13374011D01*
X11387924Y13527717D01*
X11332307Y13604267D01*
X11294414Y13656423D01*
X11294413Y13656424D01*
X11290755Y13661459D01*
X11285960Y13665425D01*
X11285958Y13665428D01*
X11227710Y13713614D01*
X11163378Y13766834D01*
X11157745Y13769485D01*
X11157743Y13769486D01*
X11064555Y13813337D01*
X11013797Y13837222D01*
X10851410Y13868199D01*
X10780145Y13863715D01*
X10692632Y13858209D01*
X10692630Y13858209D01*
X10686422Y13857818D01*
X10626626Y13838389D01*
X10535119Y13808657D01*
X10535116Y13808655D01*
X10529199Y13806733D01*
X10523946Y13803400D01*
X10523943Y13803398D01*
X10478034Y13774263D01*
X10389619Y13718153D01*
X10385359Y13713616D01*
X10385356Y13713614D01*
X10289938Y13612004D01*
X10276453Y13597644D01*
X10196812Y13452778D01*
X10155700Y13292657D01*
X10155700Y13127343D01*
X10175125Y13051688D01*
X10171283Y12990624D01*
X10134237Y12944753D01*
X10124970Y12938561D01*
X10124969Y12938560D01*
X10116859Y12933141D01*
X10060715Y12849115D01*
X10041000Y12750000D01*
X9684182Y12750000D01*
X9685402Y12751220D01*
X9688395Y12754090D01*
X9701681Y12766307D01*
X9731102Y12793361D01*
X9737293Y12803345D01*
X9754878Y12831707D01*
X9760160Y12839393D01*
X9783364Y12869964D01*
X9787444Y12875339D01*
X9793932Y12891728D01*
X9801840Y12907450D01*
X9811129Y12922431D01*
X9823721Y12965772D01*
X9826738Y12974584D01*
X9843349Y13016540D01*
X9845191Y13034065D01*
X9848580Y13051338D01*
X9852052Y13063287D01*
X9852053Y13063294D01*
X9853498Y13068267D01*
X9854500Y13081912D01*
X9854500Y13117446D01*
X9855042Y13127794D01*
X9858518Y13160866D01*
X9859223Y13167574D01*
X9855886Y13187304D01*
X9854500Y13203814D01*
X9854500Y16279311D01*
X9883496Y16349315D01*
X13250685Y19716504D01*
X13320689Y19745500D01*
X26879311Y19745500D01*
X26949315Y19716504D01*
X27342864Y19322955D01*
X27368749Y19277572D01*
X27386812Y19207222D01*
X27389813Y19201762D01*
X27389814Y19201761D01*
X27433254Y19122743D01*
X27445500Y19075050D01*
X27445501Y16190540D01*
X27445501Y14432230D01*
X27426594Y14374039D01*
X27377094Y14338075D01*
X27315908Y14338075D01*
X27273803Y14365029D01*
X27192324Y14453172D01*
X27187299Y14458608D01*
X27088191Y14516174D01*
X27075551Y14523516D01*
X27075550Y14523516D01*
X27069153Y14527232D01*
X26936052Y14558084D01*
X26857575Y14552527D01*
X26807147Y14548957D01*
X26807146Y14548957D01*
X26799763Y14548434D01*
X26672337Y14499136D01*
X26671526Y14501232D01*
X26622146Y14491001D01*
X26566379Y14516174D01*
X26534000Y14589404D01*
X26534000Y14950000D01*
X26514285Y15049115D01*
X26517198Y15049694D01*
X26517198Y15100306D01*
X26514285Y15100885D01*
X26517934Y15119232D01*
X26534000Y15200000D01*
X26534000Y15600000D01*
X26514285Y15699115D01*
X26458141Y15783141D01*
X26374115Y15839285D01*
X26275000Y15859000D01*
X25625000Y15859000D01*
X25525885Y15839285D01*
X25517779Y15833869D01*
X25517777Y15833868D01*
X25465172Y15798718D01*
X25405507Y15782143D01*
X25401108Y15782351D01*
X25393112Y15784072D01*
X25384991Y15783111D01*
X25384988Y15783111D01*
X25360279Y15780186D01*
X25350034Y15779582D01*
X25349042Y15779500D01*
X25344960Y15779500D01*
X25340936Y15778830D01*
X25340933Y15778830D01*
X25334728Y15777797D01*
X25323819Y15775981D01*
X25319226Y15775327D01*
X25267727Y15769232D01*
X25260852Y15765931D01*
X25257980Y15765023D01*
X25250454Y15763770D01*
X25243250Y15759883D01*
X25204821Y15739148D01*
X25200665Y15737030D01*
X25159526Y15717276D01*
X25159524Y15717275D01*
X25153910Y15714579D01*
X25147477Y15709171D01*
X25146044Y15707738D01*
X25145044Y15706894D01*
X25139337Y15703815D01*
X25125330Y15688662D01*
X25106624Y15668426D01*
X25103930Y15665624D01*
X24873007Y15434700D01*
X24803004Y15364697D01*
X24748487Y15336919D01*
X24688055Y15346490D01*
X24644790Y15389755D01*
X24634000Y15434700D01*
X24634000Y15600000D01*
X24614285Y15699115D01*
X24558141Y15783141D01*
X24474115Y15839285D01*
X24375000Y15859000D01*
X23725000Y15859000D01*
X23711939Y15856402D01*
X23692625Y15854500D01*
X23477996Y15854500D01*
X23428272Y15867893D01*
X23375551Y15898516D01*
X23375550Y15898517D01*
X23369153Y15902232D01*
X23236052Y15933084D01*
X23157575Y15927527D01*
X23107147Y15923957D01*
X23107146Y15923957D01*
X23099763Y15923434D01*
X22972337Y15874136D01*
X22966523Y15869552D01*
X22966522Y15869552D01*
X22870852Y15794132D01*
X22870851Y15794130D01*
X22865039Y15789549D01*
X22860832Y15783462D01*
X22860831Y15783461D01*
X22807984Y15706998D01*
X22787356Y15677152D01*
X22746157Y15546882D01*
X22746099Y15539483D01*
X22745170Y15421154D01*
X22745084Y15410256D01*
X22747204Y15403167D01*
X22778473Y15298612D01*
X22784232Y15279354D01*
X22788344Y15273200D01*
X22789543Y15270652D01*
X22797211Y15209949D01*
X22767735Y15156332D01*
X22699965Y15129500D01*
X22299883Y15129500D01*
X22279047Y15131718D01*
X22277461Y15132059D01*
X22268112Y15134072D01*
X22235605Y15130225D01*
X22235279Y15130186D01*
X22225034Y15129582D01*
X22224042Y15129500D01*
X22219960Y15129500D01*
X22215936Y15128830D01*
X22215933Y15128830D01*
X22209728Y15127797D01*
X22198819Y15125981D01*
X22194226Y15125327D01*
X22142727Y15119232D01*
X22135854Y15115932D01*
X22132982Y15115023D01*
X22125454Y15113770D01*
X22118255Y15109886D01*
X22118256Y15109886D01*
X22079803Y15089138D01*
X22075646Y15087020D01*
X22034526Y15067275D01*
X22034524Y15067274D01*
X22028910Y15064578D01*
X22024145Y15060573D01*
X22024142Y15060571D01*
X22024105Y15060540D01*
X22024097Y15060532D01*
X22022477Y15059171D01*
X22021041Y15057735D01*
X22020045Y15056895D01*
X22014337Y15053815D01*
X22008785Y15047809D01*
X22008784Y15047808D01*
X21981636Y15018439D01*
X21978942Y15015636D01*
X21643633Y14680326D01*
X21453566Y14490259D01*
X21399049Y14462482D01*
X21338617Y14472053D01*
X21285781Y14544775D01*
X21281201Y14573694D01*
X21281200Y14573696D01*
X21279982Y14581388D01*
X21271186Y14598652D01*
X21225424Y14688465D01*
X21225423Y14688467D01*
X21221888Y14695404D01*
X21131404Y14785888D01*
X21124467Y14789423D01*
X21124465Y14789424D01*
X21024328Y14840446D01*
X21024327Y14840446D01*
X21017388Y14843982D01*
X21009693Y14845201D01*
X21007710Y14845845D01*
X20958209Y14881808D01*
X20939301Y14939998D01*
X20958207Y14998189D01*
X21007710Y15034155D01*
X21009693Y15034799D01*
X21017388Y15036018D01*
X21040527Y15047808D01*
X21124465Y15090576D01*
X21124467Y15090577D01*
X21131404Y15094112D01*
X21221888Y15184596D01*
X21227310Y15195236D01*
X21276446Y15291672D01*
X21276446Y15291673D01*
X21279982Y15298612D01*
X21285403Y15332835D01*
X21299391Y15421154D01*
X21299391Y15421156D01*
X21300000Y15425000D01*
X21300000Y15725000D01*
X21294475Y15759883D01*
X21281201Y15843693D01*
X21281201Y15843694D01*
X21279982Y15851388D01*
X21276446Y15858328D01*
X21225424Y15958465D01*
X21225423Y15958467D01*
X21221888Y15965404D01*
X21131404Y16055888D01*
X21124467Y16059423D01*
X21124465Y16059424D01*
X21024328Y16110446D01*
X21024327Y16110446D01*
X21017388Y16113982D01*
X21009693Y16115201D01*
X21007710Y16115845D01*
X20958209Y16151808D01*
X20939301Y16209998D01*
X20958207Y16268189D01*
X21007710Y16304155D01*
X21009693Y16304799D01*
X21017388Y16306018D01*
X21024328Y16309554D01*
X21124465Y16360576D01*
X21124467Y16360577D01*
X21131404Y16364112D01*
X21221888Y16454596D01*
X21238406Y16487013D01*
X21276446Y16561672D01*
X21276446Y16561673D01*
X21279982Y16568612D01*
X21281370Y16577372D01*
X21299391Y16691154D01*
X21299391Y16691156D01*
X21300000Y16695000D01*
X21300000Y16995000D01*
X21293490Y17036105D01*
X21281201Y17113693D01*
X21281201Y17113694D01*
X21279982Y17121388D01*
X21275435Y17130312D01*
X21225424Y17228465D01*
X21225423Y17228467D01*
X21221888Y17235404D01*
X21131404Y17325888D01*
X21124467Y17329423D01*
X21124465Y17329424D01*
X21024328Y17380446D01*
X21024327Y17380446D01*
X21017388Y17383982D01*
X21009694Y17385201D01*
X21009693Y17385201D01*
X20894846Y17403391D01*
X20894844Y17403391D01*
X20891000Y17404000D01*
X19241000Y17404000D01*
X19237156Y17403391D01*
X19237154Y17403391D01*
X19122307Y17385201D01*
X19122306Y17385201D01*
X19114612Y17383982D01*
X19107673Y17380446D01*
X19107672Y17380446D01*
X19007535Y17329424D01*
X19007533Y17329423D01*
X19000596Y17325888D01*
X18910112Y17235404D01*
X18906577Y17228467D01*
X18906576Y17228465D01*
X18856565Y17130312D01*
X18852018Y17121388D01*
X18850799Y17113694D01*
X18850799Y17113693D01*
X18838510Y17036105D01*
X18832000Y16995000D01*
X18832000Y16695000D01*
X18832609Y16691156D01*
X18832609Y16691154D01*
X18850631Y16577372D01*
X18852018Y16568612D01*
X18855554Y16561673D01*
X18855554Y16561672D01*
X18893595Y16487013D01*
X18910112Y16454596D01*
X19000596Y16364112D01*
X19007533Y16360577D01*
X19007535Y16360576D01*
X19107672Y16309554D01*
X19114612Y16306018D01*
X19122307Y16304799D01*
X19124290Y16304155D01*
X19173791Y16268192D01*
X19192699Y16210002D01*
X19173793Y16151811D01*
X19124290Y16115845D01*
X19122307Y16115201D01*
X19114612Y16113982D01*
X19107673Y16110446D01*
X19107672Y16110446D01*
X19007535Y16059424D01*
X19007533Y16059423D01*
X19000596Y16055888D01*
X18910112Y15965404D01*
X18906577Y15958467D01*
X18906576Y15958465D01*
X18855554Y15858328D01*
X18852018Y15851388D01*
X18850799Y15843694D01*
X18850799Y15843693D01*
X18837525Y15759883D01*
X18832000Y15725000D01*
X18832000Y15425000D01*
X18832609Y15421156D01*
X18832609Y15421154D01*
X18846598Y15332835D01*
X18852018Y15298612D01*
X18855554Y15291673D01*
X18855554Y15291672D01*
X18904691Y15195236D01*
X18910112Y15184596D01*
X19000596Y15094112D01*
X19007533Y15090577D01*
X19007535Y15090576D01*
X19091473Y15047808D01*
X19114612Y15036018D01*
X19122307Y15034799D01*
X19124290Y15034155D01*
X19173791Y14998192D01*
X19192699Y14940002D01*
X19173793Y14881811D01*
X19124290Y14845845D01*
X19122307Y14845201D01*
X19114612Y14843982D01*
X19107673Y14840446D01*
X19107672Y14840446D01*
X19007535Y14789424D01*
X19007533Y14789423D01*
X19000596Y14785888D01*
X18910112Y14695404D01*
X18906577Y14688467D01*
X18906576Y14688465D01*
X18860814Y14598652D01*
X18852018Y14581388D01*
X18850799Y14573694D01*
X18850799Y14573693D01*
X18835880Y14479500D01*
X18832000Y14455000D01*
X18832000Y14155000D01*
X18852018Y14028612D01*
X18855554Y14021673D01*
X18855554Y14021672D01*
X18884577Y13964712D01*
X18910112Y13914596D01*
X19000596Y13824112D01*
X19007533Y13820577D01*
X19007535Y13820576D01*
X19098430Y13774263D01*
X19114612Y13766018D01*
X19122307Y13764799D01*
X19124290Y13764155D01*
X19173791Y13728192D01*
X19192699Y13670002D01*
X19173793Y13611811D01*
X19124290Y13575845D01*
X19122307Y13575201D01*
X19114612Y13573982D01*
X19107673Y13570446D01*
X19107672Y13570446D01*
X19007535Y13519424D01*
X19007533Y13519423D01*
X19000596Y13515888D01*
X18910112Y13425404D01*
X18906577Y13418467D01*
X18906576Y13418465D01*
X18860895Y13328811D01*
X18852018Y13311388D01*
X18850799Y13303694D01*
X18850799Y13303693D01*
X18832795Y13190020D01*
X18832000Y13185000D01*
X18832000Y12885000D01*
X18832609Y12881156D01*
X18832609Y12881154D01*
X18849661Y12773496D01*
X18852018Y12758612D01*
X18855554Y12751673D01*
X18855554Y12751672D01*
X18902308Y12659913D01*
X18910112Y12644596D01*
X19000596Y12554112D01*
X19007533Y12550577D01*
X19007535Y12550576D01*
X19097037Y12504973D01*
X19114612Y12496018D01*
X19122307Y12494799D01*
X19124290Y12494155D01*
X19173791Y12458192D01*
X19192699Y12400002D01*
X19173793Y12341811D01*
X19124290Y12305845D01*
X19122307Y12305201D01*
X19114612Y12303982D01*
X19107673Y12300446D01*
X19107672Y12300446D01*
X19007535Y12249424D01*
X19007533Y12249423D01*
X19000596Y12245888D01*
X18910112Y12155404D01*
X18906577Y12148467D01*
X18906576Y12148465D01*
X18855554Y12048328D01*
X18852018Y12041388D01*
X18850799Y12033694D01*
X18850799Y12033693D01*
X18832609Y11918846D01*
X18832000Y11915000D01*
X18832000Y11615000D01*
X18832609Y11611156D01*
X18832609Y11611154D01*
X18850093Y11500768D01*
X18852018Y11488612D01*
X18855554Y11481673D01*
X18855554Y11481672D01*
X18905446Y11383754D01*
X18910112Y11374596D01*
X19000596Y11284112D01*
X19007533Y11280577D01*
X19007535Y11280576D01*
X19107672Y11229554D01*
X19114612Y11226018D01*
X19122307Y11224799D01*
X19124290Y11224155D01*
X19173791Y11188192D01*
X19192699Y11130002D01*
X19173793Y11071811D01*
X19124290Y11035845D01*
X19122307Y11035201D01*
X19114612Y11033982D01*
X19107673Y11030446D01*
X19107672Y11030446D01*
X19007535Y10979424D01*
X19007533Y10979423D01*
X19000596Y10975888D01*
X18910112Y10885404D01*
X18906577Y10878467D01*
X18906576Y10878465D01*
X18863278Y10793487D01*
X18852018Y10771388D01*
X18850799Y10763694D01*
X18850799Y10763693D01*
X18832609Y10648846D01*
X18832000Y10645000D01*
X18832000Y10345000D01*
X18832609Y10341156D01*
X18832609Y10341154D01*
X18850093Y10230768D01*
X18852018Y10218612D01*
X18855554Y10211673D01*
X18855554Y10211672D01*
X18858443Y10206003D01*
X18910112Y10104596D01*
X19000596Y10014112D01*
X19007533Y10010577D01*
X19007535Y10010576D01*
X19107672Y9959554D01*
X19114612Y9956018D01*
X19122307Y9954799D01*
X19124290Y9954155D01*
X19173791Y9918192D01*
X19192699Y9860002D01*
X19173793Y9801811D01*
X19124290Y9765845D01*
X19122307Y9765201D01*
X19114612Y9763982D01*
X19107673Y9760446D01*
X19107672Y9760446D01*
X19007535Y9709424D01*
X19007533Y9709423D01*
X19000596Y9705888D01*
X18910112Y9615404D01*
X18906577Y9608467D01*
X18906576Y9608465D01*
X18873797Y9544132D01*
X18852018Y9501388D01*
X18850799Y9493694D01*
X18850799Y9493693D01*
X18834906Y9393347D01*
X18832000Y9375000D01*
X18832000Y9237189D01*
X18813093Y9178998D01*
X18763593Y9143034D01*
X18702407Y9143034D01*
X18662996Y9167185D01*
X18183496Y9646685D01*
X18154500Y9716689D01*
X18154500Y10390534D01*
X18154587Y10394680D01*
X18157017Y10452653D01*
X18146712Y10496588D01*
X18145012Y10505759D01*
X18139805Y10543776D01*
X18139804Y10543778D01*
X18138889Y10550461D01*
X18136211Y10556650D01*
X18136209Y10556657D01*
X18131889Y10566640D01*
X18126363Y10583348D01*
X18124936Y10589432D01*
X18122338Y10600507D01*
X18100599Y10640050D01*
X18096498Y10648421D01*
X18081256Y10683644D01*
X18081254Y10683647D01*
X18078576Y10689836D01*
X18067483Y10703535D01*
X18057667Y10718143D01*
X18057335Y10718748D01*
X18049176Y10733588D01*
X18045792Y10737509D01*
X18045788Y10737514D01*
X18041426Y10742566D01*
X18040236Y10743945D01*
X18015110Y10769071D01*
X18008177Y10776772D01*
X17987252Y10802612D01*
X17987253Y10802612D01*
X17983004Y10807858D01*
X17966695Y10819448D01*
X17954039Y10830142D01*
X16633791Y12150390D01*
X16630921Y12153383D01*
X16602952Y12183799D01*
X16591639Y12196102D01*
X16553288Y12219881D01*
X16545602Y12225163D01*
X16515038Y12248362D01*
X16509660Y12252444D01*
X16493275Y12258931D01*
X16477556Y12266837D01*
X16468303Y12272574D01*
X16468301Y12272575D01*
X16462569Y12276129D01*
X16419225Y12288722D01*
X16410412Y12291739D01*
X16368459Y12308349D01*
X16350937Y12310190D01*
X16333663Y12313579D01*
X16327329Y12315419D01*
X16321718Y12317050D01*
X16321715Y12317051D01*
X16316733Y12318498D01*
X16307878Y12319148D01*
X16304889Y12319368D01*
X16304882Y12319368D01*
X16303088Y12319500D01*
X16267554Y12319500D01*
X16257206Y12320042D01*
X16224134Y12323518D01*
X16217426Y12324223D01*
X16197696Y12320886D01*
X16181186Y12319500D01*
X16133317Y12319500D01*
X16075126Y12338407D01*
X16039162Y12387907D01*
X16039162Y12449093D01*
X16088372Y12506710D01*
X16174465Y12550576D01*
X16174467Y12550577D01*
X16181404Y12554112D01*
X16271888Y12644596D01*
X16279693Y12659913D01*
X16326446Y12751672D01*
X16326446Y12751673D01*
X16329982Y12758612D01*
X16332340Y12773496D01*
X16349391Y12881154D01*
X16349391Y12881156D01*
X16350000Y12885000D01*
X16350000Y13185000D01*
X16349205Y13190020D01*
X16331201Y13303693D01*
X16331201Y13303694D01*
X16329982Y13311388D01*
X16321105Y13328811D01*
X16275424Y13418465D01*
X16275423Y13418467D01*
X16271888Y13425404D01*
X16181404Y13515888D01*
X16174467Y13519423D01*
X16174465Y13519424D01*
X16074328Y13570446D01*
X16074327Y13570446D01*
X16067388Y13573982D01*
X16059693Y13575201D01*
X16057710Y13575845D01*
X16008209Y13611808D01*
X15989301Y13669998D01*
X16008207Y13728189D01*
X16057710Y13764155D01*
X16059693Y13764799D01*
X16067388Y13766018D01*
X16083570Y13774263D01*
X16174465Y13820576D01*
X16174467Y13820577D01*
X16181404Y13824112D01*
X16271888Y13914596D01*
X16297424Y13964712D01*
X16326446Y14021672D01*
X16326446Y14021673D01*
X16329982Y14028612D01*
X16350000Y14155000D01*
X16350000Y14455000D01*
X16346120Y14479500D01*
X16331201Y14573693D01*
X16331201Y14573694D01*
X16329982Y14581388D01*
X16321186Y14598652D01*
X16275424Y14688465D01*
X16275423Y14688467D01*
X16271888Y14695404D01*
X16181404Y14785888D01*
X16174467Y14789423D01*
X16174465Y14789424D01*
X16074328Y14840446D01*
X16074327Y14840446D01*
X16067388Y14843982D01*
X16059693Y14845201D01*
X16057710Y14845845D01*
X16008209Y14881808D01*
X15989301Y14939998D01*
X16008207Y14998189D01*
X16057710Y15034155D01*
X16059693Y15034799D01*
X16067388Y15036018D01*
X16090527Y15047808D01*
X16174465Y15090576D01*
X16174467Y15090577D01*
X16181404Y15094112D01*
X16271888Y15184596D01*
X16277310Y15195236D01*
X16326446Y15291672D01*
X16326446Y15291673D01*
X16329982Y15298612D01*
X16335403Y15332835D01*
X16349391Y15421154D01*
X16349391Y15421156D01*
X16350000Y15425000D01*
X16350000Y15725000D01*
X16344475Y15759883D01*
X16331201Y15843693D01*
X16331201Y15843694D01*
X16329982Y15851388D01*
X16326446Y15858328D01*
X16275424Y15958465D01*
X16275423Y15958467D01*
X16271888Y15965404D01*
X16181404Y16055888D01*
X16174467Y16059423D01*
X16174465Y16059424D01*
X16074328Y16110446D01*
X16074327Y16110446D01*
X16067388Y16113982D01*
X16059693Y16115201D01*
X16057710Y16115845D01*
X16008209Y16151808D01*
X15989301Y16209998D01*
X16008207Y16268189D01*
X16057710Y16304155D01*
X16059693Y16304799D01*
X16067388Y16306018D01*
X16074328Y16309554D01*
X16174465Y16360576D01*
X16174467Y16360577D01*
X16181404Y16364112D01*
X16271888Y16454596D01*
X16288406Y16487013D01*
X16326446Y16561672D01*
X16326446Y16561673D01*
X16329982Y16568612D01*
X16331370Y16577372D01*
X16349391Y16691154D01*
X16349391Y16691156D01*
X16350000Y16695000D01*
X16350000Y16995000D01*
X16343490Y17036105D01*
X16331201Y17113693D01*
X16331201Y17113694D01*
X16329982Y17121388D01*
X16325435Y17130312D01*
X16275424Y17228465D01*
X16275423Y17228467D01*
X16271888Y17235404D01*
X16181404Y17325888D01*
X16174467Y17329423D01*
X16174465Y17329424D01*
X16074328Y17380446D01*
X16074327Y17380446D01*
X16067388Y17383982D01*
X16059694Y17385201D01*
X16059693Y17385201D01*
X15944846Y17403391D01*
X15944844Y17403391D01*
X15941000Y17404000D01*
X14291000Y17404000D01*
X14287156Y17403391D01*
X14287154Y17403391D01*
X14172307Y17385201D01*
X14172306Y17385201D01*
X14164612Y17383982D01*
X14157673Y17380446D01*
X14157672Y17380446D01*
X14057535Y17329424D01*
X14057533Y17329423D01*
X14050596Y17325888D01*
X13960112Y17235404D01*
X13956577Y17228467D01*
X13956576Y17228465D01*
X13906565Y17130312D01*
X13902018Y17121388D01*
X13900799Y17113694D01*
X13900799Y17113693D01*
X13888510Y17036105D01*
X13882000Y16995000D01*
X13882000Y16695000D01*
X13882609Y16691156D01*
X13882609Y16691154D01*
X13900631Y16577372D01*
X13902018Y16568612D01*
X13905554Y16561673D01*
X13905554Y16561672D01*
X13943595Y16487013D01*
X13960112Y16454596D01*
X14050596Y16364112D01*
X14057533Y16360577D01*
X14057535Y16360576D01*
X14157672Y16309554D01*
X14164612Y16306018D01*
X14172307Y16304799D01*
X14174290Y16304155D01*
X14223791Y16268192D01*
X14242699Y16210002D01*
X14223793Y16151811D01*
X14174290Y16115845D01*
X14172307Y16115201D01*
X14164612Y16113982D01*
X14157673Y16110446D01*
X14157672Y16110446D01*
X14057535Y16059424D01*
X14057533Y16059423D01*
X14050596Y16055888D01*
X13960112Y15965404D01*
X13956577Y15958467D01*
X13956576Y15958465D01*
X13905554Y15858328D01*
X13902018Y15851388D01*
X13900799Y15843694D01*
X13900799Y15843693D01*
X13887525Y15759883D01*
X13882000Y15725000D01*
X13882000Y15425000D01*
X13882609Y15421156D01*
X13882609Y15421154D01*
X13896598Y15332835D01*
X13902018Y15298612D01*
X13905554Y15291673D01*
X13905554Y15291672D01*
X13954691Y15195236D01*
X13960112Y15184596D01*
X14050596Y15094112D01*
X14057533Y15090577D01*
X14057535Y15090576D01*
X14141473Y15047808D01*
X14164612Y15036018D01*
X14172307Y15034799D01*
X14174290Y15034155D01*
X14223791Y14998192D01*
X14242699Y14940002D01*
X14223793Y14881811D01*
X14174290Y14845845D01*
X14172307Y14845201D01*
X14164612Y14843982D01*
X14157673Y14840446D01*
X14157672Y14840446D01*
X14057535Y14789424D01*
X14057533Y14789423D01*
X14050596Y14785888D01*
X13978204Y14713496D01*
X13908200Y14684500D01*
X13554887Y14684500D01*
X13534051Y14686717D01*
X13531108Y14687351D01*
X13531106Y14687351D01*
X13523112Y14689072D01*
X13514991Y14688111D01*
X13514989Y14688111D01*
X13490279Y14685186D01*
X13480034Y14684582D01*
X13479042Y14684500D01*
X13474960Y14684500D01*
X13470936Y14683830D01*
X13470933Y14683830D01*
X13464728Y14682797D01*
X13453819Y14680981D01*
X13449226Y14680327D01*
X13397727Y14674232D01*
X13390852Y14670931D01*
X13387980Y14670023D01*
X13380454Y14668770D01*
X13373250Y14664883D01*
X13334821Y14644148D01*
X13330665Y14642030D01*
X13289526Y14622276D01*
X13289524Y14622275D01*
X13283910Y14619579D01*
X13277477Y14614171D01*
X13276044Y14612738D01*
X13275044Y14611894D01*
X13269337Y14608815D01*
X13243984Y14581388D01*
X13236636Y14573439D01*
X13233942Y14570636D01*
X12041908Y13378601D01*
X12025607Y13365438D01*
X12016207Y13359368D01*
X12011143Y13352944D01*
X11995734Y13333398D01*
X11988932Y13325743D01*
X11988278Y13324971D01*
X11985392Y13322085D01*
X11972941Y13304661D01*
X11970154Y13300950D01*
X11943744Y13267448D01*
X11938040Y13260213D01*
X11935509Y13253006D01*
X11934128Y13250347D01*
X11929689Y13244136D01*
X11927344Y13236295D01*
X11927343Y13236293D01*
X11914832Y13194457D01*
X11913391Y13190023D01*
X11896205Y13141086D01*
X11895480Y13132714D01*
X11895480Y13130687D01*
X11895370Y13129381D01*
X11893512Y13123170D01*
X11893833Y13114995D01*
X11893833Y13114994D01*
X11895404Y13075016D01*
X11895480Y13071129D01*
X11895481Y10953828D01*
X11895481Y8873182D01*
X11866486Y8803180D01*
X11664740Y8601433D01*
X11616842Y8553535D01*
X11562325Y8525758D01*
X11501893Y8535329D01*
X11458628Y8578594D01*
X11448619Y8611132D01*
X11448555Y8611644D01*
X11438781Y8689011D01*
X11384261Y8826712D01*
X11380218Y8836924D01*
X11380217Y8836926D01*
X11377924Y8842717D01*
X11373406Y8848936D01*
X11373106Y8849860D01*
X11371263Y8853211D01*
X11371902Y8853563D01*
X11354500Y8907124D01*
X11354500Y8928144D01*
X11373407Y8986335D01*
X11400918Y9008017D01*
X11399115Y9010715D01*
X11475031Y9061440D01*
X11483141Y9066859D01*
X11539285Y9150885D01*
X11559000Y9250000D01*
X11559000Y10250000D01*
X11539285Y10349115D01*
X11500789Y10406729D01*
X11488560Y10425031D01*
X11483141Y10433141D01*
X11469012Y10442582D01*
X11436147Y10464541D01*
X11399115Y10489285D01*
X11300000Y10509000D01*
X10300000Y10509000D01*
X10200885Y10489285D01*
X10163853Y10464541D01*
X10130989Y10442582D01*
X10116859Y10433141D01*
X10111440Y10425031D01*
X10099211Y10406729D01*
X10060715Y10349115D01*
X10041000Y10250000D01*
X10041000Y9250000D01*
X10060715Y9150885D01*
X10116859Y9066859D01*
X10124969Y9061440D01*
X10200885Y9010715D01*
X10198672Y9007403D01*
X10230900Y8979890D01*
X10245500Y8928144D01*
X10245500Y8899950D01*
X10233254Y8852257D01*
X10219211Y8826712D01*
X10186812Y8767778D01*
X10145700Y8607657D01*
X10145700Y8442343D01*
X10186812Y8282222D01*
X10266453Y8137356D01*
X10270718Y8132814D01*
X10270719Y8132813D01*
X10375356Y8021386D01*
X10375359Y8021384D01*
X10379619Y8016847D01*
X10449409Y7972557D01*
X10513943Y7931602D01*
X10513946Y7931600D01*
X10519199Y7928267D01*
X10525116Y7926345D01*
X10525119Y7926343D01*
X10573738Y7910546D01*
X10676422Y7877182D01*
X10682630Y7876791D01*
X10682632Y7876791D01*
X10706030Y7875319D01*
X10762919Y7852794D01*
X10795703Y7801134D01*
X10791861Y7740069D01*
X10769817Y7706510D01*
X10264790Y7201483D01*
X10185104Y7174201D01*
X10185101Y7173646D01*
X10108092Y7174049D01*
X10027924Y7174469D01*
X10027922Y7174469D01*
X10021958Y7174500D01*
X9863320Y7136414D01*
X9718345Y7061588D01*
X9595405Y6954340D01*
X9591976Y6949461D01*
X9530827Y6862455D01*
X9481898Y6825719D01*
X9420720Y6824758D01*
X9368242Y6863306D01*
X9362149Y6872171D01*
X9309325Y6949031D01*
X9187515Y7057560D01*
X9179908Y7061588D01*
X9126171Y7090040D01*
X9043332Y7133901D01*
X8956893Y7155613D01*
X8890891Y7172192D01*
X8890888Y7172192D01*
X8885101Y7173646D01*
X8802679Y7174077D01*
X8727924Y7174469D01*
X8727922Y7174469D01*
X8721958Y7174500D01*
X8563320Y7136414D01*
X8418345Y7061588D01*
X8295405Y6954340D01*
X8201595Y6820862D01*
X8142332Y6668860D01*
X8141553Y6662945D01*
X8141553Y6662944D01*
X8138158Y6637154D01*
X8121037Y6507110D01*
X8121692Y6501177D01*
X8121692Y6501173D01*
X8126713Y6455695D01*
X8138940Y6344950D01*
X8148537Y6318725D01*
X8153158Y6306098D01*
X8155399Y6244954D01*
X8121273Y6194170D01*
X8071565Y6173733D01*
X8066157Y6173107D01*
X7919122Y6137807D01*
X7908016Y6133676D01*
X7776381Y6065735D01*
X7773137Y6060302D01*
X7773451Y6056828D01*
X7774860Y6054745D01*
X8697008Y5132597D01*
X8708891Y5126543D01*
X8709836Y5126692D01*
X8715009Y5131134D01*
X8720111Y5138234D01*
X8769422Y5174456D01*
X8830606Y5174776D01*
X8882677Y5135681D01*
X8936000Y5056327D01*
X9000689Y4997465D01*
X9038128Y4963398D01*
X9070500Y4890174D01*
X9070500Y4874887D01*
X9068283Y4854051D01*
X9065928Y4843112D01*
X9066889Y4834991D01*
X9066889Y4834989D01*
X9069814Y4810279D01*
X9070418Y4800037D01*
X9070500Y4799045D01*
X9070500Y4794961D01*
X9074020Y4773814D01*
X9074673Y4769228D01*
X9080768Y4717728D01*
X9084069Y4710853D01*
X9084977Y4707981D01*
X9086230Y4700455D01*
X9090117Y4693251D01*
X9110852Y4654822D01*
X9112970Y4650666D01*
X9132253Y4610509D01*
X9135421Y4603911D01*
X9140829Y4597478D01*
X9142262Y4596045D01*
X9143106Y4595045D01*
X9146185Y4589338D01*
X9171737Y4565718D01*
X9181577Y4556622D01*
X9184380Y4553927D01*
X9446376Y4291930D01*
X9459540Y4275630D01*
X9461171Y4273104D01*
X9461173Y4273102D01*
X9465612Y4266227D01*
X9472039Y4261161D01*
X9472041Y4261158D01*
X9491577Y4245757D01*
X9499259Y4238932D01*
X9500012Y4238294D01*
X9502894Y4235412D01*
X9506214Y4233040D01*
X9506218Y4233036D01*
X9520314Y4222962D01*
X9524043Y4220163D01*
X9552415Y4197797D01*
X9564766Y4188060D01*
X9571973Y4185529D01*
X9574632Y4184148D01*
X9580843Y4179709D01*
X9588684Y4177364D01*
X9588686Y4177363D01*
X9630522Y4164852D01*
X9634956Y4163411D01*
X9683893Y4146225D01*
X9690096Y4145688D01*
X9690100Y4145687D01*
X9690151Y4145683D01*
X9690153Y4145683D01*
X9692265Y4145500D01*
X9694292Y4145500D01*
X9695598Y4145390D01*
X9701809Y4143532D01*
X9709983Y4143853D01*
X9709985Y4143853D01*
X9749953Y4145424D01*
X9753841Y4145500D01*
X11550113Y4145500D01*
X11570949Y4143283D01*
X11573892Y4142649D01*
X11573894Y4142649D01*
X11581888Y4140928D01*
X11590009Y4141889D01*
X11590011Y4141889D01*
X11614721Y4144814D01*
X11624952Y4145417D01*
X11625956Y4145500D01*
X11630040Y4145500D01*
X11634066Y4146170D01*
X11634077Y4146171D01*
X11651180Y4149018D01*
X11655787Y4149674D01*
X11680634Y4152615D01*
X11699146Y4154806D01*
X11699147Y4154806D01*
X11707272Y4155768D01*
X11714147Y4159069D01*
X11717017Y4159977D01*
X11724546Y4161230D01*
X11766323Y4183771D01*
X11770204Y4185865D01*
X11774360Y4187982D01*
X11815473Y4207724D01*
X11815474Y4207725D01*
X11821089Y4210421D01*
X11825880Y4214449D01*
X11825900Y4214465D01*
X11825906Y4214470D01*
X11827522Y4215829D01*
X11828952Y4217259D01*
X11829953Y4218104D01*
X11835663Y4221185D01*
X11848815Y4235412D01*
X11868387Y4256586D01*
X11871082Y4259389D01*
X12208070Y4596376D01*
X12224370Y4609540D01*
X12226896Y4611171D01*
X12226898Y4611173D01*
X12233773Y4615612D01*
X12238839Y4622039D01*
X12238842Y4622041D01*
X12254243Y4641577D01*
X12261068Y4649259D01*
X12261706Y4650012D01*
X12264588Y4652894D01*
X12266960Y4656214D01*
X12266964Y4656218D01*
X12277038Y4670314D01*
X12279837Y4674043D01*
X12306876Y4708342D01*
X12306877Y4708343D01*
X12311940Y4714766D01*
X12314471Y4721973D01*
X12315852Y4724632D01*
X12320291Y4730843D01*
X12326797Y4752597D01*
X12361584Y4802931D01*
X12419313Y4823205D01*
X12477933Y4805674D01*
X12503233Y4780308D01*
X12508541Y4772585D01*
X12516380Y4763694D01*
X12630179Y4662302D01*
X12639903Y4655543D01*
X12774600Y4584225D01*
X12785669Y4579976D01*
X12882791Y4555581D01*
X12895329Y4556436D01*
X12898000Y4565718D01*
X12898000Y4567829D01*
X13151999Y4567829D01*
X13155935Y4555714D01*
X13165314Y4555346D01*
X13257620Y4577506D01*
X13268726Y4581637D01*
X13404158Y4651538D01*
X13413962Y4658201D01*
X13528816Y4758394D01*
X13536740Y4767194D01*
X13559399Y4799435D01*
X31169505Y4799435D01*
X31185369Y4610509D01*
X31187107Y4601041D01*
X31239362Y4418803D01*
X31242913Y4409835D01*
X31329567Y4241224D01*
X31334791Y4233119D01*
X31377544Y4179178D01*
X31388654Y4171796D01*
X31390866Y4171889D01*
X31394825Y4174430D01*
X31999309Y4778914D01*
X32001350Y4782920D01*
X31996750Y4797080D01*
X32378650Y4797080D01*
X32386411Y4773194D01*
X32982567Y4177038D01*
X32994450Y4170984D01*
X32997732Y4171503D01*
X32999938Y4173234D01*
X33021140Y4197797D01*
X33026698Y4205675D01*
X33120341Y4370516D01*
X33124256Y4379311D01*
X33184100Y4559208D01*
X33186234Y4568602D01*
X33210254Y4758739D01*
X33210641Y4764266D01*
X33210961Y4787241D01*
X33210732Y4792738D01*
X33192027Y4983503D01*
X33190158Y4992941D01*
X33135360Y5174441D01*
X33131690Y5183345D01*
X33042686Y5350738D01*
X33037351Y5358767D01*
X33002801Y5401131D01*
X32991587Y5408358D01*
X32989007Y5408213D01*
X32985593Y5405988D01*
X32380691Y4801086D01*
X32378650Y4797080D01*
X31996750Y4797080D01*
X31993589Y4806806D01*
X31397885Y5402510D01*
X31386002Y5408564D01*
X31383084Y5408102D01*
X31380393Y5405962D01*
X31350669Y5370537D01*
X31345227Y5362589D01*
X31253898Y5196462D01*
X31250098Y5187598D01*
X31192775Y5006893D01*
X31190771Y4997465D01*
X31169639Y4809063D01*
X31169505Y4799435D01*
X13559399Y4799435D01*
X13624381Y4891894D01*
X13629979Y4902333D01*
X13685345Y5044341D01*
X13688290Y5055810D01*
X13703577Y5171932D01*
X13704000Y5178387D01*
X13704000Y5577320D01*
X13702610Y5581598D01*
X13683280Y5591447D01*
X31571737Y5591447D01*
X31571855Y5589052D01*
X31574240Y5585365D01*
X32178914Y4980691D01*
X32182920Y4978650D01*
X32206806Y4986411D01*
X32802336Y5581941D01*
X32808390Y5593824D01*
X32807957Y5596559D01*
X32805609Y5599490D01*
X32764663Y5633364D01*
X32756680Y5638748D01*
X32589907Y5728922D01*
X32581036Y5732651D01*
X32399922Y5788716D01*
X32390490Y5790652D01*
X32201944Y5810469D01*
X32192306Y5810536D01*
X32003504Y5793354D01*
X31994038Y5791548D01*
X31812166Y5738020D01*
X31803242Y5734415D01*
X31635226Y5646578D01*
X31627165Y5641302D01*
X31579042Y5602610D01*
X31571737Y5591447D01*
X13683280Y5591447D01*
X13680232Y5593000D01*
X13167680Y5593001D01*
X13154995Y5588879D01*
X13152000Y5584758D01*
X13151999Y4567829D01*
X12898000Y4567829D01*
X12898001Y5593000D01*
X12898000Y5593004D01*
X12898000Y5862680D01*
X13151999Y5862680D01*
X13153389Y5858402D01*
X13175767Y5847000D01*
X13688320Y5846999D01*
X13701005Y5851121D01*
X13704000Y5855242D01*
X13704000Y6258329D01*
X13703641Y6264285D01*
X13689973Y6377235D01*
X13687148Y6388736D01*
X13633273Y6531310D01*
X13627783Y6541812D01*
X13541456Y6667420D01*
X13533620Y6676307D01*
X13419821Y6777698D01*
X13410097Y6784457D01*
X13275400Y6855775D01*
X13264331Y6860024D01*
X13167209Y6884419D01*
X13154671Y6883564D01*
X13152000Y6874282D01*
X13151999Y5862680D01*
X12898000Y5862680D01*
X12898001Y6872171D01*
X12894065Y6884286D01*
X12884686Y6884654D01*
X12792380Y6862494D01*
X12781274Y6858363D01*
X12645842Y6788462D01*
X12636038Y6781799D01*
X12518580Y6679334D01*
X12462301Y6655329D01*
X12402659Y6668989D01*
X12362438Y6715096D01*
X12354500Y6753937D01*
X12354500Y6776799D01*
X12383496Y6846803D01*
X12667802Y7131108D01*
X12958063Y7421369D01*
X12974360Y7434531D01*
X12983764Y7440603D01*
X12988830Y7447030D01*
X12988833Y7447032D01*
X13004234Y7466568D01*
X13011046Y7474235D01*
X13011695Y7475001D01*
X13014579Y7477885D01*
X13027046Y7495330D01*
X13029833Y7499041D01*
X13056864Y7533329D01*
X13056865Y7533331D01*
X13061931Y7539757D01*
X13064460Y7546959D01*
X13065844Y7549624D01*
X13070282Y7555833D01*
X13085136Y7605502D01*
X13086577Y7609937D01*
X13101701Y7653004D01*
X13103766Y7658884D01*
X13104491Y7667256D01*
X13104491Y7669283D01*
X13104601Y7670588D01*
X13106459Y7676799D01*
X13106086Y7686307D01*
X13104567Y7724943D01*
X13104491Y7728831D01*
X13104491Y7804856D01*
X13882318Y7804856D01*
X13882609Y7801154D01*
X13900799Y7686307D01*
X13905554Y7671672D01*
X13956576Y7571535D01*
X13965618Y7559090D01*
X14045090Y7479618D01*
X14057535Y7470576D01*
X14157672Y7419554D01*
X14172307Y7414799D01*
X14287154Y7396609D01*
X14294893Y7396000D01*
X14973320Y7396000D01*
X14977598Y7397390D01*
X14989000Y7419768D01*
X14989000Y7804232D01*
X15243000Y7804232D01*
X15243000Y7411680D01*
X15244390Y7407402D01*
X15266768Y7396000D01*
X15937107Y7396000D01*
X15944846Y7396609D01*
X16059693Y7414799D01*
X16074328Y7419554D01*
X16174465Y7470576D01*
X16186910Y7479618D01*
X16266382Y7559090D01*
X16275424Y7571535D01*
X16326446Y7671672D01*
X16331201Y7686307D01*
X16349391Y7801154D01*
X16350000Y7808893D01*
X16350000Y7812320D01*
X16348610Y7816598D01*
X16326232Y7828000D01*
X15258680Y7828000D01*
X15254402Y7826610D01*
X15243000Y7804232D01*
X14989000Y7804232D01*
X14989000Y7812320D01*
X14987610Y7816598D01*
X14965232Y7828000D01*
X13897680Y7828000D01*
X13893402Y7826610D01*
X13882318Y7804856D01*
X13104491Y7804856D01*
X13104491Y9950728D01*
X13123398Y10008919D01*
X13172898Y10044883D01*
X13212033Y10049359D01*
X13238754Y10047045D01*
X13303852Y10041407D01*
X13311083Y10042964D01*
X13311086Y10042964D01*
X13430187Y10068605D01*
X13430189Y10068606D01*
X13437422Y10070163D01*
X13495837Y10102877D01*
X13544210Y10115500D01*
X13908200Y10115500D01*
X13978204Y10086504D01*
X14050596Y10014112D01*
X14057533Y10010577D01*
X14057535Y10010576D01*
X14157672Y9959554D01*
X14164612Y9956018D01*
X14172307Y9954799D01*
X14174290Y9954155D01*
X14223791Y9918192D01*
X14242699Y9860002D01*
X14223793Y9801811D01*
X14174290Y9765845D01*
X14172307Y9765201D01*
X14164612Y9763982D01*
X14157673Y9760446D01*
X14157672Y9760446D01*
X14057535Y9709424D01*
X14057533Y9709423D01*
X14050596Y9705888D01*
X14045090Y9700382D01*
X14038782Y9695799D01*
X14036942Y9698331D01*
X13994855Y9676887D01*
X13957016Y9678225D01*
X13936052Y9683084D01*
X13857575Y9677527D01*
X13807147Y9673957D01*
X13807146Y9673957D01*
X13799763Y9673434D01*
X13672337Y9624136D01*
X13666523Y9619552D01*
X13666522Y9619552D01*
X13570852Y9544132D01*
X13570851Y9544130D01*
X13565039Y9539549D01*
X13560832Y9533462D01*
X13560831Y9533461D01*
X13503504Y9450516D01*
X13487356Y9427152D01*
X13446157Y9296882D01*
X13445084Y9160256D01*
X13447204Y9153167D01*
X13480035Y9043387D01*
X13484232Y9029354D01*
X13488344Y9023200D01*
X13514721Y8983724D01*
X13560140Y8915751D01*
X13565876Y8911081D01*
X13595338Y8887095D01*
X13666095Y8829489D01*
X13792732Y8778196D01*
X13800104Y8777558D01*
X13800106Y8777557D01*
X13849967Y8773239D01*
X13928852Y8766407D01*
X13936084Y8767964D01*
X13936086Y8767964D01*
X13950377Y8771041D01*
X13957972Y8772676D01*
X14018837Y8766439D01*
X14038088Y8753246D01*
X14038782Y8754201D01*
X14045090Y8749618D01*
X14050596Y8744112D01*
X14057533Y8740577D01*
X14057535Y8740576D01*
X14157672Y8689554D01*
X14164612Y8686018D01*
X14172307Y8684799D01*
X14174290Y8684155D01*
X14223791Y8648192D01*
X14242699Y8590002D01*
X14223793Y8531811D01*
X14174290Y8495845D01*
X14157672Y8490446D01*
X14057535Y8439424D01*
X14045090Y8430382D01*
X13965618Y8350910D01*
X13956576Y8338465D01*
X13905554Y8238328D01*
X13900799Y8223693D01*
X13882609Y8108846D01*
X13882000Y8101107D01*
X13882000Y8097680D01*
X13883390Y8093402D01*
X13905768Y8082000D01*
X16334320Y8082000D01*
X16338598Y8083390D01*
X16349682Y8105144D01*
X16349391Y8108846D01*
X16331201Y8223693D01*
X16326446Y8238328D01*
X16275424Y8338465D01*
X16266382Y8350910D01*
X16186910Y8430382D01*
X16174465Y8439424D01*
X16074328Y8490446D01*
X16057710Y8495845D01*
X16008209Y8531808D01*
X15989301Y8589998D01*
X16008207Y8648189D01*
X16057710Y8684155D01*
X16059693Y8684799D01*
X16067388Y8686018D01*
X16074328Y8689554D01*
X16174465Y8740576D01*
X16174467Y8740577D01*
X16181404Y8744112D01*
X16271888Y8834596D01*
X16276555Y8843754D01*
X16326446Y8941672D01*
X16326446Y8941673D01*
X16329982Y8948612D01*
X16331932Y8960920D01*
X16349391Y9071154D01*
X16349391Y9071156D01*
X16350000Y9075000D01*
X16350000Y9375000D01*
X16347094Y9393347D01*
X16331201Y9493693D01*
X16331201Y9493694D01*
X16329982Y9501388D01*
X16308203Y9544132D01*
X16275424Y9608465D01*
X16275423Y9608467D01*
X16271888Y9615404D01*
X16181404Y9705888D01*
X16174467Y9709423D01*
X16174465Y9709424D01*
X16074328Y9760446D01*
X16074327Y9760446D01*
X16067388Y9763982D01*
X16059693Y9765201D01*
X16057710Y9765845D01*
X16008209Y9801808D01*
X15989301Y9859998D01*
X16008207Y9918189D01*
X16057710Y9954155D01*
X16059693Y9954799D01*
X16067388Y9956018D01*
X16074328Y9959554D01*
X16174465Y10010576D01*
X16174467Y10010577D01*
X16181404Y10014112D01*
X16271888Y10104596D01*
X16323558Y10206003D01*
X16326446Y10211672D01*
X16326446Y10211673D01*
X16329982Y10218612D01*
X16331908Y10230768D01*
X16349391Y10341154D01*
X16349391Y10341156D01*
X16350000Y10345000D01*
X16350000Y10626811D01*
X16368907Y10685002D01*
X16418407Y10720966D01*
X16479593Y10720966D01*
X16519004Y10696815D01*
X17016504Y10199315D01*
X17045500Y10129311D01*
X17045501Y9455489D01*
X17045414Y9451344D01*
X17042983Y9393347D01*
X17044525Y9386774D01*
X17044525Y9386770D01*
X17053289Y9349405D01*
X17054989Y9340236D01*
X17061112Y9295539D01*
X17063792Y9289346D01*
X17063793Y9289342D01*
X17068109Y9279369D01*
X17073635Y9262661D01*
X17077662Y9245493D01*
X17092635Y9218258D01*
X17099407Y9205940D01*
X17103511Y9197563D01*
X17121425Y9156164D01*
X17130125Y9145420D01*
X17132514Y9142470D01*
X17142328Y9127865D01*
X17150824Y9112412D01*
X17154208Y9108491D01*
X17154212Y9108486D01*
X17157363Y9104837D01*
X17159764Y9102055D01*
X17184895Y9076924D01*
X17191822Y9069231D01*
X17216997Y9038142D01*
X17222502Y9034230D01*
X17222505Y9034227D01*
X17233307Y9026550D01*
X17245962Y9015857D01*
X18692209Y7569610D01*
X18695079Y7566617D01*
X18734361Y7523898D01*
X18767431Y7503394D01*
X18772722Y7500113D01*
X18780406Y7494831D01*
X18787227Y7489654D01*
X18816339Y7467557D01*
X18828250Y7462841D01*
X18832725Y7461069D01*
X18848443Y7453164D01*
X18863431Y7443871D01*
X18906768Y7431281D01*
X18915586Y7428262D01*
X18957540Y7411651D01*
X18975065Y7409809D01*
X18992338Y7406420D01*
X19004287Y7402948D01*
X19004294Y7402947D01*
X19009267Y7401502D01*
X19014439Y7401122D01*
X19014440Y7401122D01*
X19021111Y7400632D01*
X19021118Y7400632D01*
X19022912Y7400500D01*
X19058446Y7400500D01*
X19068794Y7399958D01*
X19108574Y7395777D01*
X19128304Y7399114D01*
X19144814Y7400500D01*
X19204797Y7400500D01*
X19220284Y7399281D01*
X19237154Y7396609D01*
X19237156Y7396609D01*
X19241000Y7396000D01*
X20891000Y7396000D01*
X20894844Y7396609D01*
X20894846Y7396609D01*
X20911716Y7399281D01*
X20927203Y7400500D01*
X22463099Y7400500D01*
X22516946Y7384575D01*
X22623323Y7315624D01*
X22623326Y7315623D01*
X22629242Y7311788D01*
X22764113Y7271454D01*
X22837500Y7266000D01*
X23412500Y7266000D01*
X23415991Y7266500D01*
X23415992Y7266500D01*
X23544865Y7284956D01*
X23544868Y7284957D01*
X23551851Y7285957D01*
X23558273Y7288877D01*
X23558277Y7288878D01*
X23669471Y7339435D01*
X23680000Y7344222D01*
X23685344Y7348827D01*
X23685346Y7348828D01*
X23781300Y7431508D01*
X23781301Y7431509D01*
X23786644Y7436113D01*
X23811659Y7474706D01*
X23859376Y7548323D01*
X23859377Y7548326D01*
X23863212Y7554242D01*
X23903546Y7689113D01*
X23903943Y7694456D01*
X23904917Y7699735D01*
X23907280Y7699299D01*
X23926833Y7747042D01*
X23978874Y7779220D01*
X24039889Y7774663D01*
X24086573Y7735112D01*
X24100369Y7697082D01*
X24109956Y7630136D01*
X24113878Y7616723D01*
X24166301Y7501425D01*
X24173828Y7489654D01*
X24256508Y7393700D01*
X24267033Y7384519D01*
X24373323Y7315624D01*
X24386000Y7309767D01*
X24508978Y7272990D01*
X24519455Y7271057D01*
X24585675Y7266136D01*
X24589334Y7266000D01*
X24732320Y7266000D01*
X24736598Y7267390D01*
X24748000Y7289768D01*
X24748000Y7849232D01*
X25002000Y7849232D01*
X25002000Y7281680D01*
X25003390Y7277402D01*
X25025768Y7266000D01*
X25158973Y7266000D01*
X25165992Y7266500D01*
X25294865Y7284956D01*
X25308277Y7288878D01*
X25423575Y7341301D01*
X25428194Y7344255D01*
X31169100Y7344255D01*
X31174714Y7277402D01*
X31185278Y7151599D01*
X31185774Y7145690D01*
X31187107Y7141042D01*
X31187107Y7141041D01*
X31234708Y6975036D01*
X31240698Y6954145D01*
X31331781Y6776916D01*
X31455554Y6620754D01*
X31459234Y6617622D01*
X31459236Y6617620D01*
X31490960Y6590621D01*
X31607301Y6491607D01*
X31611523Y6489247D01*
X31611528Y6489244D01*
X31688447Y6446256D01*
X31781244Y6394394D01*
X31785842Y6392900D01*
X31966150Y6334314D01*
X31966152Y6334313D01*
X31970755Y6332818D01*
X32168618Y6309224D01*
X32173440Y6309595D01*
X32173443Y6309595D01*
X32242711Y6314925D01*
X32367295Y6324511D01*
X32559219Y6378097D01*
X32588524Y6392900D01*
X32732758Y6465758D01*
X32732760Y6465759D01*
X32737079Y6467941D01*
X32894102Y6590621D01*
X33024305Y6741463D01*
X33105440Y6884286D01*
X33120341Y6910516D01*
X33120342Y6910519D01*
X33122730Y6914722D01*
X33167477Y7049239D01*
X33184100Y7099208D01*
X33184100Y7099210D01*
X33185627Y7103799D01*
X33189402Y7133676D01*
X33203666Y7246586D01*
X33210602Y7301492D01*
X33211000Y7330000D01*
X33209603Y7344255D01*
X33192027Y7523503D01*
X33192026Y7523507D01*
X33191555Y7528313D01*
X33186709Y7544366D01*
X33168252Y7605498D01*
X33133962Y7719073D01*
X33076784Y7826610D01*
X33042686Y7890739D01*
X33042684Y7890743D01*
X33040413Y7895013D01*
X33030775Y7906831D01*
X32917533Y8045679D01*
X32917532Y8045680D01*
X32914472Y8049432D01*
X32791977Y8150768D01*
X32764663Y8173364D01*
X32764662Y8173365D01*
X32760936Y8176447D01*
X32585653Y8271222D01*
X32490422Y8300701D01*
X32399922Y8328716D01*
X32399918Y8328717D01*
X32395301Y8330146D01*
X32390493Y8330651D01*
X32390490Y8330652D01*
X32201944Y8350469D01*
X32201942Y8350469D01*
X32197128Y8350975D01*
X32132239Y8345070D01*
X32003504Y8333354D01*
X32003501Y8333353D01*
X31998684Y8332915D01*
X31994042Y8331549D01*
X31994038Y8331548D01*
X31915480Y8308427D01*
X31807527Y8276655D01*
X31803243Y8274416D01*
X31803242Y8274415D01*
X31792735Y8268922D01*
X31630938Y8184336D01*
X31627167Y8181304D01*
X31479417Y8062511D01*
X31479414Y8062509D01*
X31475644Y8059477D01*
X31472530Y8055766D01*
X31472529Y8055765D01*
X31401305Y7970883D01*
X31347559Y7906831D01*
X31345223Y7902583D01*
X31345223Y7902582D01*
X31341062Y7895013D01*
X31251563Y7732215D01*
X31250100Y7727602D01*
X31250098Y7727598D01*
X31212774Y7609937D01*
X31191311Y7542278D01*
X31190771Y7537467D01*
X31190771Y7537465D01*
X31174047Y7388356D01*
X31169100Y7344255D01*
X25428194Y7344255D01*
X25435346Y7348828D01*
X25531300Y7431508D01*
X25540481Y7442033D01*
X25609376Y7548323D01*
X25615233Y7561000D01*
X25652010Y7683978D01*
X25653943Y7694455D01*
X25658864Y7760675D01*
X25659000Y7764334D01*
X25659000Y7857320D01*
X25657610Y7861598D01*
X25635232Y7873000D01*
X25017680Y7873000D01*
X25013402Y7871610D01*
X25002000Y7849232D01*
X24748000Y7849232D01*
X24748000Y8028000D01*
X24766907Y8086191D01*
X24847000Y8127000D01*
X25643320Y8127000D01*
X25647598Y8128390D01*
X25659000Y8150768D01*
X25659000Y8233973D01*
X25658500Y8240992D01*
X25640044Y8369865D01*
X25636122Y8383277D01*
X25583699Y8498575D01*
X25576172Y8510346D01*
X25493492Y8606300D01*
X25482967Y8615481D01*
X25376677Y8684376D01*
X25364000Y8690233D01*
X25241022Y8727010D01*
X25230545Y8728943D01*
X25209928Y8730475D01*
X25153298Y8753643D01*
X25121101Y8805672D01*
X25125635Y8866689D01*
X25165168Y8913388D01*
X25203229Y8927203D01*
X25260875Y8935459D01*
X25274281Y8939379D01*
X25392810Y8993271D01*
X25404580Y9000799D01*
X25503220Y9085791D01*
X25512401Y9096316D01*
X25583221Y9205578D01*
X25589080Y9218258D01*
X25626871Y9344623D01*
X25628807Y9355115D01*
X25633864Y9423175D01*
X25634000Y9426834D01*
X25634000Y9557320D01*
X25632610Y9561598D01*
X25610232Y9573000D01*
X24722000Y9573000D01*
X24663809Y9591907D01*
X24623000Y9672000D01*
X24623000Y10460232D01*
X24877000Y10460232D01*
X24877000Y9842680D01*
X24878390Y9838402D01*
X24900768Y9827000D01*
X25618320Y9827000D01*
X25622598Y9828390D01*
X25634000Y9850768D01*
X25634000Y9884255D01*
X31169100Y9884255D01*
X31173791Y9828390D01*
X31184713Y9698331D01*
X31185774Y9685690D01*
X31187107Y9681042D01*
X31187107Y9681041D01*
X31227679Y9539549D01*
X31240698Y9494145D01*
X31331781Y9316916D01*
X31455554Y9160754D01*
X31459234Y9157622D01*
X31459236Y9157620D01*
X31524525Y9102055D01*
X31607301Y9031607D01*
X31611523Y9029247D01*
X31611528Y9029244D01*
X31688306Y8986335D01*
X31781244Y8934394D01*
X31785842Y8932900D01*
X31966150Y8874314D01*
X31966152Y8874313D01*
X31970755Y8872818D01*
X32168618Y8849224D01*
X32173440Y8849595D01*
X32173443Y8849595D01*
X32238485Y8854600D01*
X32367295Y8864511D01*
X32559219Y8918097D01*
X32566752Y8921902D01*
X32732758Y9005758D01*
X32732760Y9005759D01*
X32737079Y9007941D01*
X32894102Y9130621D01*
X33024305Y9281463D01*
X33105846Y9425000D01*
X33120341Y9450516D01*
X33120342Y9450519D01*
X33122730Y9454722D01*
X33185627Y9643799D01*
X33189034Y9670763D01*
X33203666Y9786586D01*
X33210602Y9841492D01*
X33211000Y9870000D01*
X33209603Y9884255D01*
X33192027Y10063503D01*
X33192026Y10063507D01*
X33191555Y10068313D01*
X33189905Y10073780D01*
X33157309Y10181742D01*
X33133962Y10259073D01*
X33064063Y10390534D01*
X33042686Y10430739D01*
X33042684Y10430743D01*
X33040413Y10435013D01*
X33030775Y10446831D01*
X32917533Y10585679D01*
X32917532Y10585680D01*
X32914472Y10589432D01*
X32794028Y10689071D01*
X32764663Y10713364D01*
X32764662Y10713365D01*
X32760936Y10716447D01*
X32585653Y10811222D01*
X32523716Y10830395D01*
X32399922Y10868716D01*
X32399918Y10868717D01*
X32395301Y10870146D01*
X32390493Y10870651D01*
X32390490Y10870652D01*
X32201944Y10890469D01*
X32201942Y10890469D01*
X32197128Y10890975D01*
X32135914Y10885404D01*
X32003504Y10873354D01*
X32003501Y10873353D01*
X31998684Y10872915D01*
X31994042Y10871549D01*
X31994038Y10871548D01*
X31923835Y10850886D01*
X31807527Y10816655D01*
X31803243Y10814416D01*
X31803242Y10814415D01*
X31792735Y10808922D01*
X31630938Y10724336D01*
X31627167Y10721304D01*
X31479417Y10602511D01*
X31479414Y10602509D01*
X31475644Y10599477D01*
X31472530Y10595766D01*
X31472529Y10595765D01*
X31369180Y10472598D01*
X31347559Y10446831D01*
X31345223Y10442583D01*
X31345223Y10442582D01*
X31342187Y10437059D01*
X31251563Y10272215D01*
X31250100Y10267602D01*
X31250098Y10267598D01*
X31206231Y10129311D01*
X31191311Y10082278D01*
X31190771Y10077467D01*
X31190771Y10077465D01*
X31172907Y9918192D01*
X31169100Y9884255D01*
X25634000Y9884255D01*
X25634000Y9971473D01*
X25633500Y9978492D01*
X25614541Y10110875D01*
X25610621Y10124281D01*
X25556729Y10242810D01*
X25549201Y10254580D01*
X25464209Y10353220D01*
X25453684Y10362401D01*
X25344422Y10433221D01*
X25331742Y10439080D01*
X25205377Y10476871D01*
X25194885Y10478807D01*
X25126825Y10483864D01*
X25123166Y10484000D01*
X24892680Y10484000D01*
X24888402Y10482610D01*
X24877000Y10460232D01*
X24623000Y10460232D01*
X24623000Y10468320D01*
X24621610Y10472598D01*
X24599232Y10484000D01*
X24378527Y10484000D01*
X24371508Y10483500D01*
X24239125Y10464541D01*
X24225719Y10460621D01*
X24107190Y10406729D01*
X24095420Y10399201D01*
X24014987Y10329897D01*
X23958561Y10306236D01*
X23875366Y10340272D01*
X23864210Y10353219D01*
X23864208Y10353221D01*
X23859604Y10358564D01*
X23789801Y10403808D01*
X23749653Y10429831D01*
X23711106Y10477347D01*
X23704500Y10512906D01*
X23704500Y11479311D01*
X23733496Y11549315D01*
X23900685Y11716504D01*
X23970689Y11745500D01*
X27265534Y11745500D01*
X27269679Y11745413D01*
X27327653Y11742983D01*
X27371588Y11753288D01*
X27380757Y11754988D01*
X27388192Y11756006D01*
X27418776Y11760195D01*
X27418778Y11760196D01*
X27425461Y11761111D01*
X27431650Y11763789D01*
X27431657Y11763791D01*
X27441640Y11768111D01*
X27458348Y11773637D01*
X27468933Y11776120D01*
X27475507Y11777662D01*
X27515050Y11799401D01*
X27523421Y11803502D01*
X27558644Y11818744D01*
X27558647Y11818746D01*
X27564836Y11821424D01*
X27578535Y11832517D01*
X27593143Y11842333D01*
X27604044Y11848326D01*
X27608588Y11850824D01*
X27612509Y11854208D01*
X27612514Y11854212D01*
X27617566Y11858574D01*
X27618945Y11859764D01*
X27644071Y11884890D01*
X27651772Y11891823D01*
X27669422Y11906116D01*
X27682858Y11916996D01*
X27694448Y11933305D01*
X27705142Y11945961D01*
X28183436Y12424255D01*
X31169100Y12424255D01*
X31171137Y12400002D01*
X31182710Y12262183D01*
X31185774Y12225690D01*
X31187107Y12221042D01*
X31187107Y12221041D01*
X31221557Y12100900D01*
X31240698Y12034145D01*
X31242913Y12029835D01*
X31253994Y12008273D01*
X31331781Y11856916D01*
X31455554Y11700754D01*
X31459234Y11697622D01*
X31459236Y11697620D01*
X31539953Y11628925D01*
X31607301Y11571607D01*
X31611523Y11569247D01*
X31611528Y11569244D01*
X31706562Y11516132D01*
X31781244Y11474394D01*
X31785842Y11472900D01*
X31966150Y11414314D01*
X31966152Y11414313D01*
X31970755Y11412818D01*
X32168618Y11389224D01*
X32173440Y11389595D01*
X32173443Y11389595D01*
X32238485Y11394600D01*
X32367295Y11404511D01*
X32559219Y11458097D01*
X32588524Y11472900D01*
X32732758Y11545758D01*
X32732760Y11545759D01*
X32737079Y11547941D01*
X32894102Y11670621D01*
X33024305Y11821463D01*
X33095030Y11945961D01*
X33120341Y11990516D01*
X33120342Y11990519D01*
X33122730Y11994722D01*
X33173027Y12145921D01*
X33184100Y12179208D01*
X33184100Y12179210D01*
X33185627Y12183799D01*
X33210602Y12381492D01*
X33211000Y12410000D01*
X33209603Y12424255D01*
X33192027Y12603503D01*
X33192026Y12603507D01*
X33191555Y12608313D01*
X33185946Y12626893D01*
X33162570Y12704316D01*
X33133962Y12799073D01*
X33076334Y12907456D01*
X33042686Y12970739D01*
X33042684Y12970743D01*
X33040413Y12975013D01*
X33030775Y12986831D01*
X32917533Y13125679D01*
X32917532Y13125680D01*
X32914472Y13129432D01*
X32817081Y13210000D01*
X32764663Y13253364D01*
X32764662Y13253365D01*
X32760936Y13256447D01*
X32585653Y13351222D01*
X32493336Y13379799D01*
X32399922Y13408716D01*
X32399918Y13408717D01*
X32395301Y13410146D01*
X32390493Y13410651D01*
X32390490Y13410652D01*
X32201944Y13430469D01*
X32201942Y13430469D01*
X32197128Y13430975D01*
X32135914Y13425404D01*
X32003504Y13413354D01*
X32003501Y13413353D01*
X31998684Y13412915D01*
X31994042Y13411549D01*
X31994038Y13411548D01*
X31923835Y13390886D01*
X31807527Y13356655D01*
X31803243Y13354416D01*
X31803242Y13354415D01*
X31796109Y13350686D01*
X31630938Y13264336D01*
X31617292Y13253364D01*
X31479417Y13142511D01*
X31479414Y13142509D01*
X31475644Y13139477D01*
X31472530Y13135766D01*
X31472529Y13135765D01*
X31350676Y12990546D01*
X31347559Y12986831D01*
X31345223Y12982583D01*
X31345223Y12982582D01*
X31335982Y12965772D01*
X31251563Y12812215D01*
X31250100Y12807602D01*
X31250098Y12807598D01*
X31208830Y12677505D01*
X31191311Y12622278D01*
X31190771Y12617467D01*
X31190771Y12617465D01*
X31172907Y12458192D01*
X31169100Y12424255D01*
X28183436Y12424255D01*
X28385402Y12626220D01*
X28388395Y12629090D01*
X28412804Y12651535D01*
X28431102Y12668361D01*
X28442815Y12687251D01*
X28454885Y12706717D01*
X28460160Y12714393D01*
X28487444Y12750340D01*
X28493932Y12766727D01*
X28501834Y12782439D01*
X28511129Y12797431D01*
X28523721Y12840772D01*
X28526735Y12849579D01*
X28543349Y12891540D01*
X28544054Y12898249D01*
X28544056Y12898256D01*
X28545193Y12909072D01*
X28548580Y12926339D01*
X28552052Y12938290D01*
X28553498Y12943267D01*
X28554500Y12956912D01*
X28554500Y12992438D01*
X28555042Y13002787D01*
X28558519Y13035866D01*
X28558519Y13035867D01*
X28559224Y13042574D01*
X28558099Y13049226D01*
X28555886Y13062310D01*
X28554500Y13078820D01*
X28554500Y19067876D01*
X28571902Y19121437D01*
X28571263Y19121789D01*
X28573106Y19125140D01*
X28573406Y19126065D01*
X28574261Y19127242D01*
X28577924Y19132283D01*
X28638781Y19285989D01*
X28659500Y19450000D01*
X28638781Y19614011D01*
X28577924Y19767717D01*
X28480755Y19901459D01*
X28475960Y19905425D01*
X28475958Y19905428D01*
X28424562Y19947946D01*
X28353378Y20006834D01*
X28347745Y20009485D01*
X28347743Y20009486D01*
X28278587Y20042028D01*
X28203797Y20077222D01*
X28184102Y20080979D01*
X28175836Y20082556D01*
X28124383Y20109798D01*
X27548791Y20685390D01*
X27545921Y20688383D01*
X27506639Y20731102D01*
X27489992Y20741424D01*
X27468288Y20754881D01*
X27460602Y20760163D01*
X27430038Y20783362D01*
X27424660Y20787444D01*
X27408275Y20793931D01*
X27392556Y20801837D01*
X27383303Y20807574D01*
X27383301Y20807575D01*
X27377569Y20811129D01*
X27334225Y20823722D01*
X27325412Y20826739D01*
X27283459Y20843349D01*
X27265937Y20845190D01*
X27248663Y20848579D01*
X27242329Y20850419D01*
X27236718Y20852050D01*
X27236715Y20852051D01*
X27231733Y20853498D01*
X27222878Y20854148D01*
X27219889Y20854368D01*
X27219882Y20854368D01*
X27218088Y20854500D01*
X27182554Y20854500D01*
X27172206Y20855042D01*
X27139134Y20858518D01*
X27132426Y20859223D01*
X27119377Y20857016D01*
X27112696Y20855886D01*
X27096186Y20854500D01*
X13059441Y20854500D01*
X13055295Y20854587D01*
X12997347Y20857016D01*
X12953408Y20846710D01*
X12944256Y20845014D01*
X12899539Y20838889D01*
X12893342Y20836207D01*
X12893341Y20836207D01*
X12883364Y20831890D01*
X12866656Y20826364D01*
X12855122Y20823659D01*
X12855116Y20823657D01*
X12849493Y20822338D01*
X12849491Y20822337D01*
X12829104Y20811129D01*
X12809957Y20800603D01*
X12801581Y20796500D01*
X12766362Y20781259D01*
X12766357Y20781256D01*
X12760164Y20778576D01*
X12754921Y20774331D01*
X12754920Y20774330D01*
X12746461Y20767480D01*
X12731857Y20757666D01*
X12716410Y20749174D01*
X12706053Y20740234D01*
X12680929Y20715110D01*
X12673228Y20708177D01*
X12642142Y20683004D01*
X12638234Y20677505D01*
X12630549Y20666691D01*
X12619855Y20654036D01*
X8914598Y16948779D01*
X8911605Y16945909D01*
X8868899Y16906639D01*
X8852387Y16880008D01*
X8845124Y16868294D01*
X8839842Y16860610D01*
X8816640Y16830042D01*
X8816637Y16830036D01*
X8812556Y16824660D01*
X8806065Y16808266D01*
X8798161Y16792551D01*
X8788872Y16777569D01*
X8786990Y16771091D01*
X8776284Y16734240D01*
X8773265Y16725422D01*
X8756651Y16683459D01*
X8755946Y16676749D01*
X8755944Y16676742D01*
X8754807Y16665925D01*
X8751421Y16648660D01*
X8746503Y16631733D01*
X8746123Y16626563D01*
X8746123Y16626561D01*
X8745926Y16623870D01*
X8745501Y16618088D01*
X8745501Y16582563D01*
X8744959Y16572215D01*
X8740777Y16532426D01*
X8741902Y16525776D01*
X8744115Y16512691D01*
X8745501Y16496181D01*
X8745500Y13420690D01*
X8716504Y13350686D01*
X8139315Y12773496D01*
X8069311Y12744500D01*
X7765441Y12744500D01*
X7707250Y12763407D01*
X7683551Y12788514D01*
X7683235Y12789127D01*
X7566066Y12938290D01*
X7556019Y12951081D01*
X7556018Y12951082D01*
X7553107Y12954788D01*
X7416373Y13073440D01*
X7397560Y13089765D01*
X7397559Y13089766D01*
X7394000Y13092854D01*
X7211655Y13198343D01*
X7092606Y13239684D01*
X7017101Y13265904D01*
X7017098Y13265905D01*
X7012654Y13267448D01*
X7007992Y13268124D01*
X6808844Y13296999D01*
X6808843Y13296999D01*
X6804174Y13297676D01*
X6799463Y13297458D01*
X6799462Y13297458D01*
X6598450Y13288154D01*
X6593741Y13287936D01*
X6388945Y13238580D01*
X6197177Y13151388D01*
X6193334Y13148662D01*
X6173903Y13134879D01*
X6025357Y13029508D01*
X5879683Y12877335D01*
X5765413Y12700362D01*
X5763655Y12696001D01*
X5763655Y12696000D01*
X5705048Y12550576D01*
X5686669Y12504973D01*
X5685768Y12500360D01*
X5685767Y12500356D01*
X5650555Y12320042D01*
X5646293Y12298219D01*
X5646116Y12230509D01*
X5645822Y12118312D01*
X5645741Y12087561D01*
X254000Y12087561D01*
X254000Y14590736D01*
X5652732Y14590736D01*
X5684155Y14425230D01*
X5686774Y14416217D01*
X5761014Y14229185D01*
X5765294Y14220822D01*
X5873558Y14051206D01*
X5879338Y14043809D01*
X6017730Y13897719D01*
X6024800Y13891551D01*
X6188325Y13774263D01*
X6196429Y13769547D01*
X6379182Y13685297D01*
X6388030Y13682198D01*
X6583424Y13634024D01*
X6592696Y13632655D01*
X6607341Y13631900D01*
X6620222Y13635363D01*
X6622672Y13638395D01*
X6623000Y13640169D01*
X6623000Y14579232D01*
X6877000Y14579232D01*
X6877000Y13648716D01*
X6881122Y13636031D01*
X6882404Y13635099D01*
X6888152Y13634593D01*
X7002335Y13650539D01*
X7011473Y13652716D01*
X7201909Y13717731D01*
X7210458Y13721591D01*
X7385172Y13821448D01*
X7392837Y13826855D01*
X7545512Y13957944D01*
X7552025Y13964712D01*
X7677155Y14122303D01*
X7682266Y14130173D01*
X7775338Y14308583D01*
X7778872Y14317288D01*
X7836529Y14510081D01*
X7838351Y14519279D01*
X7845210Y14587399D01*
X7842380Y14600434D01*
X7840435Y14602170D01*
X7836486Y14603000D01*
X6892680Y14603000D01*
X6888402Y14601610D01*
X6877000Y14579232D01*
X6623000Y14579232D01*
X6623000Y14587320D01*
X6621610Y14591598D01*
X6599232Y14603000D01*
X5666084Y14603000D01*
X5653399Y14598878D01*
X5653234Y14598652D01*
X5652732Y14590736D01*
X254000Y14590736D01*
X254000Y14872387D01*
X5652966Y14872387D01*
X5654579Y14859151D01*
X5654676Y14859047D01*
X5662577Y14857000D01*
X6607320Y14857000D01*
X6611598Y14858390D01*
X6623000Y14880768D01*
X6623000Y15813610D01*
X6622313Y15815726D01*
X6877000Y15815726D01*
X6877000Y14872680D01*
X6878390Y14868402D01*
X6900768Y14857000D01*
X7831203Y14857000D01*
X7843888Y14861122D01*
X7845502Y14863343D01*
X7845917Y14867120D01*
X7839440Y14935012D01*
X7837664Y14944233D01*
X7781018Y15137323D01*
X7777534Y15146035D01*
X7685392Y15324939D01*
X7680322Y15332835D01*
X7556019Y15491081D01*
X7549550Y15497874D01*
X7397560Y15629765D01*
X7389918Y15635215D01*
X7215731Y15735985D01*
X7207208Y15739887D01*
X7017101Y15805904D01*
X7007992Y15808124D01*
X6892518Y15824867D01*
X6879372Y15822608D01*
X6878363Y15821573D01*
X6877000Y15815726D01*
X6622313Y15815726D01*
X6618878Y15826295D01*
X6615612Y15828668D01*
X6614067Y15828877D01*
X6598449Y15828154D01*
X6589158Y15826832D01*
X6393528Y15779684D01*
X6384656Y15776630D01*
X6201467Y15693338D01*
X6193334Y15688662D01*
X6029200Y15572234D01*
X6022100Y15566105D01*
X5882941Y15420738D01*
X5877127Y15413376D01*
X5767966Y15244316D01*
X5763655Y15236000D01*
X5688427Y15049336D01*
X5685767Y15040356D01*
X5652966Y14872387D01*
X254000Y14872387D01*
X254000Y15188844D01*
X256270Y15209924D01*
X258499Y15220152D01*
X260551Y15332835D01*
X261152Y15365820D01*
X262144Y15378106D01*
X295982Y15613455D01*
X298984Y15627258D01*
X365056Y15852275D01*
X369988Y15865499D01*
X467410Y16078822D01*
X474174Y16091208D01*
X600959Y16288491D01*
X609424Y16299799D01*
X669922Y16369618D01*
X762993Y16477027D01*
X772969Y16487004D01*
X950213Y16640585D01*
X961520Y16649048D01*
X1027039Y16691154D01*
X1158791Y16775826D01*
X1171188Y16782595D01*
X1172732Y16783300D01*
X1384497Y16880011D01*
X1397724Y16884945D01*
X1622747Y16951017D01*
X1636549Y16954019D01*
X1871894Y16987856D01*
X1884180Y16988848D01*
X1943055Y16989920D01*
X2029848Y16991501D01*
X2040077Y16993730D01*
X2061156Y16996000D01*
X2190676Y16996000D01*
X2208217Y16994433D01*
X2229585Y16990586D01*
X2234437Y16990674D01*
X2234442Y16990674D01*
X2385751Y16993430D01*
X2392851Y16993304D01*
X2399972Y16992922D01*
X2399980Y16992922D01*
X2404836Y16992662D01*
X2409649Y16993354D01*
X2413239Y16993514D01*
X2414322Y16993602D01*
X2417848Y16994014D01*
X2422705Y16994103D01*
X2434469Y16996667D01*
X2441428Y16997923D01*
X2582572Y17018216D01*
X2704361Y17035726D01*
X2709622Y17036340D01*
X2714807Y17036804D01*
X2724513Y17037673D01*
X2729177Y17039042D01*
X2730879Y17039365D01*
X2732586Y17039784D01*
X2737401Y17040477D01*
X2741982Y17042093D01*
X2751478Y17045443D01*
X2756520Y17047071D01*
X2850130Y17074557D01*
X3014892Y17122936D01*
X3020004Y17124289D01*
X3029799Y17126604D01*
X3029798Y17126604D01*
X3034530Y17127722D01*
X3038958Y17129744D01*
X3040622Y17130315D01*
X3042223Y17130961D01*
X3046888Y17132331D01*
X3060116Y17139251D01*
X3064880Y17141583D01*
X3121764Y17167561D01*
X5645741Y17167561D01*
X5646619Y17162939D01*
X5646619Y17162934D01*
X5654507Y17121388D01*
X5685034Y16960599D01*
X5762754Y16764801D01*
X5765294Y16760822D01*
X5873558Y16591206D01*
X5873562Y16591201D01*
X5876096Y16587231D01*
X5921659Y16539134D01*
X5971034Y16487013D01*
X6020971Y16434298D01*
X6024796Y16431555D01*
X6024800Y16431551D01*
X6122539Y16361448D01*
X6192151Y16311519D01*
X6383460Y16223325D01*
X6388027Y16222199D01*
X6388030Y16222198D01*
X6485727Y16198111D01*
X6587994Y16172897D01*
X6672415Y16168547D01*
X6793669Y16162298D01*
X6793674Y16162298D01*
X6798374Y16162056D01*
X6803035Y16162707D01*
X6803038Y16162707D01*
X7002341Y16190540D01*
X7002344Y16190541D01*
X7007008Y16191192D01*
X7011470Y16192715D01*
X7011473Y16192716D01*
X7201909Y16257731D01*
X7201912Y16257732D01*
X7206369Y16259254D01*
X7389263Y16363786D01*
X7549091Y16501017D01*
X7574030Y16532426D01*
X7677155Y16662303D01*
X7677157Y16662306D01*
X7680086Y16665995D01*
X7682266Y16670173D01*
X7775338Y16848583D01*
X7775340Y16848589D01*
X7777520Y16852767D01*
X7837879Y17054594D01*
X7838519Y17060952D01*
X7858743Y17261785D01*
X7858743Y17261795D01*
X7858985Y17264193D01*
X7859000Y17270000D01*
X7838992Y17479707D01*
X7779691Y17681847D01*
X7683235Y17869127D01*
X7568863Y18014730D01*
X7556019Y18031081D01*
X7556018Y18031082D01*
X7553107Y18034788D01*
X7413537Y18155901D01*
X7397560Y18169765D01*
X7397559Y18169766D01*
X7394000Y18172854D01*
X7211655Y18278343D01*
X7092606Y18319684D01*
X7017101Y18345904D01*
X7017098Y18345905D01*
X7012654Y18347448D01*
X7007992Y18348124D01*
X6808844Y18376999D01*
X6808843Y18376999D01*
X6804174Y18377676D01*
X6799463Y18377458D01*
X6799462Y18377458D01*
X6598450Y18368154D01*
X6593741Y18367936D01*
X6388945Y18318580D01*
X6197177Y18231388D01*
X6025357Y18109508D01*
X5879683Y17957335D01*
X5765413Y17780362D01*
X5763655Y17776001D01*
X5763655Y17776000D01*
X5699596Y17617048D01*
X5686669Y17584973D01*
X5685768Y17580360D01*
X5685767Y17580356D01*
X5651209Y17403391D01*
X5646293Y17378219D01*
X5646033Y17279016D01*
X5645901Y17228465D01*
X5645741Y17167561D01*
X3121764Y17167561D01*
X3309816Y17253441D01*
X3314679Y17255507D01*
X3328575Y17260974D01*
X3332672Y17263607D01*
X3334208Y17264393D01*
X3335716Y17265270D01*
X3340153Y17267296D01*
X3352282Y17276043D01*
X3356648Y17279016D01*
X3583167Y17424589D01*
X3587688Y17427327D01*
X3600666Y17434717D01*
X3604347Y17437907D01*
X3605771Y17438915D01*
X3607129Y17439989D01*
X3611225Y17442621D01*
X3614726Y17445999D01*
X3614730Y17446002D01*
X3621980Y17452997D01*
X3625889Y17456572D01*
X3629295Y17459523D01*
X3829398Y17632913D01*
X3833462Y17636248D01*
X3845260Y17645413D01*
X3848447Y17649091D01*
X3849720Y17650298D01*
X3850909Y17651552D01*
X3854586Y17654738D01*
X3857572Y17658581D01*
X3863755Y17666541D01*
X3867109Y17670628D01*
X3965620Y17784316D01*
X4043436Y17874120D01*
X4047012Y17878031D01*
X4053999Y17885272D01*
X4054000Y17885274D01*
X4057379Y17888775D01*
X4060012Y17892872D01*
X4061106Y17894255D01*
X4062100Y17895660D01*
X4065283Y17899333D01*
X4067691Y17903562D01*
X4072679Y17912320D01*
X4075422Y17916849D01*
X4203100Y18115522D01*
X4220988Y18143356D01*
X4223970Y18147735D01*
X4229860Y18155902D01*
X4229863Y18155908D01*
X4232704Y18159847D01*
X4234723Y18164267D01*
X4235607Y18165788D01*
X4236399Y18167336D01*
X4239026Y18171424D01*
X4240807Y18175949D01*
X4240809Y18175954D01*
X4244501Y18185337D01*
X4246563Y18190192D01*
X4358443Y18435175D01*
X4360734Y18439856D01*
X4367668Y18453112D01*
X4369036Y18457768D01*
X4369688Y18459384D01*
X4370257Y18461045D01*
X4372278Y18465470D01*
X4373396Y18470201D01*
X4373398Y18470206D01*
X4375715Y18480011D01*
X4377071Y18485134D01*
X4422819Y18640938D01*
X4452935Y18743500D01*
X4454560Y18748530D01*
X4457905Y18758010D01*
X4457907Y18758019D01*
X4459523Y18762599D01*
X4460214Y18767407D01*
X4460633Y18769112D01*
X4460957Y18770822D01*
X4462327Y18775486D01*
X4463658Y18790363D01*
X4464272Y18795629D01*
X4502076Y19058562D01*
X4503338Y19065550D01*
X4504861Y19072539D01*
X4504861Y19072543D01*
X4505897Y19077295D01*
X4505986Y19082153D01*
X4506400Y19085694D01*
X4506486Y19086762D01*
X4506646Y19090349D01*
X4507338Y19095163D01*
X4507078Y19100019D01*
X4507078Y19100026D01*
X4506696Y19107148D01*
X4506570Y19114248D01*
X4509326Y19265558D01*
X4509326Y19265563D01*
X4509414Y19270415D01*
X4505567Y19291783D01*
X4504000Y19309324D01*
X4504000Y20660000D01*
X5641000Y20660000D01*
X5641000Y18960000D01*
X5660715Y18860885D01*
X5716859Y18776859D01*
X5800885Y18720715D01*
X5900000Y18701000D01*
X7600000Y18701000D01*
X7699115Y18720715D01*
X7783141Y18776859D01*
X7839285Y18860885D01*
X7859000Y18960000D01*
X7859000Y20660000D01*
X7839285Y20759115D01*
X7783141Y20843141D01*
X7766339Y20854368D01*
X7707222Y20893868D01*
X7699115Y20899285D01*
X7600000Y20919000D01*
X5900000Y20919000D01*
X5800885Y20899285D01*
X5792778Y20893868D01*
X5733662Y20854368D01*
X5716859Y20843141D01*
X5660715Y20759115D01*
X5641000Y20660000D01*
X4504000Y20660000D01*
X4504000Y36440676D01*
X4505567Y36458218D01*
X4509414Y36479585D01*
X4508841Y36511081D01*
X4506570Y36635752D01*
X4506696Y36642852D01*
X4507078Y36649974D01*
X4507078Y36649981D01*
X4507338Y36654837D01*
X4506646Y36659651D01*
X4506486Y36663238D01*
X4506400Y36664306D01*
X4505986Y36667847D01*
X4505897Y36672705D01*
X4503340Y36684442D01*
X4503338Y36684450D01*
X4502076Y36691438D01*
X4464272Y36954371D01*
X4463658Y36959637D01*
X4462760Y36969671D01*
X4462327Y36974514D01*
X4460957Y36979178D01*
X4460633Y36980888D01*
X4460214Y36982593D01*
X4459523Y36987401D01*
X4457907Y36991982D01*
X4457905Y36991990D01*
X4454560Y37001470D01*
X4452935Y37006500D01*
X4377071Y37264866D01*
X4375715Y37269989D01*
X4373398Y37279794D01*
X4373395Y37279802D01*
X4372278Y37284530D01*
X4370257Y37288955D01*
X4369688Y37290616D01*
X4369036Y37292232D01*
X4367668Y37296888D01*
X4360734Y37310144D01*
X4358443Y37314825D01*
X4246559Y37559816D01*
X4244501Y37564663D01*
X4240809Y37574046D01*
X4240806Y37574052D01*
X4239026Y37578576D01*
X4236399Y37582664D01*
X4235607Y37584212D01*
X4234723Y37585733D01*
X4232704Y37590153D01*
X4229863Y37594092D01*
X4229860Y37594098D01*
X4223970Y37602265D01*
X4220985Y37606648D01*
X4075422Y37833151D01*
X4072679Y37837680D01*
X4067689Y37846442D01*
X4065283Y37850667D01*
X4062100Y37854340D01*
X4061106Y37855745D01*
X4060012Y37857128D01*
X4057379Y37861225D01*
X4052379Y37866407D01*
X4047012Y37871969D01*
X4043436Y37875880D01*
X3910191Y38029653D01*
X3867098Y38079385D01*
X3863755Y38083459D01*
X3857571Y38091420D01*
X3857569Y38091422D01*
X3854586Y38095262D01*
X3850909Y38098448D01*
X3849720Y38099702D01*
X3848447Y38100909D01*
X3845260Y38104587D01*
X3833458Y38113755D01*
X3829398Y38117087D01*
X3625880Y38293436D01*
X3621980Y38297003D01*
X3614730Y38303998D01*
X3614726Y38304001D01*
X3611225Y38307379D01*
X3607129Y38310011D01*
X3605771Y38311085D01*
X3604347Y38312093D01*
X3600666Y38315283D01*
X3587688Y38322673D01*
X3583167Y38325411D01*
X3356648Y38470984D01*
X3352282Y38473957D01*
X3340153Y38482704D01*
X3335716Y38484730D01*
X3334208Y38485607D01*
X3332672Y38486393D01*
X3328575Y38489026D01*
X3314679Y38494493D01*
X3309816Y38496559D01*
X3064880Y38608417D01*
X3060116Y38610749D01*
X3058760Y38611458D01*
X3046888Y38617669D01*
X3042223Y38619039D01*
X3040622Y38619685D01*
X3038958Y38620256D01*
X3034530Y38622278D01*
X3020005Y38625711D01*
X3014892Y38627064D01*
X2803794Y38689048D01*
X2756520Y38702929D01*
X2751478Y38704557D01*
X2741982Y38707907D01*
X2741981Y38707907D01*
X2737401Y38709523D01*
X2732586Y38710216D01*
X2730879Y38710635D01*
X2729177Y38710958D01*
X2724513Y38712327D01*
X2714807Y38713196D01*
X2709622Y38713660D01*
X2704361Y38714274D01*
X2567943Y38733887D01*
X2441428Y38752077D01*
X2434469Y38753333D01*
X2422705Y38755897D01*
X2417848Y38755986D01*
X2414322Y38756398D01*
X2413239Y38756486D01*
X2409649Y38756646D01*
X2404836Y38757338D01*
X2399980Y38757078D01*
X2399972Y38757078D01*
X2392851Y38756696D01*
X2385751Y38756570D01*
X2234442Y38759326D01*
X2234437Y38759326D01*
X2229585Y38759414D01*
X2210051Y38755897D01*
X2208218Y38755567D01*
X2190676Y38754000D01*
X2061156Y38754000D01*
X2040076Y38756270D01*
X2029848Y38758499D01*
X1943055Y38760080D01*
X1884180Y38761152D01*
X1871894Y38762144D01*
X1636549Y38795981D01*
X1622747Y38798983D01*
X1550107Y38820312D01*
X1397724Y38865055D01*
X1384497Y38869989D01*
X1171188Y38967405D01*
X1158791Y38974174D01*
X961520Y39100952D01*
X950212Y39109416D01*
X930923Y39126130D01*
X772969Y39262996D01*
X762991Y39272975D01*
X609424Y39450201D01*
X600959Y39461509D01*
X474174Y39658792D01*
X467405Y39671188D01*
X369988Y39884501D01*
X365056Y39897725D01*
X298984Y40122742D01*
X295982Y40136545D01*
X281002Y40240736D01*
X5702732Y40240736D01*
X5734155Y40075230D01*
X5736774Y40066217D01*
X5811014Y39879185D01*
X5815294Y39870822D01*
X5923558Y39701206D01*
X5929338Y39693809D01*
X6067730Y39547719D01*
X6074800Y39541551D01*
X6238325Y39424263D01*
X6246429Y39419547D01*
X6429182Y39335297D01*
X6438030Y39332198D01*
X6633424Y39284024D01*
X6642696Y39282655D01*
X6657341Y39281900D01*
X6670222Y39285363D01*
X6672672Y39288395D01*
X6673000Y39290169D01*
X6673000Y40229232D01*
X6927000Y40229232D01*
X6927000Y39298716D01*
X6931122Y39286031D01*
X6932404Y39285099D01*
X6938152Y39284593D01*
X7052335Y39300539D01*
X7061473Y39302716D01*
X7251909Y39367731D01*
X7260458Y39371591D01*
X7435172Y39471448D01*
X7442837Y39476855D01*
X7595512Y39607944D01*
X7602025Y39614712D01*
X7727155Y39772303D01*
X7732266Y39780173D01*
X7825338Y39958583D01*
X7828872Y39967288D01*
X7886529Y40160081D01*
X7888351Y40169279D01*
X7895210Y40237399D01*
X7892380Y40250434D01*
X7890435Y40252170D01*
X7886486Y40253000D01*
X6942680Y40253000D01*
X6938402Y40251610D01*
X6927000Y40229232D01*
X6673000Y40229232D01*
X6673000Y40237320D01*
X6671610Y40241598D01*
X6649232Y40253000D01*
X5716084Y40253000D01*
X5703399Y40248878D01*
X5703234Y40248652D01*
X5702732Y40240736D01*
X281002Y40240736D01*
X262144Y40371894D01*
X261152Y40384180D01*
X258915Y40507000D01*
X258635Y40522387D01*
X5702966Y40522387D01*
X5704579Y40509151D01*
X5704676Y40509047D01*
X5712577Y40507000D01*
X6657320Y40507000D01*
X6661598Y40508390D01*
X6673000Y40530768D01*
X6673000Y41463610D01*
X6672313Y41465726D01*
X6927000Y41465726D01*
X6927000Y40522680D01*
X6928390Y40518402D01*
X6950768Y40507000D01*
X7881203Y40507000D01*
X7893888Y40511122D01*
X7895502Y40513343D01*
X7895917Y40517120D01*
X7889440Y40585012D01*
X7887664Y40594233D01*
X7831018Y40787323D01*
X7827534Y40796035D01*
X7735392Y40974939D01*
X7730322Y40982835D01*
X7606019Y41141081D01*
X7599550Y41147874D01*
X7447560Y41279765D01*
X7439918Y41285215D01*
X7265731Y41385985D01*
X7257208Y41389887D01*
X7067101Y41455904D01*
X7057992Y41458124D01*
X6942518Y41474867D01*
X6929372Y41472608D01*
X6928363Y41471573D01*
X6927000Y41465726D01*
X6672313Y41465726D01*
X6668878Y41476295D01*
X6665612Y41478668D01*
X6664067Y41478877D01*
X6648449Y41478154D01*
X6639158Y41476832D01*
X6443528Y41429684D01*
X6434656Y41426630D01*
X6251467Y41343338D01*
X6243334Y41338662D01*
X6079200Y41222234D01*
X6072100Y41216105D01*
X5932941Y41070738D01*
X5927127Y41063376D01*
X5817966Y40894316D01*
X5813655Y40886000D01*
X5738427Y40699336D01*
X5735767Y40690356D01*
X5702966Y40522387D01*
X258635Y40522387D01*
X258499Y40529848D01*
X256270Y40540077D01*
X254000Y40561156D01*
X254000Y45357561D01*
X5695741Y45357561D01*
X5696619Y45352939D01*
X5696619Y45352934D01*
X5704590Y45310950D01*
X5735034Y45150599D01*
X5812754Y44954801D01*
X5839586Y44912764D01*
X5923558Y44781206D01*
X5923562Y44781201D01*
X5926096Y44777231D01*
X5952711Y44749136D01*
X6067096Y44628389D01*
X6070971Y44624298D01*
X6074796Y44621555D01*
X6074800Y44621551D01*
X6238325Y44504263D01*
X6242151Y44501519D01*
X6246429Y44499547D01*
X6388990Y44433826D01*
X6433460Y44413325D01*
X6438027Y44412199D01*
X6438030Y44412198D01*
X6512709Y44393786D01*
X6637994Y44362897D01*
X6722415Y44358547D01*
X6843669Y44352298D01*
X6843674Y44352298D01*
X6848374Y44352056D01*
X6853035Y44352707D01*
X6853038Y44352707D01*
X7052341Y44380540D01*
X7052344Y44380541D01*
X7057008Y44381192D01*
X7211179Y44433826D01*
X7272356Y44434733D01*
X7313167Y44410139D01*
X7511378Y44211928D01*
X7524540Y44195631D01*
X7530612Y44186227D01*
X7537039Y44181161D01*
X7537041Y44181158D01*
X7556577Y44165757D01*
X7564259Y44158932D01*
X7565012Y44158294D01*
X7567894Y44155412D01*
X7571214Y44153040D01*
X7571218Y44153036D01*
X7585314Y44142962D01*
X7589043Y44140163D01*
X7629766Y44108060D01*
X7636973Y44105529D01*
X7639632Y44104148D01*
X7645843Y44099709D01*
X7653684Y44097364D01*
X7653686Y44097363D01*
X7695522Y44084852D01*
X7699956Y44083411D01*
X7748893Y44066225D01*
X7755096Y44065688D01*
X7755100Y44065687D01*
X7755151Y44065683D01*
X7755153Y44065683D01*
X7757265Y44065500D01*
X7759292Y44065500D01*
X7760598Y44065390D01*
X7766809Y44063532D01*
X7774984Y44063853D01*
X7774985Y44063853D01*
X7814964Y44065424D01*
X7818851Y44065500D01*
X10445729Y44065500D01*
X10503920Y44046593D01*
X10542827Y43985814D01*
X10546255Y43968580D01*
X10560715Y43895885D01*
X10581351Y43865001D01*
X10597959Y43806113D01*
X10581351Y43754999D01*
X10560715Y43724115D01*
X10558813Y43714553D01*
X10542827Y43634186D01*
X10512930Y43580802D01*
X10445729Y43554500D01*
X7753574Y43554500D01*
X7675721Y43592346D01*
X7606019Y43681081D01*
X7606018Y43681082D01*
X7603107Y43684788D01*
X7444000Y43822854D01*
X7261655Y43928343D01*
X7103370Y43983309D01*
X7067101Y43995904D01*
X7067098Y43995905D01*
X7062654Y43997448D01*
X7057992Y43998124D01*
X6858844Y44026999D01*
X6858843Y44026999D01*
X6854174Y44027676D01*
X6849463Y44027458D01*
X6849462Y44027458D01*
X6648450Y44018154D01*
X6643741Y44017936D01*
X6438945Y43968580D01*
X6247177Y43881388D01*
X6075357Y43759508D01*
X5929683Y43607335D01*
X5815413Y43430362D01*
X5813655Y43426001D01*
X5813655Y43426000D01*
X5742617Y43249731D01*
X5736669Y43234973D01*
X5735768Y43230360D01*
X5735767Y43230356D01*
X5697196Y43032844D01*
X5696293Y43028219D01*
X5696076Y42945385D01*
X5695757Y42823490D01*
X5695741Y42817561D01*
X5696619Y42812939D01*
X5696619Y42812934D01*
X5716844Y42706410D01*
X5735034Y42610599D01*
X5812754Y42414801D01*
X5815294Y42410822D01*
X5923558Y42241206D01*
X5923562Y42241201D01*
X5926096Y42237231D01*
X6070971Y42084298D01*
X6074796Y42081555D01*
X6074800Y42081551D01*
X6172539Y42011448D01*
X6242151Y41961519D01*
X6433460Y41873325D01*
X6438027Y41872199D01*
X6438030Y41872198D01*
X6531176Y41849233D01*
X6637994Y41822897D01*
X6722415Y41818547D01*
X6843669Y41812298D01*
X6843674Y41812298D01*
X6848374Y41812056D01*
X6853035Y41812707D01*
X6853038Y41812707D01*
X7052341Y41840540D01*
X7052344Y41840541D01*
X7057008Y41841192D01*
X7061470Y41842715D01*
X7061473Y41842716D01*
X7251909Y41907731D01*
X7251912Y41907732D01*
X7256369Y41909254D01*
X7439263Y42013786D01*
X7599091Y42151017D01*
X7632034Y42192506D01*
X7727155Y42312303D01*
X7727157Y42312306D01*
X7730086Y42315995D01*
X7750434Y42355000D01*
X7825338Y42498583D01*
X7825340Y42498589D01*
X7827520Y42502767D01*
X7887879Y42704594D01*
X7888351Y42709280D01*
X7889267Y42713906D01*
X7891187Y42713526D01*
X7912714Y42762432D01*
X7986565Y42795500D01*
X10445729Y42795500D01*
X10503920Y42776593D01*
X10542827Y42715814D01*
X10554659Y42656333D01*
X10560715Y42625885D01*
X10570929Y42610599D01*
X10581351Y42595001D01*
X10597959Y42536113D01*
X10581351Y42484999D01*
X10560715Y42454115D01*
X10541000Y42355000D01*
X10541000Y41455000D01*
X10560715Y41355885D01*
X10569962Y41342046D01*
X10581351Y41325001D01*
X10597959Y41266113D01*
X10581351Y41214999D01*
X10560715Y41184115D01*
X10541000Y41085000D01*
X10541000Y40185000D01*
X10560715Y40085885D01*
X10573857Y40066217D01*
X10581351Y40055001D01*
X10597959Y39996113D01*
X10581351Y39944999D01*
X10560715Y39914115D01*
X10558813Y39904553D01*
X10542827Y39824186D01*
X10512930Y39770802D01*
X10445729Y39744500D01*
X9870213Y39744500D01*
X9820489Y39757893D01*
X9750551Y39798516D01*
X9750550Y39798516D01*
X9744153Y39802232D01*
X9611052Y39833084D01*
X9532575Y39827527D01*
X9482147Y39823957D01*
X9482146Y39823957D01*
X9474763Y39823434D01*
X9467859Y39820763D01*
X9362942Y39780173D01*
X9347337Y39774136D01*
X9341523Y39769552D01*
X9341522Y39769552D01*
X9245852Y39694132D01*
X9245851Y39694130D01*
X9240039Y39689549D01*
X9235832Y39683462D01*
X9235831Y39683461D01*
X9183638Y39607944D01*
X9162356Y39577152D01*
X9121157Y39446882D01*
X9120084Y39310256D01*
X9122204Y39303167D01*
X9134220Y39262987D01*
X9159232Y39179354D01*
X9235140Y39065751D01*
X9341095Y38979489D01*
X9467732Y38928196D01*
X9475104Y38927558D01*
X9475106Y38927557D01*
X9529228Y38922870D01*
X9603852Y38916407D01*
X9611083Y38917964D01*
X9611086Y38917964D01*
X9730187Y38943605D01*
X9730189Y38943606D01*
X9737422Y38945163D01*
X9786909Y38972877D01*
X9835282Y38985500D01*
X10445729Y38985500D01*
X10503920Y38966593D01*
X10542827Y38905814D01*
X10549953Y38869991D01*
X10560715Y38815885D01*
X10576959Y38791574D01*
X10581351Y38785001D01*
X10597959Y38726113D01*
X10581351Y38674999D01*
X10560715Y38644115D01*
X10558813Y38634553D01*
X10542827Y38554186D01*
X10512930Y38500802D01*
X10445729Y38474500D01*
X10386605Y38474500D01*
X10336881Y38487893D01*
X10275551Y38523516D01*
X10275550Y38523516D01*
X10269153Y38527232D01*
X10136052Y38558084D01*
X10057575Y38552527D01*
X10007147Y38548957D01*
X10007146Y38548957D01*
X9999763Y38548434D01*
X9872337Y38499136D01*
X9866523Y38494552D01*
X9866522Y38494552D01*
X9770852Y38419132D01*
X9770851Y38419130D01*
X9765039Y38414549D01*
X9760832Y38408462D01*
X9760831Y38408461D01*
X9693530Y38311085D01*
X9687356Y38302152D01*
X9646157Y38171882D01*
X9645084Y38035256D01*
X9647204Y38028167D01*
X9656824Y37996000D01*
X9684232Y37904354D01*
X9760140Y37790751D01*
X9866095Y37704489D01*
X9992732Y37653196D01*
X10000104Y37652558D01*
X10000106Y37652557D01*
X10054228Y37647870D01*
X10128852Y37641407D01*
X10136083Y37642964D01*
X10136086Y37642964D01*
X10255187Y37668605D01*
X10255189Y37668606D01*
X10262422Y37670163D01*
X10320837Y37702877D01*
X10369210Y37715500D01*
X10445729Y37715500D01*
X10503920Y37696593D01*
X10542827Y37635814D01*
X10549500Y37602265D01*
X10560715Y37545885D01*
X10581351Y37515001D01*
X10597959Y37456113D01*
X10581351Y37404999D01*
X10560715Y37374115D01*
X10558813Y37364553D01*
X10558813Y37364552D01*
X10550550Y37323011D01*
X10520654Y37269627D01*
X10489172Y37249993D01*
X10429243Y37226808D01*
X10429242Y37226807D01*
X10422337Y37224136D01*
X10416523Y37219552D01*
X10416522Y37219552D01*
X10320852Y37144132D01*
X10320851Y37144130D01*
X10315039Y37139549D01*
X10310832Y37133462D01*
X10310831Y37133461D01*
X10293968Y37109062D01*
X10237356Y37027152D01*
X10196157Y36896882D01*
X10195084Y36760256D01*
X10197204Y36753167D01*
X10232111Y36636446D01*
X10234232Y36629354D01*
X10310140Y36515751D01*
X10416095Y36429489D01*
X10422951Y36426712D01*
X10490646Y36399293D01*
X10537482Y36359923D01*
X10550578Y36326848D01*
X10560715Y36275885D01*
X10581351Y36245001D01*
X10597959Y36186113D01*
X10581351Y36134999D01*
X10560715Y36104115D01*
X10541000Y36005000D01*
X10541000Y35105000D01*
X10560715Y35005885D01*
X10581351Y34975001D01*
X10597959Y34916113D01*
X10581351Y34864999D01*
X10560715Y34834115D01*
X10541000Y34735000D01*
X10541000Y33835000D01*
X10560715Y33735885D01*
X10581351Y33705001D01*
X10597959Y33646113D01*
X10581351Y33594999D01*
X10560715Y33564115D01*
X10541000Y33465000D01*
X10541000Y32565000D01*
X10560715Y32465885D01*
X10581351Y32435001D01*
X10597959Y32376113D01*
X10581351Y32324999D01*
X10560715Y32294115D01*
X10541000Y32195000D01*
X10541000Y31295000D01*
X10560715Y31195885D01*
X10616859Y31111859D01*
X10700885Y31055715D01*
X10800000Y31036000D01*
X11121501Y31036000D01*
X11179692Y31017093D01*
X11215656Y30967593D01*
X11220501Y30937000D01*
X11220500Y30080989D01*
X11202942Y30024703D01*
X11187356Y30002152D01*
X11146157Y29871882D01*
X11146099Y29864483D01*
X11145161Y29745000D01*
X11145084Y29735256D01*
X11184232Y29604354D01*
X11260140Y29490751D01*
X11265876Y29486081D01*
X11269389Y29483221D01*
X11366095Y29404489D01*
X11492732Y29353196D01*
X11500104Y29352558D01*
X11500106Y29352557D01*
X11554228Y29347870D01*
X11628852Y29341407D01*
X11636083Y29342964D01*
X11636086Y29342964D01*
X11755187Y29368605D01*
X11755189Y29368606D01*
X11762422Y29370163D01*
X11881631Y29436924D01*
X11886739Y29442279D01*
X11886742Y29442281D01*
X11945440Y29503813D01*
X11975940Y29535785D01*
X12007127Y29598200D01*
X12033701Y29651384D01*
X12033702Y29651386D01*
X12037010Y29658007D01*
X12059443Y29792782D01*
X12059500Y29800000D01*
X12047633Y29878937D01*
X12040287Y29927795D01*
X12039187Y29935112D01*
X11989256Y30039093D01*
X11979500Y30081947D01*
X11979500Y30937000D01*
X11998407Y30995191D01*
X12078500Y31036000D01*
X12800000Y31036000D01*
X12899115Y31055715D01*
X12983141Y31111859D01*
X13039285Y31195885D01*
X13059000Y31295000D01*
X13059000Y32195000D01*
X13039285Y32294115D01*
X13018649Y32324999D01*
X13002041Y32383887D01*
X13018649Y32435001D01*
X13039285Y32465885D01*
X13057173Y32555814D01*
X13087070Y32609198D01*
X13154271Y32635500D01*
X14449799Y32635500D01*
X14507990Y32616593D01*
X14543954Y32567093D01*
X14543954Y32505907D01*
X14519803Y32466496D01*
X14351929Y32298622D01*
X14335632Y32285460D01*
X14326228Y32279388D01*
X14321162Y32272961D01*
X14321159Y32272959D01*
X14305758Y32253423D01*
X14298943Y32245752D01*
X14298300Y32244993D01*
X14295412Y32242105D01*
X14282945Y32224660D01*
X14280158Y32220949D01*
X14248061Y32180234D01*
X14245534Y32173039D01*
X14244144Y32170362D01*
X14239709Y32164156D01*
X14237365Y32156318D01*
X14224854Y32114484D01*
X14223412Y32110046D01*
X14208723Y32068220D01*
X14171602Y32019582D01*
X14134630Y32003926D01*
X14035885Y31984285D01*
X13951859Y31928141D01*
X13895715Y31844115D01*
X13876000Y31745000D01*
X13876000Y29745000D01*
X13895715Y29645885D01*
X13951859Y29561859D01*
X14035885Y29505715D01*
X14135000Y29486000D01*
X15035000Y29486000D01*
X15134115Y29505715D01*
X15164999Y29526351D01*
X15223887Y29542959D01*
X15275001Y29526351D01*
X15305885Y29505715D01*
X15405000Y29486000D01*
X16305000Y29486000D01*
X16404115Y29505715D01*
X16434999Y29526351D01*
X16493887Y29542959D01*
X16545001Y29526351D01*
X16575885Y29505715D01*
X16675000Y29486000D01*
X17575000Y29486000D01*
X17674115Y29505715D01*
X17704999Y29526351D01*
X17763887Y29542959D01*
X17815001Y29526351D01*
X17845885Y29505715D01*
X17945000Y29486000D01*
X18845000Y29486000D01*
X18944115Y29505715D01*
X18974999Y29526351D01*
X19033887Y29542959D01*
X19085001Y29526351D01*
X19115885Y29505715D01*
X19215000Y29486000D01*
X20115000Y29486000D01*
X20214115Y29505715D01*
X20244999Y29526351D01*
X20303887Y29542959D01*
X20355001Y29526351D01*
X20385885Y29505715D01*
X20485000Y29486000D01*
X21385000Y29486000D01*
X21484115Y29505715D01*
X21514999Y29526351D01*
X21573887Y29542959D01*
X21625001Y29526351D01*
X21655885Y29505715D01*
X21755000Y29486000D01*
X22655000Y29486000D01*
X22754115Y29505715D01*
X22784999Y29526351D01*
X22843887Y29542959D01*
X22895001Y29526351D01*
X22925885Y29505715D01*
X23025000Y29486000D01*
X23925000Y29486000D01*
X23931988Y29487390D01*
X23947188Y29490413D01*
X24007949Y29483221D01*
X24052879Y29441687D01*
X24065501Y29393315D01*
X24065500Y27604887D01*
X24063283Y27584051D01*
X24060928Y27573112D01*
X24061889Y27564991D01*
X24061889Y27564989D01*
X24064814Y27540279D01*
X24065418Y27530037D01*
X24065500Y27529045D01*
X24065500Y27524961D01*
X24069020Y27503814D01*
X24069673Y27499228D01*
X24075768Y27447728D01*
X24079069Y27440853D01*
X24079977Y27437981D01*
X24081230Y27430455D01*
X24085117Y27423251D01*
X24105852Y27384822D01*
X24107970Y27380666D01*
X24130421Y27333911D01*
X24135829Y27327478D01*
X24137262Y27326045D01*
X24138106Y27325045D01*
X24141185Y27319338D01*
X24176565Y27286633D01*
X24179368Y27283939D01*
X33591505Y17871801D01*
X33620501Y17801797D01*
X33620500Y4258202D01*
X33591504Y4188198D01*
X32634660Y3231353D01*
X32580143Y3203576D01*
X32535381Y3206784D01*
X32399922Y3248716D01*
X32399918Y3248717D01*
X32395301Y3250146D01*
X32390493Y3250651D01*
X32390490Y3250652D01*
X32201944Y3270469D01*
X32201942Y3270469D01*
X32197128Y3270975D01*
X32132239Y3265070D01*
X32003504Y3253354D01*
X32003501Y3253353D01*
X31998684Y3252915D01*
X31994042Y3251549D01*
X31994038Y3251548D01*
X31923835Y3230886D01*
X31807527Y3196655D01*
X31803243Y3194416D01*
X31803242Y3194415D01*
X31791176Y3188107D01*
X31630938Y3104336D01*
X31627167Y3101304D01*
X31479417Y2982511D01*
X31479414Y2982509D01*
X31475644Y2979477D01*
X31472530Y2975766D01*
X31472529Y2975765D01*
X31401305Y2890883D01*
X31347559Y2826831D01*
X31345223Y2822583D01*
X31345223Y2822582D01*
X31317337Y2771857D01*
X31251563Y2652215D01*
X31191311Y2462278D01*
X31190771Y2457467D01*
X31190771Y2457465D01*
X31183991Y2397012D01*
X31169100Y2264255D01*
X31172458Y2224266D01*
X31180450Y2129096D01*
X31185774Y2065690D01*
X31187107Y2061042D01*
X31187107Y2061041D01*
X31237821Y1884180D01*
X31240698Y1874145D01*
X31331781Y1696916D01*
X31455554Y1540754D01*
X31459234Y1537622D01*
X31459236Y1537620D01*
X31488636Y1512599D01*
X31607301Y1411607D01*
X31611523Y1409247D01*
X31611528Y1409244D01*
X31688447Y1366256D01*
X31781244Y1314394D01*
X31785842Y1312900D01*
X31966150Y1254314D01*
X31966152Y1254313D01*
X31970755Y1252818D01*
X32168618Y1229224D01*
X32173440Y1229595D01*
X32173443Y1229595D01*
X32238485Y1234600D01*
X32367295Y1244511D01*
X32559219Y1298097D01*
X32588524Y1312900D01*
X32732758Y1385758D01*
X32732760Y1385759D01*
X32737079Y1387941D01*
X32894102Y1510621D01*
X33024305Y1661463D01*
X33122730Y1834722D01*
X33185627Y2023799D01*
X33187684Y2040076D01*
X33199366Y2132555D01*
X33210602Y2221492D01*
X33211000Y2250000D01*
X33209603Y2264255D01*
X33192027Y2443503D01*
X33192026Y2443507D01*
X33191555Y2448313D01*
X33187339Y2462278D01*
X33146868Y2596327D01*
X33148150Y2657499D01*
X33171639Y2694945D01*
X34233074Y3756380D01*
X34249376Y3769545D01*
X34251897Y3771173D01*
X34258772Y3775612D01*
X34279240Y3801575D01*
X34286066Y3809257D01*
X34286703Y3810009D01*
X34289588Y3812894D01*
X34302037Y3830315D01*
X34304836Y3834043D01*
X34331875Y3868341D01*
X34331875Y3868342D01*
X34336940Y3874766D01*
X34339470Y3881971D01*
X34340853Y3884632D01*
X34345291Y3890843D01*
X34349901Y3906256D01*
X34360148Y3940522D01*
X34361590Y3944959D01*
X34376710Y3988013D01*
X34378775Y3993893D01*
X34379500Y4002265D01*
X34379500Y4004292D01*
X34379610Y4005598D01*
X34381468Y4011809D01*
X34379576Y4059964D01*
X34379500Y4063851D01*
X34379500Y12330947D01*
X34743484Y12330947D01*
X34744151Y12326590D01*
X34744151Y12326586D01*
X34770346Y12155404D01*
X34777342Y12109686D01*
X34849846Y11897919D01*
X34958706Y11702337D01*
X35100479Y11529124D01*
X35270685Y11383754D01*
X35274486Y11381533D01*
X35274490Y11381530D01*
X35361502Y11330685D01*
X35463944Y11270823D01*
X35564358Y11234077D01*
X35612506Y11196324D01*
X35629269Y11137480D01*
X35608242Y11080021D01*
X35559446Y11046484D01*
X35524298Y11035671D01*
X35520377Y11033647D01*
X35520374Y11033646D01*
X35501769Y11024043D01*
X35325394Y10933009D01*
X35147813Y10796746D01*
X35144850Y10793490D01*
X35144847Y10793487D01*
X35046134Y10685002D01*
X34997169Y10631190D01*
X34878223Y10441574D01*
X34794735Y10233891D01*
X34793841Y10229574D01*
X34754874Y10041407D01*
X34749344Y10014706D01*
X34743484Y9790947D01*
X34744151Y9786590D01*
X34744151Y9786586D01*
X34774711Y9586880D01*
X34777342Y9569686D01*
X34849846Y9357919D01*
X34958706Y9162337D01*
X35100479Y8989124D01*
X35270685Y8843754D01*
X35274486Y8841533D01*
X35274490Y8841530D01*
X35402994Y8766439D01*
X35463944Y8730823D01*
X35564358Y8694077D01*
X35612506Y8656324D01*
X35629269Y8597480D01*
X35608242Y8540021D01*
X35559446Y8506484D01*
X35533738Y8498575D01*
X35524298Y8495671D01*
X35520377Y8493647D01*
X35520374Y8493646D01*
X35439061Y8451677D01*
X35325394Y8393009D01*
X35147813Y8256746D01*
X35144850Y8253490D01*
X35144847Y8253487D01*
X35019823Y8116086D01*
X34997169Y8091190D01*
X34878223Y7901574D01*
X34794735Y7693891D01*
X34793841Y7689574D01*
X34750690Y7481204D01*
X34749344Y7474706D01*
X34743484Y7250947D01*
X34744151Y7246590D01*
X34744151Y7246586D01*
X34774711Y7046880D01*
X34777342Y7029686D01*
X34849846Y6817919D01*
X34958706Y6622337D01*
X35100479Y6449124D01*
X35270685Y6303754D01*
X35274486Y6301533D01*
X35274490Y6301530D01*
X35424324Y6213975D01*
X35463944Y6190823D01*
X35564358Y6154077D01*
X35612506Y6116324D01*
X35629269Y6057480D01*
X35608242Y6000021D01*
X35559446Y5966484D01*
X35524298Y5955671D01*
X35520377Y5953647D01*
X35520374Y5953646D01*
X35455187Y5920000D01*
X35325394Y5853009D01*
X35147813Y5716746D01*
X35144850Y5713490D01*
X35144847Y5713487D01*
X35035963Y5593824D01*
X34997169Y5551190D01*
X34878223Y5361574D01*
X34794735Y5153891D01*
X34793841Y5149574D01*
X34751167Y4943508D01*
X34749344Y4934706D01*
X34743484Y4710947D01*
X34744151Y4706590D01*
X34744151Y4706586D01*
X34774711Y4506880D01*
X34777342Y4489686D01*
X34849846Y4277919D01*
X34958706Y4082337D01*
X35100479Y3909124D01*
X35270685Y3763754D01*
X35274486Y3761533D01*
X35274490Y3761530D01*
X35424324Y3673975D01*
X35463944Y3650823D01*
X35564358Y3614077D01*
X35612506Y3576324D01*
X35629269Y3517480D01*
X35608242Y3460021D01*
X35559446Y3426484D01*
X35524298Y3415671D01*
X35520377Y3413647D01*
X35520374Y3413646D01*
X35429337Y3366658D01*
X35325394Y3313009D01*
X35147813Y3176746D01*
X35144850Y3173490D01*
X35144847Y3173487D01*
X35019823Y3036086D01*
X34997169Y3011190D01*
X34878223Y2821574D01*
X34794735Y2613891D01*
X34793841Y2609574D01*
X34750841Y2401934D01*
X34749344Y2394706D01*
X34743484Y2170947D01*
X34744151Y2166590D01*
X34744151Y2166586D01*
X34774711Y1966880D01*
X34777342Y1949686D01*
X34849846Y1737919D01*
X34958706Y1542337D01*
X35100479Y1369124D01*
X35270685Y1223754D01*
X35274486Y1221533D01*
X35274490Y1221530D01*
X35381856Y1158791D01*
X35463944Y1110823D01*
X35674147Y1033899D01*
X35678484Y1033142D01*
X35678488Y1033141D01*
X35890306Y996173D01*
X35890308Y996173D01*
X35894650Y995415D01*
X35899057Y995438D01*
X35899058Y995438D01*
X36027416Y996110D01*
X36118482Y996587D01*
X36122815Y997390D01*
X36334229Y1036573D01*
X36334234Y1036574D01*
X36338570Y1037378D01*
X36411765Y1065036D01*
X36543831Y1114940D01*
X36543834Y1114941D01*
X36547956Y1116499D01*
X36740022Y1231448D01*
X36908696Y1378592D01*
X37048648Y1553280D01*
X37155453Y1749991D01*
X37225736Y1962506D01*
X37234460Y2023799D01*
X37256872Y2181274D01*
X37256873Y2181282D01*
X37257275Y2184109D01*
X37259000Y2250000D01*
X37245880Y2397012D01*
X37239494Y2468559D01*
X37239494Y2468560D01*
X37239102Y2472950D01*
X37180038Y2688852D01*
X37083674Y2890883D01*
X36994879Y3014455D01*
X36955634Y3069071D01*
X36955633Y3069072D01*
X36953057Y3072657D01*
X36792314Y3228427D01*
X36757907Y3251548D01*
X36610187Y3350811D01*
X36606528Y3353270D01*
X36602494Y3355041D01*
X36430343Y3430610D01*
X36384660Y3471313D01*
X36371626Y3531094D01*
X36396219Y3587119D01*
X36435141Y3613870D01*
X36528926Y3649308D01*
X36543831Y3654940D01*
X36543834Y3654941D01*
X36547956Y3656499D01*
X36740022Y3771448D01*
X36908696Y3918592D01*
X37048648Y4093280D01*
X37155453Y4289991D01*
X37225736Y4502506D01*
X37233055Y4553927D01*
X37256872Y4721274D01*
X37256873Y4721282D01*
X37257275Y4724109D01*
X37259000Y4790000D01*
X37258558Y4794961D01*
X37239494Y5008559D01*
X37239494Y5008560D01*
X37239102Y5012950D01*
X37180038Y5228852D01*
X37083674Y5430883D01*
X37024645Y5513031D01*
X36955634Y5609071D01*
X36955633Y5609072D01*
X36953057Y5612657D01*
X36792314Y5768427D01*
X36757907Y5791548D01*
X36699421Y5830849D01*
X36606528Y5893270D01*
X36602494Y5895041D01*
X36430343Y5970610D01*
X36384660Y6011313D01*
X36371626Y6071094D01*
X36396219Y6127119D01*
X36435141Y6153870D01*
X36528926Y6189308D01*
X36543831Y6194940D01*
X36543834Y6194941D01*
X36547956Y6196499D01*
X36740022Y6311448D01*
X36908696Y6458592D01*
X37048648Y6633280D01*
X37155453Y6829991D01*
X37225736Y7042506D01*
X37227894Y7057664D01*
X37256872Y7261274D01*
X37256873Y7261282D01*
X37257275Y7264109D01*
X37259000Y7330000D01*
X37257992Y7341301D01*
X37239494Y7548559D01*
X37239494Y7548560D01*
X37239102Y7552950D01*
X37180038Y7768852D01*
X37177267Y7774663D01*
X37119862Y7895013D01*
X37083674Y7970883D01*
X36971493Y8127000D01*
X36955634Y8149071D01*
X36955633Y8149072D01*
X36953057Y8152657D01*
X36931689Y8173364D01*
X36795479Y8305360D01*
X36795478Y8305360D01*
X36792314Y8308427D01*
X36606528Y8433270D01*
X36602494Y8435041D01*
X36430343Y8510610D01*
X36384660Y8551313D01*
X36371626Y8611094D01*
X36396219Y8667119D01*
X36435141Y8693870D01*
X36480798Y8711122D01*
X36543831Y8734940D01*
X36543834Y8734941D01*
X36547956Y8736499D01*
X36740022Y8851448D01*
X36766483Y8874531D01*
X36840819Y8939379D01*
X36908696Y8998592D01*
X37048648Y9173280D01*
X37155453Y9369991D01*
X37225736Y9582506D01*
X37230419Y9615404D01*
X37256872Y9801274D01*
X37256873Y9801282D01*
X37257275Y9804109D01*
X37259000Y9870000D01*
X37254700Y9918189D01*
X37239494Y10088559D01*
X37239494Y10088560D01*
X37239102Y10092950D01*
X37180038Y10308852D01*
X37168514Y10333014D01*
X37118886Y10437059D01*
X37083674Y10510883D01*
X36984538Y10648846D01*
X36955634Y10689071D01*
X36955633Y10689072D01*
X36953057Y10692657D01*
X36931689Y10713364D01*
X36795479Y10845360D01*
X36795478Y10845360D01*
X36792314Y10848427D01*
X36757907Y10871548D01*
X36663428Y10935035D01*
X36606528Y10973270D01*
X36592336Y10979500D01*
X36430343Y11050610D01*
X36384660Y11091313D01*
X36371626Y11151094D01*
X36396219Y11207119D01*
X36435141Y11233870D01*
X36528926Y11269308D01*
X36543831Y11274940D01*
X36543834Y11274941D01*
X36547956Y11276499D01*
X36740022Y11391448D01*
X36798126Y11442135D01*
X36840741Y11479311D01*
X36908696Y11538592D01*
X37048648Y11713280D01*
X37155453Y11909991D01*
X37225736Y12122506D01*
X37229069Y12145921D01*
X37256872Y12341274D01*
X37256873Y12341282D01*
X37257275Y12344109D01*
X37259000Y12410000D01*
X37251490Y12494155D01*
X37239494Y12628559D01*
X37239494Y12628560D01*
X37239102Y12632950D01*
X37180038Y12848852D01*
X37171660Y12866418D01*
X37118865Y12977104D01*
X37083674Y13050883D01*
X36977714Y13198343D01*
X36955634Y13229071D01*
X36955633Y13229072D01*
X36953057Y13232657D01*
X36937635Y13247602D01*
X36795479Y13385360D01*
X36795478Y13385360D01*
X36792314Y13388427D01*
X36757907Y13411548D01*
X36651713Y13482907D01*
X36606528Y13513270D01*
X36602501Y13515038D01*
X36602495Y13515041D01*
X36446530Y13583504D01*
X36401570Y13603240D01*
X36183919Y13655494D01*
X36179526Y13655747D01*
X36179521Y13655748D01*
X36064093Y13662403D01*
X35960454Y13668379D01*
X35956084Y13667850D01*
X35956079Y13667850D01*
X35742618Y13642018D01*
X35742617Y13642018D01*
X35738239Y13641488D01*
X35734022Y13640191D01*
X35734019Y13640190D01*
X35528520Y13576970D01*
X35524298Y13575671D01*
X35520377Y13573647D01*
X35520374Y13573646D01*
X35463117Y13544093D01*
X35325394Y13473009D01*
X35147813Y13336746D01*
X35144850Y13333490D01*
X35144847Y13333487D01*
X35046757Y13225687D01*
X34997169Y13171190D01*
X34878223Y12981574D01*
X34794735Y12773891D01*
X34793841Y12769574D01*
X34762341Y12617465D01*
X34749344Y12554706D01*
X34743484Y12330947D01*
X34379500Y12330947D01*
X34379500Y17950113D01*
X34381716Y17970940D01*
X34384073Y17981888D01*
X34380186Y18014730D01*
X34379585Y18024926D01*
X34379500Y18025954D01*
X34379500Y18030040D01*
X34375985Y18051159D01*
X34375329Y18055770D01*
X34370195Y18099146D01*
X34369233Y18107273D01*
X34365931Y18114149D01*
X34365022Y18117025D01*
X34363770Y18124546D01*
X34339144Y18170187D01*
X34337029Y18174337D01*
X34336608Y18175215D01*
X34314579Y18221090D01*
X34309172Y18227522D01*
X34307728Y18228966D01*
X34306897Y18229951D01*
X34303815Y18235663D01*
X34297805Y18241218D01*
X34297804Y18241220D01*
X34268439Y18268364D01*
X34265636Y18271058D01*
X24853496Y27683197D01*
X24824500Y27753201D01*
X24824500Y29387000D01*
X24843407Y29445191D01*
X24923500Y29486000D01*
X25195000Y29486000D01*
X25294115Y29505715D01*
X25324999Y29526351D01*
X25383887Y29542959D01*
X25435001Y29526351D01*
X25457779Y29511132D01*
X25475447Y29503813D01*
X25560236Y29486948D01*
X25569858Y29486000D01*
X25872320Y29486000D01*
X25876598Y29487390D01*
X25883879Y29501680D01*
X26141999Y29501680D01*
X26146121Y29488995D01*
X26150242Y29486000D01*
X26460142Y29486000D01*
X26469764Y29486948D01*
X26554553Y29503813D01*
X26572222Y29511132D01*
X26640031Y29556440D01*
X26653560Y29569969D01*
X26698868Y29637778D01*
X26706187Y29655447D01*
X26723052Y29740236D01*
X26724000Y29749858D01*
X26724000Y30602320D01*
X26722610Y30606598D01*
X26700232Y30618000D01*
X26157680Y30618001D01*
X26144995Y30613879D01*
X26142000Y30609758D01*
X26141999Y29501680D01*
X25883879Y29501680D01*
X25888000Y29509768D01*
X25888001Y30618000D01*
X25888000Y30618004D01*
X25888000Y30887680D01*
X26141999Y30887680D01*
X26143389Y30883402D01*
X26165767Y30872000D01*
X26708320Y30871999D01*
X26721005Y30876121D01*
X26724000Y30880242D01*
X26724000Y31740142D01*
X26723052Y31749764D01*
X26706187Y31834553D01*
X26698868Y31852222D01*
X26653560Y31920031D01*
X26640031Y31933560D01*
X26572222Y31978868D01*
X26554553Y31986187D01*
X26469764Y32003052D01*
X26460142Y32004000D01*
X26157680Y32004000D01*
X26153402Y32002610D01*
X26142000Y31980232D01*
X26141999Y30887680D01*
X25888000Y30887680D01*
X25888001Y31988320D01*
X25883879Y32001005D01*
X25879758Y32004000D01*
X25569858Y32004000D01*
X25560236Y32003052D01*
X25475447Y31986187D01*
X25457779Y31978868D01*
X25435001Y31963649D01*
X25376113Y31947041D01*
X25324999Y31963649D01*
X25294115Y31984285D01*
X25195000Y32004000D01*
X24295000Y32004000D01*
X24195885Y31984285D01*
X24165001Y31963649D01*
X24106113Y31947041D01*
X24054999Y31963649D01*
X24024115Y31984285D01*
X23925000Y32004000D01*
X23025000Y32004000D01*
X22925885Y31984285D01*
X22895001Y31963649D01*
X22836113Y31947041D01*
X22784999Y31963649D01*
X22754115Y31984285D01*
X22655000Y32004000D01*
X21755000Y32004000D01*
X21655885Y31984285D01*
X21625001Y31963649D01*
X21566113Y31947041D01*
X21514999Y31963649D01*
X21484115Y31984285D01*
X21385000Y32004000D01*
X20485000Y32004000D01*
X20385885Y31984285D01*
X20355001Y31963649D01*
X20296113Y31947041D01*
X20244999Y31963649D01*
X20214115Y31984285D01*
X20115000Y32004000D01*
X19215000Y32004000D01*
X19115885Y31984285D01*
X19085001Y31963649D01*
X19026113Y31947041D01*
X18974999Y31963649D01*
X18944115Y31984285D01*
X18845000Y32004000D01*
X17945000Y32004000D01*
X17845885Y31984285D01*
X17815001Y31963649D01*
X17756113Y31947041D01*
X17704999Y31963649D01*
X17674115Y31984285D01*
X17575000Y32004000D01*
X16675000Y32004000D01*
X16575885Y31984285D01*
X16545001Y31963649D01*
X16486113Y31947041D01*
X16434999Y31963649D01*
X16404115Y31984285D01*
X16305000Y32004000D01*
X15405000Y32004000D01*
X15400234Y32003052D01*
X15382671Y31999559D01*
X15321909Y32006751D01*
X15276980Y32048285D01*
X15265044Y32108295D01*
X15293354Y32166661D01*
X16991288Y33864594D01*
X18818198Y35691504D01*
X18888202Y35720500D01*
X23300113Y35720500D01*
X23320949Y35718283D01*
X23323892Y35717649D01*
X23323894Y35717649D01*
X23331888Y35715928D01*
X23340009Y35716889D01*
X23340011Y35716889D01*
X23364721Y35719814D01*
X23374952Y35720417D01*
X23375956Y35720500D01*
X23380040Y35720500D01*
X23384066Y35721170D01*
X23384077Y35721171D01*
X23401180Y35724018D01*
X23405787Y35724674D01*
X23430634Y35727615D01*
X23449146Y35729806D01*
X23449147Y35729806D01*
X23457272Y35730768D01*
X23464147Y35734069D01*
X23467017Y35734977D01*
X23474546Y35736230D01*
X23520204Y35760865D01*
X23524360Y35762982D01*
X23565473Y35782724D01*
X23565474Y35782725D01*
X23571089Y35785421D01*
X23575880Y35789449D01*
X23575900Y35789465D01*
X23575906Y35789470D01*
X23577522Y35790829D01*
X23578952Y35792259D01*
X23579953Y35793104D01*
X23585663Y35796185D01*
X23618376Y35831574D01*
X23621070Y35834377D01*
X26533074Y38746380D01*
X26549376Y38759545D01*
X26549580Y38759677D01*
X26558772Y38765612D01*
X26579240Y38791575D01*
X26586066Y38799257D01*
X26586703Y38800009D01*
X26589588Y38802894D01*
X26602037Y38820315D01*
X26604836Y38824043D01*
X26631875Y38858341D01*
X26631875Y38858342D01*
X26636940Y38864766D01*
X26639470Y38871971D01*
X26640853Y38874632D01*
X26645291Y38880843D01*
X26649649Y38895413D01*
X26660148Y38930522D01*
X26661590Y38934959D01*
X26676710Y38978013D01*
X26678775Y38983893D01*
X26679500Y38992265D01*
X26679500Y38994292D01*
X26679610Y38995598D01*
X26681468Y39001809D01*
X26679576Y39049963D01*
X26679500Y39053850D01*
X26679500Y43871702D01*
X26698407Y43929893D01*
X26730125Y43958079D01*
X26781631Y43986924D01*
X26786739Y43992279D01*
X26786742Y43992281D01*
X26831939Y44039660D01*
X26875940Y44085785D01*
X26923595Y44181158D01*
X26933701Y44201384D01*
X26933702Y44201386D01*
X26937010Y44208007D01*
X26938359Y44216107D01*
X26952366Y44300265D01*
X26959443Y44342782D01*
X26959500Y44350000D01*
X26957598Y44362655D01*
X26940287Y44477795D01*
X26939187Y44485112D01*
X26932723Y44498575D01*
X26883248Y44601605D01*
X26883247Y44601606D01*
X26880044Y44608277D01*
X26871225Y44617818D01*
X26792323Y44703173D01*
X26787299Y44708608D01*
X26669153Y44777232D01*
X26536052Y44808084D01*
X26457575Y44802527D01*
X26407147Y44798957D01*
X26407146Y44798957D01*
X26399763Y44798434D01*
X26272337Y44749136D01*
X26266523Y44744552D01*
X26266522Y44744552D01*
X26170852Y44669132D01*
X26170851Y44669130D01*
X26165039Y44664549D01*
X26160832Y44658462D01*
X26160831Y44658461D01*
X26128474Y44611644D01*
X26087356Y44552152D01*
X26085124Y44545094D01*
X26060936Y44468613D01*
X26039765Y44435542D01*
X26041228Y44434389D01*
X26020758Y44408423D01*
X26013943Y44400752D01*
X26013300Y44399993D01*
X26010412Y44397105D01*
X25997945Y44379660D01*
X25995158Y44375949D01*
X25963061Y44335234D01*
X25960534Y44328039D01*
X25959144Y44325362D01*
X25954709Y44319156D01*
X25952365Y44311318D01*
X25939854Y44269484D01*
X25938412Y44265047D01*
X25923291Y44221990D01*
X25923289Y44221983D01*
X25921226Y44216107D01*
X25920501Y44207735D01*
X25920501Y44205703D01*
X25920391Y44204407D01*
X25918532Y44198190D01*
X25918853Y44190015D01*
X25918853Y44190014D01*
X25920425Y44150011D01*
X25920501Y44146124D01*
X25920501Y43601492D01*
X25901594Y43543301D01*
X25852094Y43507337D01*
X25799147Y43505049D01*
X25793265Y43506412D01*
X25786052Y43508084D01*
X25707575Y43502527D01*
X25657147Y43498957D01*
X25657146Y43498957D01*
X25649763Y43498434D01*
X25522337Y43449136D01*
X25516523Y43444552D01*
X25516522Y43444552D01*
X25420852Y43369132D01*
X25420851Y43369130D01*
X25415039Y43364549D01*
X25410832Y43358462D01*
X25410831Y43358461D01*
X25347021Y43266136D01*
X25337356Y43252152D01*
X25296157Y43121882D01*
X25295084Y42985256D01*
X25334232Y42854354D01*
X25338344Y42848200D01*
X25338346Y42848196D01*
X25353815Y42825045D01*
X25370500Y42770044D01*
X25370500Y42721456D01*
X25368283Y42700621D01*
X25367992Y42699267D01*
X25365928Y42693391D01*
X25365203Y42685019D01*
X25365203Y42682987D01*
X25365093Y42681691D01*
X25363234Y42675474D01*
X25363555Y42667299D01*
X25363555Y42667298D01*
X25365127Y42627295D01*
X25365203Y42623408D01*
X25365202Y39442904D01*
X25336206Y39372900D01*
X24228004Y38264698D01*
X24173487Y38236921D01*
X24113055Y38246492D01*
X24069790Y38289757D01*
X24059000Y38334702D01*
X24059000Y40612320D01*
X24057610Y40616598D01*
X24035232Y40628000D01*
X21442680Y40628001D01*
X21429995Y40623879D01*
X21427000Y40619758D01*
X21426999Y38011680D01*
X21431121Y37998995D01*
X21435242Y37996000D01*
X23720299Y37996000D01*
X23778490Y37977093D01*
X23814454Y37927593D01*
X23814454Y37866407D01*
X23790303Y37826996D01*
X22921814Y36958507D01*
X22851810Y36929511D01*
X18553487Y36929511D01*
X18532651Y36931728D01*
X18529708Y36932362D01*
X18529706Y36932362D01*
X18521712Y36934083D01*
X18513591Y36933122D01*
X18513589Y36933122D01*
X18488879Y36930197D01*
X18478634Y36929593D01*
X18477642Y36929511D01*
X18473560Y36929511D01*
X18469536Y36928841D01*
X18469533Y36928841D01*
X18463328Y36927808D01*
X18452419Y36925992D01*
X18447826Y36925338D01*
X18396327Y36919243D01*
X18389452Y36915942D01*
X18386580Y36915034D01*
X18379054Y36913781D01*
X18371850Y36909894D01*
X18333421Y36889159D01*
X18329265Y36887041D01*
X18288126Y36867287D01*
X18288124Y36867286D01*
X18282510Y36864590D01*
X18276077Y36859182D01*
X18274644Y36857749D01*
X18273644Y36856905D01*
X18267937Y36853826D01*
X18236717Y36820053D01*
X18235236Y36818450D01*
X18232542Y36815647D01*
X14840393Y33423496D01*
X14770389Y33394500D01*
X13154271Y33394500D01*
X13096080Y33413407D01*
X13057173Y33474186D01*
X13041187Y33554553D01*
X13039285Y33564115D01*
X13018649Y33594999D01*
X13002041Y33653887D01*
X13018649Y33705001D01*
X13039285Y33735885D01*
X13059000Y33835000D01*
X13059000Y34735000D01*
X13039285Y34834115D01*
X13018649Y34864999D01*
X13002041Y34923887D01*
X13018649Y34975001D01*
X13039285Y35005885D01*
X13059000Y35105000D01*
X13059000Y36005000D01*
X13039285Y36104115D01*
X13018649Y36134999D01*
X13002041Y36193887D01*
X13018649Y36245001D01*
X13039285Y36275885D01*
X13059000Y36375000D01*
X13059000Y37275000D01*
X13039285Y37374115D01*
X13018649Y37404999D01*
X13002041Y37463887D01*
X13018649Y37515001D01*
X13039285Y37545885D01*
X13059000Y37645000D01*
X13059000Y38545000D01*
X13039285Y38644115D01*
X13018649Y38674999D01*
X13002041Y38733887D01*
X13018649Y38785001D01*
X13023041Y38791574D01*
X13039285Y38815885D01*
X13059000Y38915000D01*
X13059000Y39815000D01*
X13039285Y39914115D01*
X13018649Y39944999D01*
X13002041Y40003887D01*
X13018649Y40055001D01*
X13026143Y40066217D01*
X13039285Y40085885D01*
X13059000Y40185000D01*
X13059000Y40619758D01*
X18541000Y40619758D01*
X18541000Y38259858D01*
X18541948Y38250236D01*
X18558813Y38165447D01*
X18566132Y38147778D01*
X18611440Y38079969D01*
X18624969Y38066440D01*
X18692778Y38021132D01*
X18710447Y38013813D01*
X18795236Y37996948D01*
X18804858Y37996000D01*
X21157320Y37996000D01*
X21161598Y37997390D01*
X21173000Y38019768D01*
X21173001Y40612320D01*
X21168879Y40625005D01*
X21164758Y40628000D01*
X18556680Y40628001D01*
X18543995Y40623879D01*
X18541000Y40619758D01*
X13059000Y40619758D01*
X13059000Y41085000D01*
X13039285Y41184115D01*
X13018649Y41214999D01*
X13002041Y41273887D01*
X13018649Y41325001D01*
X13033868Y41347777D01*
X13033869Y41347779D01*
X13039285Y41355885D01*
X13040378Y41361377D01*
X13078411Y41405910D01*
X13130140Y41420500D01*
X15114100Y41420500D01*
X15162790Y41407180D01*
X15166095Y41404489D01*
X15292732Y41353196D01*
X15300104Y41352558D01*
X15300106Y41352557D01*
X15343166Y41348828D01*
X15428852Y41341407D01*
X15436083Y41342964D01*
X15436086Y41342964D01*
X15555187Y41368605D01*
X15555189Y41368606D01*
X15562422Y41370163D01*
X15681631Y41436924D01*
X15686739Y41442279D01*
X15686742Y41442281D01*
X15743163Y41501426D01*
X15775940Y41535785D01*
X15823084Y41630136D01*
X15833701Y41651384D01*
X15833702Y41651386D01*
X15837010Y41658007D01*
X15859443Y41792782D01*
X15859500Y41800000D01*
X15857688Y41812056D01*
X15840287Y41927795D01*
X15839187Y41935112D01*
X15827454Y41959547D01*
X15783248Y42051605D01*
X15783247Y42051606D01*
X15780044Y42058277D01*
X15755991Y42084298D01*
X15692323Y42153173D01*
X15687299Y42158608D01*
X15569153Y42227232D01*
X15436052Y42258084D01*
X15357575Y42252527D01*
X15307147Y42248957D01*
X15307146Y42248957D01*
X15299763Y42248434D01*
X15292859Y42245763D01*
X15235355Y42223516D01*
X15172337Y42199136D01*
X15166526Y42194555D01*
X15162934Y42192506D01*
X15113883Y42179500D01*
X13158000Y42179500D01*
X13099809Y42198407D01*
X13059000Y42278500D01*
X13059000Y42355000D01*
X13039285Y42454115D01*
X13018649Y42484999D01*
X13002041Y42543887D01*
X13018649Y42595001D01*
X13029071Y42610599D01*
X13039285Y42625885D01*
X13059000Y42725000D01*
X13059000Y43625000D01*
X13039285Y43724115D01*
X13018649Y43754999D01*
X13002041Y43813887D01*
X13018649Y43865001D01*
X13039285Y43895885D01*
X13059000Y43995000D01*
X13059000Y44895000D01*
X13039285Y44994115D01*
X13018649Y45024999D01*
X13002041Y45083887D01*
X13018649Y45135001D01*
X13029071Y45150599D01*
X13039285Y45165885D01*
X13059000Y45265000D01*
X13059000Y46165000D01*
X13058052Y46169764D01*
X13058052Y46169769D01*
X13054559Y46187331D01*
X13061752Y46248092D01*
X13103285Y46293021D01*
X13163295Y46304957D01*
X13221660Y46276646D01*
X13466505Y46031801D01*
X13495501Y45961798D01*
X13495500Y43355989D01*
X13477942Y43299703D01*
X13462356Y43277152D01*
X13421157Y43146882D01*
X13420084Y43010256D01*
X13422204Y43003167D01*
X13441002Y42940310D01*
X13459232Y42879354D01*
X13535140Y42765751D01*
X13540876Y42761081D01*
X13574307Y42733864D01*
X13641095Y42679489D01*
X13647951Y42676712D01*
X13651008Y42675474D01*
X13767732Y42628196D01*
X13775104Y42627558D01*
X13775106Y42627557D01*
X13829228Y42622870D01*
X13903852Y42616407D01*
X13911083Y42617964D01*
X13911086Y42617964D01*
X14030187Y42643605D01*
X14030189Y42643606D01*
X14037422Y42645163D01*
X14156631Y42711924D01*
X14161739Y42717279D01*
X14161742Y42717281D01*
X14218322Y42776593D01*
X14250940Y42810785D01*
X14282127Y42873200D01*
X14308701Y42926384D01*
X14308702Y42926386D01*
X14312010Y42933007D01*
X14314071Y42945385D01*
X14327858Y43028219D01*
X14334443Y43067782D01*
X14334500Y43075000D01*
X14322633Y43153937D01*
X14315287Y43202795D01*
X14314187Y43210112D01*
X14294966Y43250142D01*
X18541000Y43250142D01*
X18541000Y40897680D01*
X18542390Y40893402D01*
X18564768Y40882000D01*
X21157320Y40881999D01*
X21170005Y40886121D01*
X21173000Y40890242D01*
X21173000Y40897680D01*
X21426999Y40897680D01*
X21431121Y40884995D01*
X21435242Y40882000D01*
X24043320Y40881999D01*
X24056005Y40886121D01*
X24059000Y40890242D01*
X24059000Y43250142D01*
X24058052Y43259764D01*
X24041187Y43344553D01*
X24033868Y43362222D01*
X23988560Y43430031D01*
X23975031Y43443560D01*
X23907222Y43488868D01*
X23889553Y43496187D01*
X23804764Y43513052D01*
X23795142Y43514000D01*
X21442680Y43514000D01*
X21438402Y43512610D01*
X21427000Y43490232D01*
X21426999Y40897680D01*
X21173000Y40897680D01*
X21173001Y43498320D01*
X21168879Y43511005D01*
X21164758Y43514000D01*
X18804858Y43514000D01*
X18795236Y43513052D01*
X18710447Y43496187D01*
X18692778Y43488868D01*
X18624969Y43443560D01*
X18611440Y43430031D01*
X18566132Y43362222D01*
X18558813Y43344553D01*
X18541948Y43259764D01*
X18541000Y43250142D01*
X14294966Y43250142D01*
X14290345Y43259764D01*
X14264256Y43314093D01*
X14254500Y43356947D01*
X14254500Y46110117D01*
X14256718Y46130953D01*
X14257349Y46133886D01*
X14259072Y46141888D01*
X14255186Y46174721D01*
X14254582Y46184966D01*
X14254500Y46185958D01*
X14254500Y46190040D01*
X14250981Y46211181D01*
X14250326Y46215782D01*
X14245193Y46259151D01*
X14244232Y46267273D01*
X14240932Y46274146D01*
X14240023Y46277018D01*
X14238770Y46284546D01*
X14214135Y46330203D01*
X14212020Y46334354D01*
X14192275Y46375474D01*
X14192274Y46375476D01*
X14189578Y46381090D01*
X14185573Y46385855D01*
X14185571Y46385858D01*
X14185540Y46385895D01*
X14185532Y46385903D01*
X14184171Y46387523D01*
X14182735Y46388959D01*
X14181895Y46389955D01*
X14178815Y46395663D01*
X14143439Y46428364D01*
X14140636Y46431058D01*
X13353621Y47218072D01*
X13340458Y47234373D01*
X13334388Y47243773D01*
X13308422Y47264243D01*
X13300745Y47271063D01*
X13299992Y47271701D01*
X13297105Y47274588D01*
X13279678Y47287041D01*
X13275977Y47289820D01*
X13241660Y47316874D01*
X13235234Y47321940D01*
X13228033Y47324469D01*
X13225362Y47325856D01*
X13219156Y47330291D01*
X13169481Y47345147D01*
X13165074Y47346579D01*
X13123220Y47361277D01*
X13074582Y47398398D01*
X13058927Y47435370D01*
X13041187Y47524553D01*
X13039285Y47534115D01*
X13018649Y47564999D01*
X13002041Y47623887D01*
X13018649Y47675001D01*
X13033868Y47697779D01*
X13041187Y47715447D01*
X13058052Y47800236D01*
X13059000Y47809858D01*
X13059000Y48112320D01*
X13057610Y48116598D01*
X13035232Y48128000D01*
X11927002Y48128001D01*
X11926996Y48128000D01*
X10556680Y48128001D01*
X10543995Y48123879D01*
X10541000Y48119758D01*
X10541000Y47809858D01*
X10541948Y47800236D01*
X10558813Y47715447D01*
X10566132Y47697779D01*
X10581351Y47675001D01*
X10597959Y47616113D01*
X10581351Y47564999D01*
X10560715Y47534115D01*
X10541000Y47435000D01*
X10541000Y46535000D01*
X10560715Y46435885D01*
X10581351Y46405001D01*
X10597959Y46346113D01*
X10581351Y46294999D01*
X10560715Y46264115D01*
X10541000Y46165000D01*
X10541000Y45265000D01*
X10560715Y45165885D01*
X10570929Y45150599D01*
X10581351Y45135001D01*
X10597959Y45076113D01*
X10581351Y45024999D01*
X10560715Y44994115D01*
X10558813Y44984553D01*
X10542827Y44904186D01*
X10512930Y44850802D01*
X10445729Y44824500D01*
X8013202Y44824500D01*
X7943198Y44853496D01*
X7852345Y44944349D01*
X7824568Y44998866D01*
X7829731Y45042106D01*
X7827520Y45042767D01*
X7858458Y45146217D01*
X7887879Y45244594D01*
X7892463Y45290114D01*
X7908743Y45451785D01*
X7908743Y45451795D01*
X7908985Y45454193D01*
X7909000Y45460000D01*
X7888992Y45669707D01*
X7829691Y45871847D01*
X7733235Y46059127D01*
X7637882Y46180517D01*
X7606019Y46221081D01*
X7606018Y46221082D01*
X7603107Y46224788D01*
X7444000Y46362854D01*
X7261655Y46468343D01*
X7108657Y46521473D01*
X7067101Y46535904D01*
X7067098Y46535905D01*
X7062654Y46537448D01*
X7057992Y46538124D01*
X6858844Y46566999D01*
X6858843Y46566999D01*
X6854174Y46567676D01*
X6849463Y46567458D01*
X6849462Y46567458D01*
X6648450Y46558154D01*
X6643741Y46557936D01*
X6438945Y46508580D01*
X6247177Y46421388D01*
X6243334Y46418662D01*
X6224075Y46405001D01*
X6075357Y46299508D01*
X5929683Y46147335D01*
X5815413Y45970362D01*
X5813655Y45966001D01*
X5813655Y45966000D01*
X5786962Y45899765D01*
X5736669Y45774973D01*
X5735768Y45770360D01*
X5735767Y45770356D01*
X5697747Y45575664D01*
X5696293Y45568219D01*
X5696079Y45486459D01*
X5695774Y45370041D01*
X5695741Y45357561D01*
X254000Y45357561D01*
X254000Y48850000D01*
X5691000Y48850000D01*
X5691000Y47150000D01*
X5710715Y47050885D01*
X5726761Y47026871D01*
X5752012Y46989080D01*
X5766859Y46966859D01*
X5850885Y46910715D01*
X5950000Y46891000D01*
X7650000Y46891000D01*
X7749115Y46910715D01*
X7833141Y46966859D01*
X7847989Y46989080D01*
X7873239Y47026871D01*
X7889285Y47050885D01*
X7909000Y47150000D01*
X7909000Y48282657D01*
X14645700Y48282657D01*
X14645700Y48117343D01*
X14686812Y47957222D01*
X14766453Y47812356D01*
X14770718Y47807814D01*
X14770719Y47807813D01*
X14875356Y47696386D01*
X14875359Y47696384D01*
X14879619Y47691847D01*
X14932298Y47658416D01*
X15013943Y47606602D01*
X15013946Y47606600D01*
X15019199Y47603267D01*
X15025115Y47601345D01*
X15025121Y47601342D01*
X15134877Y47565681D01*
X15174289Y47541530D01*
X16116209Y46599610D01*
X16119079Y46596617D01*
X16158361Y46553898D01*
X16188840Y46535000D01*
X16196722Y46530113D01*
X16204406Y46524831D01*
X16224362Y46509684D01*
X16240339Y46497557D01*
X16256729Y46491068D01*
X16272440Y46483166D01*
X16287431Y46473871D01*
X16293910Y46471989D01*
X16293914Y46471987D01*
X16330774Y46461279D01*
X16339586Y46458263D01*
X16381540Y46441652D01*
X16395703Y46440163D01*
X16399065Y46439810D01*
X16416334Y46436421D01*
X16428284Y46432949D01*
X16428290Y46432948D01*
X16433267Y46431502D01*
X16438437Y46431122D01*
X16438439Y46431122D01*
X16445111Y46430632D01*
X16445118Y46430632D01*
X16446912Y46430500D01*
X16482448Y46430500D01*
X16492796Y46429958D01*
X16500826Y46429114D01*
X16525866Y46426482D01*
X16525867Y46426482D01*
X16532574Y46425777D01*
X16552304Y46429114D01*
X16568814Y46430500D01*
X27486674Y46430500D01*
X27544865Y46411593D01*
X27580829Y46362093D01*
X27569656Y46281316D01*
X27569863Y46281230D01*
X27569534Y46280435D01*
X27568989Y46276498D01*
X27560715Y46264115D01*
X27541000Y46165000D01*
X27541000Y45265000D01*
X27560715Y45165885D01*
X27570929Y45150599D01*
X27581351Y45135001D01*
X27597959Y45076113D01*
X27581351Y45024999D01*
X27560715Y44994115D01*
X27541000Y44895000D01*
X27541000Y43995000D01*
X27560715Y43895885D01*
X27581351Y43865001D01*
X27597959Y43806113D01*
X27581351Y43754999D01*
X27560715Y43724115D01*
X27541000Y43625000D01*
X27541000Y42725000D01*
X27560715Y42625885D01*
X27570929Y42610599D01*
X27581351Y42595001D01*
X27597959Y42536113D01*
X27581351Y42484999D01*
X27560715Y42454115D01*
X27541000Y42355000D01*
X27541000Y41455000D01*
X27560715Y41355885D01*
X27569962Y41342046D01*
X27581351Y41325001D01*
X27597959Y41266113D01*
X27581351Y41214999D01*
X27560715Y41184115D01*
X27541000Y41085000D01*
X27541000Y40185000D01*
X27560715Y40085885D01*
X27573857Y40066217D01*
X27581351Y40055001D01*
X27597959Y39996113D01*
X27581351Y39944999D01*
X27560715Y39914115D01*
X27541000Y39815000D01*
X27541000Y38915000D01*
X27560715Y38815885D01*
X27576959Y38791574D01*
X27581351Y38785001D01*
X27597959Y38726113D01*
X27581351Y38674999D01*
X27560715Y38644115D01*
X27541000Y38545000D01*
X27541000Y37645000D01*
X27560715Y37545885D01*
X27581351Y37515001D01*
X27597959Y37456113D01*
X27581351Y37404999D01*
X27560715Y37374115D01*
X27541000Y37275000D01*
X27541000Y36375000D01*
X27560715Y36275885D01*
X27581351Y36245001D01*
X27597959Y36186113D01*
X27581351Y36134999D01*
X27560715Y36104115D01*
X27541000Y36005000D01*
X27541000Y35105000D01*
X27560715Y35005885D01*
X27581351Y34975001D01*
X27597959Y34916113D01*
X27581351Y34864999D01*
X27560715Y34834115D01*
X27558813Y34824553D01*
X27555866Y34809738D01*
X27525968Y34756354D01*
X27494489Y34736722D01*
X27404241Y34701807D01*
X27397337Y34699136D01*
X27391523Y34694552D01*
X27391522Y34694552D01*
X27295852Y34619132D01*
X27295851Y34619130D01*
X27290039Y34614549D01*
X27212356Y34502152D01*
X27171157Y34371882D01*
X27170084Y34235256D01*
X27209232Y34104354D01*
X27285140Y33990751D01*
X27391095Y33904489D01*
X27397951Y33901712D01*
X27489592Y33864594D01*
X27536428Y33825224D01*
X27549523Y33792149D01*
X27560715Y33735885D01*
X27581351Y33705001D01*
X27597959Y33646113D01*
X27581351Y33594999D01*
X27560715Y33564115D01*
X27541000Y33465000D01*
X27541000Y32565000D01*
X27560715Y32465885D01*
X27581351Y32435001D01*
X27597959Y32376113D01*
X27581351Y32324999D01*
X27560715Y32294115D01*
X27541000Y32195000D01*
X27541000Y31295000D01*
X27560715Y31195885D01*
X27616859Y31111859D01*
X27700885Y31055715D01*
X27800000Y31036000D01*
X29800000Y31036000D01*
X29899115Y31055715D01*
X29983141Y31111859D01*
X30039285Y31195885D01*
X30059000Y31295000D01*
X30059000Y32195000D01*
X30039285Y32294115D01*
X30018649Y32324999D01*
X30002041Y32383887D01*
X30018649Y32435001D01*
X30039285Y32465885D01*
X30051781Y32528707D01*
X30081678Y32582091D01*
X30137243Y32607707D01*
X30186044Y32601152D01*
X30235859Y32580975D01*
X30235864Y32580974D01*
X30242722Y32578196D01*
X30250094Y32577558D01*
X30250096Y32577557D01*
X30304218Y32572870D01*
X30378842Y32566407D01*
X30386073Y32567964D01*
X30386076Y32567964D01*
X30505177Y32593605D01*
X30505179Y32593606D01*
X30512412Y32595163D01*
X30631621Y32661924D01*
X30636729Y32667279D01*
X30636732Y32667281D01*
X30681929Y32714660D01*
X30725930Y32760785D01*
X30787000Y32883007D01*
X30809433Y33017782D01*
X30809490Y33025000D01*
X30789177Y33160112D01*
X30730034Y33283277D01*
X30637289Y33383608D01*
X30563990Y33426183D01*
X30525541Y33448516D01*
X30525540Y33448516D01*
X30519143Y33452232D01*
X30386042Y33483084D01*
X30307565Y33477527D01*
X30257137Y33473957D01*
X30257136Y33473957D01*
X30249753Y33473434D01*
X30180914Y33446802D01*
X30119822Y33443439D01*
X30068420Y33476629D01*
X30048096Y33519819D01*
X30041187Y33554553D01*
X30039285Y33564115D01*
X30018649Y33594999D01*
X30002041Y33653887D01*
X30018649Y33705001D01*
X30039285Y33735885D01*
X30059000Y33835000D01*
X30059000Y34735000D01*
X30039285Y34834115D01*
X30018649Y34864999D01*
X30002041Y34923887D01*
X30018649Y34975001D01*
X30039285Y35005885D01*
X30053064Y35075158D01*
X30101788Y35142221D01*
X30175151Y35183307D01*
X30181610Y35186924D01*
X30186718Y35192279D01*
X30186721Y35192281D01*
X30231918Y35239660D01*
X30275919Y35285785D01*
X30336989Y35408007D01*
X30359422Y35542782D01*
X30359479Y35550000D01*
X30339166Y35685112D01*
X30324369Y35715928D01*
X30283227Y35801605D01*
X30283226Y35801606D01*
X30280023Y35808277D01*
X30258488Y35831574D01*
X30192302Y35903173D01*
X30187278Y35908608D01*
X30102575Y35957807D01*
X30055201Y36024100D01*
X30041187Y36094553D01*
X30039285Y36104115D01*
X30018649Y36134999D01*
X30002041Y36193887D01*
X30018649Y36245001D01*
X30039285Y36275885D01*
X30059000Y36375000D01*
X30059000Y37275000D01*
X30039285Y37374115D01*
X30018649Y37404999D01*
X30002041Y37463887D01*
X30018649Y37515001D01*
X30039285Y37545885D01*
X30059000Y37645000D01*
X30059000Y38545000D01*
X30039285Y38644115D01*
X30018649Y38674999D01*
X30002041Y38733887D01*
X30018649Y38785001D01*
X30023041Y38791574D01*
X30039285Y38815885D01*
X30059000Y38915000D01*
X30059000Y39815000D01*
X30039285Y39914115D01*
X30018649Y39944999D01*
X30002041Y40003887D01*
X30018649Y40055001D01*
X30026143Y40066217D01*
X30039285Y40085885D01*
X30059000Y40185000D01*
X30059000Y41085000D01*
X30039285Y41184115D01*
X30018649Y41214999D01*
X30002041Y41273887D01*
X30018649Y41325001D01*
X30030038Y41342046D01*
X30039285Y41355885D01*
X30059000Y41455000D01*
X30059000Y42355000D01*
X30039285Y42454115D01*
X30018649Y42484999D01*
X30002041Y42543887D01*
X30018649Y42595001D01*
X30029071Y42610599D01*
X30039285Y42625885D01*
X30059000Y42725000D01*
X30059000Y42765299D01*
X30077907Y42823490D01*
X30127407Y42859454D01*
X30188593Y42859454D01*
X30228004Y42835303D01*
X30784806Y42278500D01*
X31296378Y41766928D01*
X31309540Y41750631D01*
X31315612Y41741227D01*
X31322039Y41736161D01*
X31327545Y41730109D01*
X31324273Y41727131D01*
X31353279Y41676761D01*
X31360957Y41623150D01*
X31363877Y41616728D01*
X31363878Y41616724D01*
X31400679Y41535785D01*
X31419222Y41495001D01*
X31423827Y41489657D01*
X31423828Y41489655D01*
X31499606Y41401711D01*
X31511113Y41388357D01*
X31629242Y41311789D01*
X31636000Y41309768D01*
X31636002Y41309767D01*
X31649866Y41305621D01*
X31700200Y41270833D01*
X31720500Y41210772D01*
X31720500Y40980989D01*
X31702942Y40924703D01*
X31687356Y40902152D01*
X31669393Y40845354D01*
X31653796Y40796035D01*
X31646157Y40771882D01*
X31645084Y40635256D01*
X31647204Y40628167D01*
X31676608Y40529848D01*
X31684232Y40504354D01*
X31760140Y40390751D01*
X31866095Y40304489D01*
X31992732Y40253196D01*
X32000104Y40252558D01*
X32000106Y40252557D01*
X32054228Y40247870D01*
X32128852Y40241407D01*
X32136083Y40242964D01*
X32136086Y40242964D01*
X32255187Y40268605D01*
X32255189Y40268606D01*
X32262422Y40270163D01*
X32381631Y40336924D01*
X32386739Y40342279D01*
X32386742Y40342281D01*
X32438847Y40396902D01*
X32475940Y40435785D01*
X32507127Y40498200D01*
X32533701Y40551384D01*
X32533702Y40551386D01*
X32537010Y40558007D01*
X32559443Y40692782D01*
X32559500Y40700000D01*
X32547633Y40778937D01*
X32540287Y40827795D01*
X32539187Y40835112D01*
X32489256Y40939093D01*
X32479500Y40981947D01*
X32479500Y41191646D01*
X32498407Y41249837D01*
X32549158Y41285571D01*
X32551850Y41285957D01*
X32679999Y41344222D01*
X32685343Y41348827D01*
X32685345Y41348828D01*
X32781301Y41431510D01*
X32786643Y41436113D01*
X32795798Y41450236D01*
X32859377Y41548325D01*
X32859378Y41548327D01*
X32863212Y41554242D01*
X32903546Y41689113D01*
X32903943Y41694456D01*
X32904917Y41699735D01*
X32907281Y41699299D01*
X32926829Y41747039D01*
X32978868Y41779219D01*
X33039884Y41774666D01*
X33086570Y41735118D01*
X33100369Y41697083D01*
X33109956Y41630137D01*
X33113878Y41616724D01*
X33166301Y41501426D01*
X33173828Y41489655D01*
X33256508Y41393701D01*
X33267033Y41384520D01*
X33373321Y41315627D01*
X33386001Y41309767D01*
X33508971Y41272992D01*
X33519464Y41271056D01*
X33585675Y41266136D01*
X33589334Y41266000D01*
X33732320Y41266000D01*
X33736598Y41267390D01*
X33743879Y41281680D01*
X34001999Y41281680D01*
X34006121Y41268995D01*
X34010242Y41266000D01*
X34158972Y41266000D01*
X34165991Y41266500D01*
X34294864Y41284956D01*
X34308276Y41288878D01*
X34423574Y41341301D01*
X34435345Y41348828D01*
X34531301Y41431510D01*
X34540478Y41442029D01*
X34609377Y41548325D01*
X34615233Y41561000D01*
X34652010Y41683978D01*
X34653943Y41694455D01*
X34658864Y41760675D01*
X34659000Y41764334D01*
X34659000Y41857320D01*
X34657610Y41861598D01*
X34635232Y41873000D01*
X34017680Y41873001D01*
X34013402Y41871611D01*
X34002000Y41849233D01*
X34001999Y41281680D01*
X33743879Y41281680D01*
X33748000Y41289768D01*
X33748001Y41873000D01*
X33748000Y41873004D01*
X33748000Y42142680D01*
X34001999Y42142680D01*
X34006121Y42129995D01*
X34010242Y42127000D01*
X34643320Y42126999D01*
X34656005Y42131121D01*
X34659000Y42135242D01*
X34659000Y42233972D01*
X34658500Y42240991D01*
X34640044Y42369864D01*
X34636122Y42383276D01*
X34583699Y42498574D01*
X34576172Y42510345D01*
X34493492Y42606299D01*
X34482967Y42615480D01*
X34376679Y42684373D01*
X34363999Y42690233D01*
X34241029Y42727008D01*
X34230536Y42728944D01*
X34164325Y42733864D01*
X34160666Y42734000D01*
X34017680Y42734000D01*
X34013402Y42732610D01*
X34002000Y42710232D01*
X34001999Y42142680D01*
X33748000Y42142680D01*
X33748001Y42718320D01*
X33743879Y42731005D01*
X33739758Y42734000D01*
X33634701Y42734000D01*
X33576510Y42752907D01*
X33540546Y42802407D01*
X33540546Y42863593D01*
X33564698Y42903004D01*
X33898699Y43237004D01*
X33968702Y43266000D01*
X34162500Y43266000D01*
X34165991Y43266500D01*
X34165992Y43266500D01*
X34294865Y43284956D01*
X34294868Y43284957D01*
X34301851Y43285957D01*
X34308273Y43288877D01*
X34308277Y43288878D01*
X34405927Y43333277D01*
X34430000Y43344222D01*
X34435344Y43348827D01*
X34435346Y43348828D01*
X34531300Y43431508D01*
X34531301Y43431509D01*
X34536644Y43436113D01*
X34570838Y43488868D01*
X34609376Y43548323D01*
X34609378Y43548327D01*
X34613212Y43554242D01*
X34653546Y43689113D01*
X34659000Y43762500D01*
X34659000Y44237500D01*
X34654742Y44267235D01*
X34640044Y44369865D01*
X34640043Y44369868D01*
X34639043Y44376851D01*
X34636123Y44383273D01*
X34636122Y44383277D01*
X34583699Y44498575D01*
X34580778Y44505000D01*
X34535139Y44557967D01*
X34493492Y44606300D01*
X34493491Y44606301D01*
X34488887Y44611644D01*
X34429500Y44650137D01*
X34376677Y44684376D01*
X34376674Y44684377D01*
X34370758Y44688212D01*
X34235887Y44728546D01*
X34162500Y44734000D01*
X33587500Y44734000D01*
X33584009Y44733500D01*
X33584008Y44733500D01*
X33455135Y44715044D01*
X33455132Y44715043D01*
X33448149Y44714043D01*
X33441727Y44711123D01*
X33441723Y44711122D01*
X33355379Y44671864D01*
X33320000Y44655778D01*
X33314656Y44651173D01*
X33314654Y44651172D01*
X33222198Y44571506D01*
X33213356Y44563887D01*
X33209519Y44557967D01*
X33140624Y44451677D01*
X33140623Y44451674D01*
X33136788Y44445758D01*
X33096454Y44310887D01*
X33096057Y44305544D01*
X33095083Y44300265D01*
X33092720Y44300701D01*
X33073167Y44252958D01*
X33021126Y44220780D01*
X32960111Y44225337D01*
X32913427Y44264888D01*
X32899631Y44302918D01*
X32897755Y44316022D01*
X32894472Y44338946D01*
X32890044Y44369864D01*
X32890043Y44369866D01*
X32889043Y44376851D01*
X32886123Y44383273D01*
X32886122Y44383277D01*
X32833699Y44498575D01*
X32830778Y44505000D01*
X32785139Y44557967D01*
X32743492Y44606300D01*
X32743491Y44606301D01*
X32738887Y44611644D01*
X32724653Y44620870D01*
X32686107Y44668386D01*
X32679500Y44703945D01*
X32679500Y45405278D01*
X32698407Y45463469D01*
X32737524Y45495400D01*
X32842810Y45543271D01*
X32842811Y45543272D01*
X32849234Y45546192D01*
X32935012Y45620103D01*
X32991439Y45643764D01*
X33074634Y45609728D01*
X33085790Y45596781D01*
X33096316Y45587599D01*
X33205578Y45516779D01*
X33218258Y45510920D01*
X33344623Y45473129D01*
X33355115Y45471193D01*
X33423175Y45466136D01*
X33426834Y45466000D01*
X33657320Y45466000D01*
X33661598Y45467390D01*
X33673000Y45489768D01*
X33673000Y46099232D01*
X33927000Y46099232D01*
X33927000Y45481680D01*
X33928390Y45477402D01*
X33950768Y45466000D01*
X34171473Y45466000D01*
X34178492Y45466500D01*
X34310875Y45485459D01*
X34324281Y45489379D01*
X34442810Y45543271D01*
X34454580Y45550799D01*
X34553220Y45635791D01*
X34562401Y45646316D01*
X34633221Y45755578D01*
X34639080Y45768258D01*
X34676871Y45894623D01*
X34678807Y45905115D01*
X34683864Y45973175D01*
X34684000Y45976834D01*
X34684000Y46107320D01*
X34682610Y46111598D01*
X34660232Y46123000D01*
X33942680Y46123000D01*
X33938402Y46121610D01*
X33927000Y46099232D01*
X33673000Y46099232D01*
X33673000Y47010232D01*
X33927000Y47010232D01*
X33927000Y46392680D01*
X33928390Y46388402D01*
X33950768Y46377000D01*
X34668320Y46377000D01*
X34672598Y46378390D01*
X34684000Y46400768D01*
X34684000Y46521473D01*
X34683500Y46528492D01*
X34664541Y46660875D01*
X34660621Y46674281D01*
X34606729Y46792810D01*
X34599201Y46804580D01*
X34514209Y46903220D01*
X34503684Y46912401D01*
X34394422Y46983221D01*
X34381742Y46989080D01*
X34255377Y47026871D01*
X34244885Y47028807D01*
X34176825Y47033864D01*
X34173166Y47034000D01*
X33942680Y47034000D01*
X33938402Y47032610D01*
X33927000Y47010232D01*
X33673000Y47010232D01*
X33673000Y47018320D01*
X33671610Y47022598D01*
X33649232Y47034000D01*
X33428527Y47034000D01*
X33421508Y47033500D01*
X33289125Y47014541D01*
X33275719Y47010621D01*
X33157190Y46956729D01*
X33145420Y46949201D01*
X33064987Y46879897D01*
X33008561Y46856236D01*
X32925366Y46890272D01*
X32914210Y46903219D01*
X32914208Y46903221D01*
X32909604Y46908564D01*
X32839801Y46953808D01*
X32799653Y46979831D01*
X32761106Y47027347D01*
X32754500Y47062906D01*
X32754500Y47613674D01*
X32778898Y47678755D01*
X32781299Y47681508D01*
X32786644Y47686113D01*
X32824813Y47745000D01*
X32859376Y47798323D01*
X32859377Y47798326D01*
X32863212Y47804242D01*
X32903546Y47939113D01*
X32903943Y47944456D01*
X32904917Y47949735D01*
X32907280Y47949299D01*
X32926833Y47997042D01*
X32978874Y48029220D01*
X33039889Y48024663D01*
X33086573Y47985112D01*
X33100369Y47947082D01*
X33109956Y47880136D01*
X33113878Y47866723D01*
X33166301Y47751425D01*
X33173828Y47739654D01*
X33256508Y47643700D01*
X33267033Y47634519D01*
X33373323Y47565624D01*
X33386000Y47559767D01*
X33508978Y47522990D01*
X33519455Y47521057D01*
X33585675Y47516136D01*
X33589334Y47516000D01*
X33732320Y47516000D01*
X33736598Y47517390D01*
X33748000Y47539768D01*
X33748000Y48099232D01*
X34002000Y48099232D01*
X34002000Y47531680D01*
X34003390Y47527402D01*
X34025768Y47516000D01*
X34158973Y47516000D01*
X34165992Y47516500D01*
X34294865Y47534956D01*
X34308277Y47538878D01*
X34423575Y47591301D01*
X34435346Y47598828D01*
X34531300Y47681508D01*
X34540481Y47692033D01*
X34609376Y47798323D01*
X34615233Y47811000D01*
X34652010Y47933978D01*
X34653943Y47944455D01*
X34658864Y48010675D01*
X34659000Y48014334D01*
X34659000Y48107320D01*
X34657610Y48111598D01*
X34635232Y48123000D01*
X34017680Y48123000D01*
X34013402Y48121610D01*
X34002000Y48099232D01*
X33748000Y48099232D01*
X33748000Y48960232D01*
X34002000Y48960232D01*
X34002000Y48392680D01*
X34003390Y48388402D01*
X34025768Y48377000D01*
X34643320Y48377000D01*
X34647598Y48378390D01*
X34659000Y48400768D01*
X34659000Y48483973D01*
X34658500Y48490992D01*
X34640044Y48619865D01*
X34636122Y48633277D01*
X34583699Y48748575D01*
X34576172Y48760346D01*
X34493492Y48856300D01*
X34482967Y48865481D01*
X34376677Y48934376D01*
X34364000Y48940233D01*
X34241022Y48977010D01*
X34230545Y48978943D01*
X34164325Y48983864D01*
X34160666Y48984000D01*
X34017680Y48984000D01*
X34013402Y48982610D01*
X34002000Y48960232D01*
X33748000Y48960232D01*
X33748000Y48968320D01*
X33746610Y48972598D01*
X33724232Y48984000D01*
X33591027Y48984000D01*
X33584008Y48983500D01*
X33455135Y48965044D01*
X33441723Y48961122D01*
X33326425Y48908699D01*
X33314654Y48901172D01*
X33218700Y48818492D01*
X33209519Y48807967D01*
X33140624Y48701677D01*
X33134767Y48689000D01*
X33097990Y48566022D01*
X33095083Y48550265D01*
X33092720Y48550701D01*
X33073167Y48502958D01*
X33021126Y48470780D01*
X32960111Y48475337D01*
X32913427Y48514888D01*
X32899631Y48552918D01*
X32897755Y48566022D01*
X32890044Y48619865D01*
X32890043Y48619866D01*
X32889043Y48626851D01*
X32886123Y48633273D01*
X32886122Y48633277D01*
X32833699Y48748575D01*
X32830778Y48755000D01*
X32794819Y48796733D01*
X32743492Y48856300D01*
X32743491Y48856301D01*
X32738887Y48861644D01*
X32689647Y48893560D01*
X32626677Y48934376D01*
X32626674Y48934377D01*
X32620758Y48938212D01*
X32485887Y48978546D01*
X32412500Y48984000D01*
X31837500Y48984000D01*
X31834009Y48983500D01*
X31834008Y48983500D01*
X31705135Y48965044D01*
X31705132Y48965043D01*
X31698149Y48964043D01*
X31691727Y48961123D01*
X31691723Y48961122D01*
X31605379Y48921864D01*
X31570000Y48905778D01*
X31564656Y48901173D01*
X31564654Y48901172D01*
X31499629Y48845142D01*
X31463356Y48813887D01*
X31459519Y48807967D01*
X31390624Y48701677D01*
X31390623Y48701674D01*
X31386788Y48695758D01*
X31346454Y48560887D01*
X31341000Y48487500D01*
X31341000Y48012500D01*
X31341500Y48009009D01*
X31341500Y48009008D01*
X31359956Y47880135D01*
X31359957Y47880132D01*
X31360957Y47873149D01*
X31363877Y47866727D01*
X31363878Y47866723D01*
X31394108Y47800236D01*
X31419222Y47745000D01*
X31423827Y47739656D01*
X31423828Y47739654D01*
X31479537Y47675001D01*
X31511113Y47638356D01*
X31517033Y47634519D01*
X31600348Y47580516D01*
X31638895Y47533000D01*
X31645501Y47497441D01*
X31645500Y47060621D01*
X31626593Y47002430D01*
X31587476Y46970499D01*
X31567552Y46961440D01*
X31550766Y46953808D01*
X31441436Y46859604D01*
X31437599Y46853684D01*
X31434986Y46849653D01*
X31387470Y46811106D01*
X31351911Y46804500D01*
X31020690Y46804500D01*
X30950686Y46833496D01*
X30413790Y47370391D01*
X30410920Y47373384D01*
X30371639Y47416102D01*
X30333477Y47439764D01*
X30333288Y47439881D01*
X30325602Y47445163D01*
X30295038Y47468362D01*
X30289660Y47472444D01*
X30273275Y47478931D01*
X30257556Y47486837D01*
X30248303Y47492574D01*
X30248301Y47492575D01*
X30242569Y47496129D01*
X30199225Y47508722D01*
X30190412Y47511739D01*
X30148459Y47528349D01*
X30130937Y47530190D01*
X30113663Y47533579D01*
X30105406Y47535978D01*
X30101714Y47537051D01*
X30101713Y47537051D01*
X30096733Y47538498D01*
X30093469Y47538738D01*
X30040117Y47567341D01*
X30013484Y47622426D01*
X30029251Y47690868D01*
X30033868Y47697779D01*
X30041187Y47715447D01*
X30058052Y47800236D01*
X30059000Y47809858D01*
X30059000Y48112320D01*
X30057610Y48116598D01*
X30035232Y48128000D01*
X28927002Y48128001D01*
X28926996Y48128000D01*
X27556680Y48128001D01*
X27543995Y48123879D01*
X27541000Y48119758D01*
X27541000Y47809858D01*
X27541948Y47800236D01*
X27558813Y47715447D01*
X27566131Y47697781D01*
X27568989Y47693503D01*
X27585598Y47634615D01*
X27564421Y47577211D01*
X27486674Y47539500D01*
X16785689Y47539500D01*
X16715685Y47568496D01*
X15963276Y48320905D01*
X15938807Y48363807D01*
X15938781Y48364011D01*
X15877924Y48517717D01*
X15780755Y48651459D01*
X15775960Y48655425D01*
X15775958Y48655428D01*
X15721908Y48700142D01*
X27541000Y48700142D01*
X27541000Y48397680D01*
X27542390Y48393402D01*
X27564768Y48382000D01*
X28657320Y48381999D01*
X28661598Y48383389D01*
X28668879Y48397680D01*
X28926999Y48397680D01*
X28931121Y48384995D01*
X28935242Y48382000D01*
X30043320Y48381999D01*
X30056005Y48386121D01*
X30059000Y48390242D01*
X30059000Y48700142D01*
X30058052Y48709764D01*
X30041187Y48794553D01*
X30033868Y48812222D01*
X29988560Y48880031D01*
X29975031Y48893560D01*
X29907222Y48938868D01*
X29889553Y48946187D01*
X29804764Y48963052D01*
X29795142Y48964000D01*
X28942680Y48964000D01*
X28938402Y48962610D01*
X28927000Y48940232D01*
X28926999Y48397680D01*
X28668879Y48397680D01*
X28673000Y48405767D01*
X28673001Y48948320D01*
X28668879Y48961005D01*
X28664758Y48964000D01*
X27804858Y48964000D01*
X27795236Y48963052D01*
X27710447Y48946187D01*
X27692778Y48938868D01*
X27624969Y48893560D01*
X27611440Y48880031D01*
X27566132Y48812222D01*
X27558813Y48794553D01*
X27541948Y48709764D01*
X27541000Y48700142D01*
X15721908Y48700142D01*
X15663361Y48748575D01*
X15653378Y48756834D01*
X15647745Y48759485D01*
X15647743Y48759486D01*
X15564500Y48798657D01*
X15503797Y48827222D01*
X15341410Y48858199D01*
X15269040Y48853646D01*
X15182632Y48848209D01*
X15182630Y48848209D01*
X15176422Y48847818D01*
X15116626Y48828389D01*
X15025119Y48798657D01*
X15025116Y48798655D01*
X15019199Y48796733D01*
X15013946Y48793400D01*
X15013943Y48793398D01*
X14961862Y48760346D01*
X14879619Y48708153D01*
X14875359Y48703616D01*
X14875356Y48703614D01*
X14770719Y48592187D01*
X14766453Y48587644D01*
X14686812Y48442778D01*
X14645700Y48282657D01*
X7909000Y48282657D01*
X7909000Y48700142D01*
X10541000Y48700142D01*
X10541000Y48397680D01*
X10542390Y48393402D01*
X10564768Y48382000D01*
X11657320Y48381999D01*
X11661598Y48383389D01*
X11668879Y48397680D01*
X11926999Y48397680D01*
X11931121Y48384995D01*
X11935242Y48382000D01*
X13043320Y48381999D01*
X13056005Y48386121D01*
X13059000Y48390242D01*
X13059000Y48700142D01*
X13058052Y48709764D01*
X13041187Y48794553D01*
X13033868Y48812222D01*
X12988560Y48880031D01*
X12975031Y48893560D01*
X12907222Y48938868D01*
X12889553Y48946187D01*
X12804764Y48963052D01*
X12795142Y48964000D01*
X11942680Y48964000D01*
X11938402Y48962610D01*
X11927000Y48940232D01*
X11926999Y48397680D01*
X11668879Y48397680D01*
X11673000Y48405767D01*
X11673001Y48948320D01*
X11668879Y48961005D01*
X11664758Y48964000D01*
X10804858Y48964000D01*
X10795236Y48963052D01*
X10710447Y48946187D01*
X10692778Y48938868D01*
X10624969Y48893560D01*
X10611440Y48880031D01*
X10566132Y48812222D01*
X10558813Y48794553D01*
X10541948Y48709764D01*
X10541000Y48700142D01*
X7909000Y48700142D01*
X7909000Y48850000D01*
X7889285Y48949115D01*
X7833141Y49033141D01*
X7749115Y49089285D01*
X7650000Y49109000D01*
X5950000Y49109000D01*
X5850885Y49089285D01*
X5766859Y49033141D01*
X5710715Y48949115D01*
X5691000Y48850000D01*
X254000Y48850000D01*
X254000Y49901000D01*
X272907Y49959191D01*
X353000Y50000000D01*
X40147001Y50000000D01*
X40205192Y49981093D01*
G37*
%TD.AperFunction*%
%TD*%
M02*
